{\rtf1\ansi\ansicpg1252\cocoartf2580
\cocoatextscaling0\cocoaplatform0{\fonttbl\f0\fnil\fcharset0 .AppleSystemUIFontMonospaced-Regular;}
{\colortbl;\red255\green255\blue255;\red27\green31\blue35;\red255\green255\blue255;\red109\green109\blue109;
}
{\*\expandedcolortbl;;\cssrgb\c14118\c16078\c18431;\cssrgb\c100000\c100000\c100000;\cssrgb\c50196\c50196\c50196;
}
\paperw11900\paperh16840\margl1440\margr1440\vieww11520\viewh8400\viewkind0
\deftab720

\itap1\trowd \taflags1 \trgaph108\trleft-108 \trcbpat3 \trbrdrt\brdrnil \trbrdrl\brdrnil \trbrdrr\brdrnil 
\clvertalt \clshdrawnil \clwWidth37045\clftsWidth3 \clbrdrt\brdrnil \clbrdrl\brdrnil \clbrdrb\brdrnil \clbrdrr\brdrnil \clpadl200 \clpadr200 \gaph\cellx4320
\clmrg \clvertalt \clshdrawnil \clwWidth37045\clftsWidth3 \clbrdrt\brdrnil \clbrdrl\brdrnil \clbrdrb\brdrnil \clbrdrr\brdrnil \clpadl200 \clpadr200 \gaph\cellx8640
\pard\intbl\itap1\pardeftab720\sl400\partightenfactor0

\f0\fs24 \cf2 \expnd0\expndtw0\kerning0
\outl0\strokewidth0 \strokec2 <mxfile host="app.diagrams.net" modified="2021-05-14T11:34:16.872Z" agent="5.0 (Macintosh; Intel Mac OS X 11_2_3) AppleWebKit/537.36 (KHTML, like Gecko) Chrome/89.0.4389.82 Safari/537.36" etag="-G0WeBo1SN2PXeqlcckq" version="14.6.3" type="github">\cell 
\pard\intbl\itap1\cell \row

\itap1\trowd \taflags1 \trgaph108\trleft-108 \trcbpat3 \trbrdrl\brdrnil \trbrdrr\brdrnil 
\clvertalt \clshdrawnil \clwWidth37045\clftsWidth3 \clminw1000 \clbrdrt\brdrnil \clbrdrl\brdrnil \clbrdrb\brdrnil \clbrdrr\brdrnil \clpadl200 \clpadr200 \gaph\cellx4320
\clvertalt \clshdrawnil \clwWidth49061\clftsWidth3 \clbrdrt\brdrnil \clbrdrl\brdrnil \clbrdrb\brdrnil \clbrdrr\brdrnil \clpadl200 \clpadr200 \gaph\cellx8640
\pard\intbl\itap1\pardeftab720\sl400\qr\partightenfactor0
\cf2 \cell 
\pard\intbl\itap1\pardeftab720\sl400\partightenfactor0
\cf2   <diagram id="C5RBs43oDa-KdzZeNtuy" name="Page-1">\cell \row

\itap1\trowd \taflags1 \trgaph108\trleft-108 \trcbpat3 \trbrdrl\brdrnil \trbrdrr\brdrnil 
\clvertalt \clshdrawnil \clwWidth37045\clftsWidth3 \clminw1000 \clbrdrt\brdrnil \clbrdrl\brdrnil \clbrdrb\brdrnil \clbrdrr\brdrnil \clpadl200 \clpadr200 \gaph\cellx4320
\clvertalt \clshdrawnil \clwWidth49061\clftsWidth3 \clbrdrt\brdrnil \clbrdrl\brdrnil \clbrdrb\brdrnil \clbrdrr\brdrnil \clpadl200 \clpadr200 \gaph\cellx8640
\pard\intbl\itap1\pardeftab720\sl400\qr\partightenfactor0
\cf2 \cell 
\pard\intbl\itap1\pardeftab720\sl400\partightenfactor0
\cf2     <mxGraphModel dx="1577" dy="952" grid="1" gridSize="10" guides="1" tooltips="1" connect="1" arrows="1" fold="1" page="1" pageScale="1" pageWidth="827" pageHeight="1169" math="1" shadow="0">\cell \row

\itap1\trowd \taflags1 \trgaph108\trleft-108 \trcbpat3 \trbrdrl\brdrnil \trbrdrr\brdrnil 
\clvertalt \clshdrawnil \clwWidth37045\clftsWidth3 \clminw1000 \clbrdrt\brdrnil \clbrdrl\brdrnil \clbrdrb\brdrnil \clbrdrr\brdrnil \clpadl200 \clpadr200 \gaph\cellx4320
\clvertalt \clshdrawnil \clwWidth49061\clftsWidth3 \clbrdrt\brdrnil \clbrdrl\brdrnil \clbrdrb\brdrnil \clbrdrr\brdrnil \clpadl200 \clpadr200 \gaph\cellx8640
\pard\intbl\itap1\pardeftab720\sl400\qr\partightenfactor0
\cf2 \cell 
\pard\intbl\itap1\pardeftab720\sl400\partightenfactor0
\cf2       <root>\cell \row

\itap1\trowd \taflags1 \trgaph108\trleft-108 \trcbpat3 \trbrdrl\brdrnil \trbrdrr\brdrnil 
\clvertalt \clshdrawnil \clwWidth37045\clftsWidth3 \clminw1000 \clbrdrt\brdrnil \clbrdrl\brdrnil \clbrdrb\brdrnil \clbrdrr\brdrnil \clpadl200 \clpadr200 \gaph\cellx4320
\clvertalt \clshdrawnil \clwWidth49061\clftsWidth3 \clbrdrt\brdrnil \clbrdrl\brdrnil \clbrdrb\brdrnil \clbrdrr\brdrnil \clpadl200 \clpadr200 \gaph\cellx8640
\pard\intbl\itap1\pardeftab720\sl400\qr\partightenfactor0
\cf2 \cell 
\pard\intbl\itap1\pardeftab720\sl400\partightenfactor0
\cf2         <mxCell id="WIyWlLk6GJQsqaUBKTNV-0" />\cell \row

\itap1\trowd \taflags1 \trgaph108\trleft-108 \trcbpat3 \trbrdrl\brdrnil \trbrdrr\brdrnil 
\clvertalt \clshdrawnil \clwWidth37045\clftsWidth3 \clminw1000 \clbrdrt\brdrnil \clbrdrl\brdrnil \clbrdrb\brdrnil \clbrdrr\brdrnil \clpadl200 \clpadr200 \gaph\cellx4320
\clvertalt \clshdrawnil \clwWidth49061\clftsWidth3 \clbrdrt\brdrnil \clbrdrl\brdrnil \clbrdrb\brdrnil \clbrdrr\brdrnil \clpadl200 \clpadr200 \gaph\cellx8640
\pard\intbl\itap1\pardeftab720\sl400\qr\partightenfactor0
\cf2 \cell 
\pard\intbl\itap1\pardeftab720\sl400\partightenfactor0
\cf2         <mxCell id="WIyWlLk6GJQsqaUBKTNV-1" parent="WIyWlLk6GJQsqaUBKTNV-0" />\cell \row

\itap1\trowd \taflags1 \trgaph108\trleft-108 \trcbpat3 \trbrdrl\brdrnil \trbrdrr\brdrnil 
\clvertalt \clshdrawnil \clwWidth37045\clftsWidth3 \clminw1000 \clbrdrt\brdrnil \clbrdrl\brdrnil \clbrdrb\brdrnil \clbrdrr\brdrnil \clpadl200 \clpadr200 \gaph\cellx4320
\clvertalt \clshdrawnil \clwWidth49061\clftsWidth3 \clbrdrt\brdrnil \clbrdrl\brdrnil \clbrdrb\brdrnil \clbrdrr\brdrnil \clpadl200 \clpadr200 \gaph\cellx8640
\pard\intbl\itap1\pardeftab720\sl400\qr\partightenfactor0
\cf2 \cell 
\pard\intbl\itap1\pardeftab720\sl400\partightenfactor0
\cf2         <mxCell id="sPDVBLaamCeaX5s3TwPM-6" value="" style="edgeStyle=orthogonalEdgeStyle;rounded=0;orthogonalLoop=1;jettySize=auto;html=1;fontSize=20;" parent="WIyWlLk6GJQsqaUBKTNV-1" source="sPDVBLaamCeaX5s3TwPM-2" target="sPDVBLaamCeaX5s3TwPM-4" edge="1">\cell \row

\itap1\trowd \taflags1 \trgaph108\trleft-108 \trcbpat3 \trbrdrl\brdrnil \trbrdrr\brdrnil 
\clvertalt \clshdrawnil \clwWidth37045\clftsWidth3 \clminw1000 \clbrdrt\brdrnil \clbrdrl\brdrnil \clbrdrb\brdrnil \clbrdrr\brdrnil \clpadl200 \clpadr200 \gaph\cellx4320
\clvertalt \clshdrawnil \clwWidth49061\clftsWidth3 \clbrdrt\brdrnil \clbrdrl\brdrnil \clbrdrb\brdrnil \clbrdrr\brdrnil \clpadl200 \clpadr200 \gaph\cellx8640
\pard\intbl\itap1\pardeftab720\sl400\qr\partightenfactor0
\cf2 \cell 
\pard\intbl\itap1\pardeftab720\sl400\partightenfactor0
\cf2           <mxGeometry relative="1" as="geometry" />\cell \row

\itap1\trowd \taflags1 \trgaph108\trleft-108 \trcbpat3 \trbrdrl\brdrnil \trbrdrr\brdrnil 
\clvertalt \clshdrawnil \clwWidth37045\clftsWidth3 \clminw1000 \clbrdrt\brdrnil \clbrdrl\brdrnil \clbrdrb\brdrnil \clbrdrr\brdrnil \clpadl200 \clpadr200 \gaph\cellx4320
\clvertalt \clshdrawnil \clwWidth49061\clftsWidth3 \clbrdrt\brdrnil \clbrdrl\brdrnil \clbrdrb\brdrnil \clbrdrr\brdrnil \clpadl200 \clpadr200 \gaph\cellx8640
\pard\intbl\itap1\pardeftab720\sl400\qr\partightenfactor0
\cf2 \cell 
\pard\intbl\itap1\pardeftab720\sl400\partightenfactor0
\cf2         </mxCell>\cell \row

\itap1\trowd \taflags1 \trgaph108\trleft-108 \trcbpat3 \trbrdrl\brdrnil \trbrdrr\brdrnil 
\clvertalt \clshdrawnil \clwWidth37045\clftsWidth3 \clminw1000 \clbrdrt\brdrnil \clbrdrl\brdrnil \clbrdrb\brdrnil \clbrdrr\brdrnil \clpadl200 \clpadr200 \gaph\cellx4320
\clvertalt \clshdrawnil \clwWidth49061\clftsWidth3 \clbrdrt\brdrnil \clbrdrl\brdrnil \clbrdrb\brdrnil \clbrdrr\brdrnil \clpadl200 \clpadr200 \gaph\cellx8640
\pard\intbl\itap1\pardeftab720\sl400\qr\partightenfactor0
\cf2 \cell 
\pard\intbl\itap1\pardeftab720\sl400\partightenfactor0
\cf2         <mxCell id="sPDVBLaamCeaX5s3TwPM-2" value="5 x 1 Conv (32)" style="whiteSpace=wrap;html=1;fillColor=#fff2cc;strokeColor=#d6b656;fontSize=20;" parent="WIyWlLk6GJQsqaUBKTNV-1" vertex="1">\cell \row

\itap1\trowd \taflags1 \trgaph108\trleft-108 \trcbpat3 \trbrdrl\brdrnil \trbrdrr\brdrnil 
\clvertalt \clshdrawnil \clwWidth37045\clftsWidth3 \clminw1000 \clbrdrt\brdrnil \clbrdrl\brdrnil \clbrdrb\brdrnil \clbrdrr\brdrnil \clpadl200 \clpadr200 \gaph\cellx4320
\clvertalt \clshdrawnil \clwWidth49061\clftsWidth3 \clbrdrt\brdrnil \clbrdrl\brdrnil \clbrdrb\brdrnil \clbrdrr\brdrnil \clpadl200 \clpadr200 \gaph\cellx8640
\pard\intbl\itap1\pardeftab720\sl400\qr\partightenfactor0
\cf2 \cell 
\pard\intbl\itap1\pardeftab720\sl400\partightenfactor0
\cf2           <mxGeometry x="345" y="665" width="140" height="30" as="geometry" />\cell \row

\itap1\trowd \taflags1 \trgaph108\trleft-108 \trcbpat3 \trbrdrl\brdrnil \trbrdrr\brdrnil 
\clvertalt \clshdrawnil \clwWidth37045\clftsWidth3 \clminw1000 \clbrdrt\brdrnil \clbrdrl\brdrnil \clbrdrb\brdrnil \clbrdrr\brdrnil \clpadl200 \clpadr200 \gaph\cellx4320
\clvertalt \clshdrawnil \clwWidth49061\clftsWidth3 \clbrdrt\brdrnil \clbrdrl\brdrnil \clbrdrb\brdrnil \clbrdrr\brdrnil \clpadl200 \clpadr200 \gaph\cellx8640
\pard\intbl\itap1\pardeftab720\sl400\qr\partightenfactor0
\cf2 \cell 
\pard\intbl\itap1\pardeftab720\sl400\partightenfactor0
\cf2         </mxCell>\cell \row

\itap1\trowd \taflags1 \trgaph108\trleft-108 \trcbpat3 \trbrdrl\brdrnil \trbrdrr\brdrnil 
\clvertalt \clshdrawnil \clwWidth37045\clftsWidth3 \clminw1000 \clbrdrt\brdrnil \clbrdrl\brdrnil \clbrdrb\brdrnil \clbrdrr\brdrnil \clpadl200 \clpadr200 \gaph\cellx4320
\clvertalt \clshdrawnil \clwWidth49061\clftsWidth3 \clbrdrt\brdrnil \clbrdrl\brdrnil \clbrdrb\brdrnil \clbrdrr\brdrnil \clpadl200 \clpadr200 \gaph\cellx8640
\pard\intbl\itap1\pardeftab720\sl400\qr\partightenfactor0
\cf2 \cell 
\pard\intbl\itap1\pardeftab720\sl400\partightenfactor0
\cf2         <mxCell id="sPDVBLaamCeaX5s3TwPM-9" value="" style="edgeStyle=orthogonalEdgeStyle;rounded=0;orthogonalLoop=1;jettySize=auto;html=1;fontSize=20;" parent="WIyWlLk6GJQsqaUBKTNV-1" source="sPDVBLaamCeaX5s3TwPM-4" target="sPDVBLaamCeaX5s3TwPM-8" edge="1">\cell \row

\itap1\trowd \taflags1 \trgaph108\trleft-108 \trcbpat3 \trbrdrl\brdrnil \trbrdrr\brdrnil 
\clvertalt \clshdrawnil \clwWidth37045\clftsWidth3 \clminw1000 \clbrdrt\brdrnil \clbrdrl\brdrnil \clbrdrb\brdrnil \clbrdrr\brdrnil \clpadl200 \clpadr200 \gaph\cellx4320
\clvertalt \clshdrawnil \clwWidth49061\clftsWidth3 \clbrdrt\brdrnil \clbrdrl\brdrnil \clbrdrb\brdrnil \clbrdrr\brdrnil \clpadl200 \clpadr200 \gaph\cellx8640
\pard\intbl\itap1\pardeftab720\sl400\qr\partightenfactor0
\cf2 \cell 
\pard\intbl\itap1\pardeftab720\sl400\partightenfactor0
\cf2           <mxGeometry relative="1" as="geometry" />\cell \row

\itap1\trowd \taflags1 \trgaph108\trleft-108 \trcbpat3 \trbrdrl\brdrnil \trbrdrr\brdrnil 
\clvertalt \clshdrawnil \clwWidth37045\clftsWidth3 \clminw1000 \clbrdrt\brdrnil \clbrdrl\brdrnil \clbrdrb\brdrnil \clbrdrr\brdrnil \clpadl200 \clpadr200 \gaph\cellx4320
\clvertalt \clshdrawnil \clwWidth49061\clftsWidth3 \clbrdrt\brdrnil \clbrdrl\brdrnil \clbrdrb\brdrnil \clbrdrr\brdrnil \clpadl200 \clpadr200 \gaph\cellx8640
\pard\intbl\itap1\pardeftab720\sl400\qr\partightenfactor0
\cf2 \cell 
\pard\intbl\itap1\pardeftab720\sl400\partightenfactor0
\cf2         </mxCell>\cell \row

\itap1\trowd \taflags1 \trgaph108\trleft-108 \trcbpat3 \trbrdrl\brdrnil \trbrdrr\brdrnil 
\clvertalt \clshdrawnil \clwWidth37045\clftsWidth3 \clminw1000 \clbrdrt\brdrnil \clbrdrl\brdrnil \clbrdrb\brdrnil \clbrdrr\brdrnil \clpadl200 \clpadr200 \gaph\cellx4320
\clvertalt \clshdrawnil \clwWidth49061\clftsWidth3 \clbrdrt\brdrnil \clbrdrl\brdrnil \clbrdrb\brdrnil \clbrdrr\brdrnil \clpadl200 \clpadr200 \gaph\cellx8640
\pard\intbl\itap1\pardeftab720\sl400\qr\partightenfactor0
\cf2 \cell 
\pard\intbl\itap1\pardeftab720\sl400\partightenfactor0
\cf2         <mxCell id="sPDVBLaamCeaX5s3TwPM-10" value="" style="edgeStyle=orthogonalEdgeStyle;rounded=0;orthogonalLoop=1;jettySize=auto;html=1;fontSize=20;" parent="WIyWlLk6GJQsqaUBKTNV-1" source="sPDVBLaamCeaX5s3TwPM-4" target="sPDVBLaamCeaX5s3TwPM-8" edge="1">\cell \row

\itap1\trowd \taflags1 \trgaph108\trleft-108 \trcbpat3 \trbrdrl\brdrnil \trbrdrr\brdrnil 
\clvertalt \clshdrawnil \clwWidth37045\clftsWidth3 \clminw1000 \clbrdrt\brdrnil \clbrdrl\brdrnil \clbrdrb\brdrnil \clbrdrr\brdrnil \clpadl200 \clpadr200 \gaph\cellx4320
\clvertalt \clshdrawnil \clwWidth49061\clftsWidth3 \clbrdrt\brdrnil \clbrdrl\brdrnil \clbrdrb\brdrnil \clbrdrr\brdrnil \clpadl200 \clpadr200 \gaph\cellx8640
\pard\intbl\itap1\pardeftab720\sl400\qr\partightenfactor0
\cf2 \cell 
\pard\intbl\itap1\pardeftab720\sl400\partightenfactor0
\cf2           <mxGeometry relative="1" as="geometry" />\cell \row

\itap1\trowd \taflags1 \trgaph108\trleft-108 \trcbpat3 \trbrdrl\brdrnil \trbrdrr\brdrnil 
\clvertalt \clshdrawnil \clwWidth37045\clftsWidth3 \clminw1000 \clbrdrt\brdrnil \clbrdrl\brdrnil \clbrdrb\brdrnil \clbrdrr\brdrnil \clpadl200 \clpadr200 \gaph\cellx4320
\clvertalt \clshdrawnil \clwWidth49061\clftsWidth3 \clbrdrt\brdrnil \clbrdrl\brdrnil \clbrdrb\brdrnil \clbrdrr\brdrnil \clpadl200 \clpadr200 \gaph\cellx8640
\pard\intbl\itap1\pardeftab720\sl400\qr\partightenfactor0
\cf2 \cell 
\pard\intbl\itap1\pardeftab720\sl400\partightenfactor0
\cf2         </mxCell>\cell \row

\itap1\trowd \taflags1 \trgaph108\trleft-108 \trcbpat3 \trbrdrl\brdrnil \trbrdrr\brdrnil 
\clvertalt \clshdrawnil \clwWidth37045\clftsWidth3 \clminw1000 \clbrdrt\brdrnil \clbrdrl\brdrnil \clbrdrb\brdrnil \clbrdrr\brdrnil \clpadl200 \clpadr200 \gaph\cellx4320
\clvertalt \clshdrawnil \clwWidth49061\clftsWidth3 \clbrdrt\brdrnil \clbrdrl\brdrnil \clbrdrb\brdrnil \clbrdrr\brdrnil \clpadl200 \clpadr200 \gaph\cellx8640
\pard\intbl\itap1\pardeftab720\sl400\qr\partightenfactor0
\cf2 \cell 
\pard\intbl\itap1\pardeftab720\sl400\partightenfactor0
\cf2         <mxCell id="sPDVBLaamCeaX5s3TwPM-82" style="edgeStyle=orthogonalEdgeStyle;rounded=0;orthogonalLoop=1;jettySize=auto;html=1;entryX=0;entryY=0.5;entryDx=0;entryDy=0;fontSize=20;" parent="WIyWlLk6GJQsqaUBKTNV-1" source="sPDVBLaamCeaX5s3TwPM-4" target="sPDVBLaamCeaX5s3TwPM-75" edge="1">\cell \row

\itap1\trowd \taflags1 \trgaph108\trleft-108 \trcbpat3 \trbrdrl\brdrnil \trbrdrr\brdrnil 
\clvertalt \clshdrawnil \clwWidth37045\clftsWidth3 \clminw1000 \clbrdrt\brdrnil \clbrdrl\brdrnil \clbrdrb\brdrnil \clbrdrr\brdrnil \clpadl200 \clpadr200 \gaph\cellx4320
\clvertalt \clshdrawnil \clwWidth49061\clftsWidth3 \clbrdrt\brdrnil \clbrdrl\brdrnil \clbrdrb\brdrnil \clbrdrr\brdrnil \clpadl200 \clpadr200 \gaph\cellx8640
\pard\intbl\itap1\pardeftab720\sl400\qr\partightenfactor0
\cf2 \cell 
\pard\intbl\itap1\pardeftab720\sl400\partightenfactor0
\cf2           <mxGeometry relative="1" as="geometry" />\cell \row

\itap1\trowd \taflags1 \trgaph108\trleft-108 \trcbpat3 \trbrdrl\brdrnil \trbrdrr\brdrnil 
\clvertalt \clshdrawnil \clwWidth37045\clftsWidth3 \clminw1000 \clbrdrt\brdrnil \clbrdrl\brdrnil \clbrdrb\brdrnil \clbrdrr\brdrnil \clpadl200 \clpadr200 \gaph\cellx4320
\clvertalt \clshdrawnil \clwWidth49061\clftsWidth3 \clbrdrt\brdrnil \clbrdrl\brdrnil \clbrdrb\brdrnil \clbrdrr\brdrnil \clpadl200 \clpadr200 \gaph\cellx8640
\pard\intbl\itap1\pardeftab720\sl400\qr\partightenfactor0
\cf2 \cell 
\pard\intbl\itap1\pardeftab720\sl400\partightenfactor0
\cf2         </mxCell>\cell \row

\itap1\trowd \taflags1 \trgaph108\trleft-108 \trcbpat3 \trbrdrl\brdrnil \trbrdrr\brdrnil 
\clvertalt \clshdrawnil \clwWidth37045\clftsWidth3 \clminw1000 \clbrdrt\brdrnil \clbrdrl\brdrnil \clbrdrb\brdrnil \clbrdrr\brdrnil \clpadl200 \clpadr200 \gaph\cellx4320
\clvertalt \clshdrawnil \clwWidth49061\clftsWidth3 \clbrdrt\brdrnil \clbrdrl\brdrnil \clbrdrb\brdrnil \clbrdrr\brdrnil \clpadl200 \clpadr200 \gaph\cellx8640
\pard\intbl\itap1\pardeftab720\sl400\qr\partightenfactor0
\cf2 \cell 
\pard\intbl\itap1\pardeftab720\sl400\partightenfactor0
\cf2         <mxCell id="sPDVBLaamCeaX5s3TwPM-4" value="DBlock (128, /2)" style="rounded=1;whiteSpace=wrap;html=1;fillColor=#dae8fc;strokeColor=#6c8ebf;fontSize=20;" parent="WIyWlLk6GJQsqaUBKTNV-1" vertex="1">\cell \row

\itap1\trowd \taflags1 \trgaph108\trleft-108 \trcbpat3 \trbrdrl\brdrnil \trbrdrr\brdrnil 
\clvertalt \clshdrawnil \clwWidth37045\clftsWidth3 \clminw1000 \clbrdrt\brdrnil \clbrdrl\brdrnil \clbrdrb\brdrnil \clbrdrr\brdrnil \clpadl200 \clpadr200 \gaph\cellx4320
\clvertalt \clshdrawnil \clwWidth49061\clftsWidth3 \clbrdrt\brdrnil \clbrdrl\brdrnil \clbrdrb\brdrnil \clbrdrr\brdrnil \clpadl200 \clpadr200 \gaph\cellx8640
\pard\intbl\itap1\pardeftab720\sl400\qr\partightenfactor0
\cf2 \cell 
\pard\intbl\itap1\pardeftab720\sl400\partightenfactor0
\cf2           <mxGeometry x="340" y="735" width="150" height="30" as="geometry" />\cell \row

\itap1\trowd \taflags1 \trgaph108\trleft-108 \trcbpat3 \trbrdrl\brdrnil \trbrdrr\brdrnil 
\clvertalt \clshdrawnil \clwWidth37045\clftsWidth3 \clminw1000 \clbrdrt\brdrnil \clbrdrl\brdrnil \clbrdrb\brdrnil \clbrdrr\brdrnil \clpadl200 \clpadr200 \gaph\cellx4320
\clvertalt \clshdrawnil \clwWidth49061\clftsWidth3 \clbrdrt\brdrnil \clbrdrl\brdrnil \clbrdrb\brdrnil \clbrdrr\brdrnil \clpadl200 \clpadr200 \gaph\cellx8640
\pard\intbl\itap1\pardeftab720\sl400\qr\partightenfactor0
\cf2 \cell 
\pard\intbl\itap1\pardeftab720\sl400\partightenfactor0
\cf2         </mxCell>\cell \row

\itap1\trowd \taflags1 \trgaph108\trleft-108 \trcbpat3 \trbrdrl\brdrnil \trbrdrr\brdrnil 
\clvertalt \clshdrawnil \clwWidth37045\clftsWidth3 \clminw1000 \clbrdrt\brdrnil \clbrdrl\brdrnil \clbrdrb\brdrnil \clbrdrr\brdrnil \clpadl200 \clpadr200 \gaph\cellx4320
\clvertalt \clshdrawnil \clwWidth49061\clftsWidth3 \clbrdrt\brdrnil \clbrdrl\brdrnil \clbrdrb\brdrnil \clbrdrr\brdrnil \clpadl200 \clpadr200 \gaph\cellx8640
\pard\intbl\itap1\pardeftab720\sl400\qr\partightenfactor0
\cf2 \cell 
\pard\intbl\itap1\pardeftab720\sl400\partightenfactor0
\cf2         <mxCell id="sPDVBLaamCeaX5s3TwPM-80" style="edgeStyle=orthogonalEdgeStyle;rounded=0;orthogonalLoop=1;jettySize=auto;html=1;entryX=0;entryY=0.5;entryDx=0;entryDy=0;fontSize=20;" parent="WIyWlLk6GJQsqaUBKTNV-1" source="sPDVBLaamCeaX5s3TwPM-8" target="sPDVBLaamCeaX5s3TwPM-74" edge="1">\cell \row

\itap1\trowd \taflags1 \trgaph108\trleft-108 \trcbpat3 \trbrdrl\brdrnil \trbrdrr\brdrnil 
\clvertalt \clshdrawnil \clwWidth37045\clftsWidth3 \clminw1000 \clbrdrt\brdrnil \clbrdrl\brdrnil \clbrdrb\brdrnil \clbrdrr\brdrnil \clpadl200 \clpadr200 \gaph\cellx4320
\clvertalt \clshdrawnil \clwWidth49061\clftsWidth3 \clbrdrt\brdrnil \clbrdrl\brdrnil \clbrdrb\brdrnil \clbrdrr\brdrnil \clpadl200 \clpadr200 \gaph\cellx8640
\pard\intbl\itap1\pardeftab720\sl400\qr\partightenfactor0
\cf2 \cell 
\pard\intbl\itap1\pardeftab720\sl400\partightenfactor0
\cf2           <mxGeometry relative="1" as="geometry" />\cell \row

\itap1\trowd \taflags1 \trgaph108\trleft-108 \trcbpat3 \trbrdrl\brdrnil \trbrdrr\brdrnil 
\clvertalt \clshdrawnil \clwWidth37045\clftsWidth3 \clminw1000 \clbrdrt\brdrnil \clbrdrl\brdrnil \clbrdrb\brdrnil \clbrdrr\brdrnil \clpadl200 \clpadr200 \gaph\cellx4320
\clvertalt \clshdrawnil \clwWidth49061\clftsWidth3 \clbrdrt\brdrnil \clbrdrl\brdrnil \clbrdrb\brdrnil \clbrdrr\brdrnil \clpadl200 \clpadr200 \gaph\cellx8640
\pard\intbl\itap1\pardeftab720\sl400\qr\partightenfactor0
\cf2 \cell 
\pard\intbl\itap1\pardeftab720\sl400\partightenfactor0
\cf2         </mxCell>\cell \row

\itap1\trowd \taflags1 \trgaph108\trleft-108 \trcbpat3 \trbrdrl\brdrnil \trbrdrr\brdrnil 
\clvertalt \clshdrawnil \clwWidth37045\clftsWidth3 \clminw1000 \clbrdrt\brdrnil \clbrdrl\brdrnil \clbrdrb\brdrnil \clbrdrr\brdrnil \clpadl200 \clpadr200 \gaph\cellx4320
\clvertalt \clshdrawnil \clwWidth49061\clftsWidth3 \clbrdrt\brdrnil \clbrdrl\brdrnil \clbrdrb\brdrnil \clbrdrr\brdrnil \clpadl200 \clpadr200 \gaph\cellx8640
\pard\intbl\itap1\pardeftab720\sl400\qr\partightenfactor0
\cf2 \cell 
\pard\intbl\itap1\pardeftab720\sl400\partightenfactor0
\cf2         <mxCell id="sPDVBLaamCeaX5s3TwPM-8" value="DBlock (128, /2)" style="rounded=1;whiteSpace=wrap;html=1;fillColor=#dae8fc;strokeColor=#6c8ebf;fontSize=20;" parent="WIyWlLk6GJQsqaUBKTNV-1" vertex="1">\cell \row

\itap1\trowd \taflags1 \trgaph108\trleft-108 \trcbpat3 \trbrdrl\brdrnil \trbrdrr\brdrnil 
\clvertalt \clshdrawnil \clwWidth37045\clftsWidth3 \clminw1000 \clbrdrt\brdrnil \clbrdrl\brdrnil \clbrdrb\brdrnil \clbrdrr\brdrnil \clpadl200 \clpadr200 \gaph\cellx4320
\clvertalt \clshdrawnil \clwWidth49061\clftsWidth3 \clbrdrt\brdrnil \clbrdrl\brdrnil \clbrdrb\brdrnil \clbrdrr\brdrnil \clpadl200 \clpadr200 \gaph\cellx8640
\pard\intbl\itap1\pardeftab720\sl400\qr\partightenfactor0
\cf2 \cell 
\pard\intbl\itap1\pardeftab720\sl400\partightenfactor0
\cf2           <mxGeometry x="340" y="810" width="150" height="30" as="geometry" />\cell \row

\itap1\trowd \taflags1 \trgaph108\trleft-108 \trcbpat3 \trbrdrl\brdrnil \trbrdrr\brdrnil 
\clvertalt \clshdrawnil \clwWidth37045\clftsWidth3 \clminw1000 \clbrdrt\brdrnil \clbrdrl\brdrnil \clbrdrb\brdrnil \clbrdrr\brdrnil \clpadl200 \clpadr200 \gaph\cellx4320
\clvertalt \clshdrawnil \clwWidth49061\clftsWidth3 \clbrdrt\brdrnil \clbrdrl\brdrnil \clbrdrb\brdrnil \clbrdrr\brdrnil \clpadl200 \clpadr200 \gaph\cellx8640
\pard\intbl\itap1\pardeftab720\sl400\qr\partightenfactor0
\cf2 \cell 
\pard\intbl\itap1\pardeftab720\sl400\partightenfactor0
\cf2         </mxCell>\cell \row

\itap1\trowd \taflags1 \trgaph108\trleft-108 \trcbpat3 \trbrdrl\brdrnil \trbrdrr\brdrnil 
\clvertalt \clshdrawnil \clwWidth37045\clftsWidth3 \clminw1000 \clbrdrt\brdrnil \clbrdrl\brdrnil \clbrdrb\brdrnil \clbrdrr\brdrnil \clpadl200 \clpadr200 \gaph\cellx4320
\clvertalt \clshdrawnil \clwWidth49061\clftsWidth3 \clbrdrt\brdrnil \clbrdrl\brdrnil \clbrdrb\brdrnil \clbrdrr\brdrnil \clpadl200 \clpadr200 \gaph\cellx8640
\pard\intbl\itap1\pardeftab720\sl400\qr\partightenfactor0
\cf2 \cell 
\pard\intbl\itap1\pardeftab720\sl400\partightenfactor0
\cf2         <mxCell id="sPDVBLaamCeaX5s3TwPM-11" value="" style="edgeStyle=orthogonalEdgeStyle;rounded=0;orthogonalLoop=1;jettySize=auto;html=1;exitX=0.5;exitY=1;exitDx=0;exitDy=0;fontSize=20;" parent="WIyWlLk6GJQsqaUBKTNV-1" source="sPDVBLaamCeaX5s3TwPM-8" target="sPDVBLaamCeaX5s3TwPM-12" edge="1">\cell \row

\itap1\trowd \taflags1 \trgaph108\trleft-108 \trcbpat3 \trbrdrl\brdrnil \trbrdrr\brdrnil 
\clvertalt \clshdrawnil \clwWidth37045\clftsWidth3 \clminw1000 \clbrdrt\brdrnil \clbrdrl\brdrnil \clbrdrb\brdrnil \clbrdrr\brdrnil \clpadl200 \clpadr200 \gaph\cellx4320
\clvertalt \clshdrawnil \clwWidth49061\clftsWidth3 \clbrdrt\brdrnil \clbrdrl\brdrnil \clbrdrb\brdrnil \clbrdrr\brdrnil \clpadl200 \clpadr200 \gaph\cellx8640
\pard\intbl\itap1\pardeftab720\sl400\qr\partightenfactor0
\cf2 \cell 
\pard\intbl\itap1\pardeftab720\sl400\partightenfactor0
\cf2           <mxGeometry relative="1" as="geometry">\cell \row

\itap1\trowd \taflags1 \trgaph108\trleft-108 \trcbpat3 \trbrdrl\brdrnil \trbrdrr\brdrnil 
\clvertalt \clshdrawnil \clwWidth37045\clftsWidth3 \clminw1000 \clbrdrt\brdrnil \clbrdrl\brdrnil \clbrdrb\brdrnil \clbrdrr\brdrnil \clpadl200 \clpadr200 \gaph\cellx4320
\clvertalt \clshdrawnil \clwWidth49061\clftsWidth3 \clbrdrt\brdrnil \clbrdrl\brdrnil \clbrdrb\brdrnil \clbrdrr\brdrnil \clpadl200 \clpadr200 \gaph\cellx8640
\pard\intbl\itap1\pardeftab720\sl400\qr\partightenfactor0
\cf2 \cell 
\pard\intbl\itap1\pardeftab720\sl400\partightenfactor0
\cf2             <mxPoint x="400" y="875" as="sourcePoint" />\cell \row

\itap1\trowd \taflags1 \trgaph108\trleft-108 \trcbpat3 \trbrdrl\brdrnil \trbrdrr\brdrnil 
\clvertalt \clshdrawnil \clwWidth37045\clftsWidth3 \clminw1000 \clbrdrt\brdrnil \clbrdrl\brdrnil \clbrdrb\brdrnil \clbrdrr\brdrnil \clpadl200 \clpadr200 \gaph\cellx4320
\clvertalt \clshdrawnil \clwWidth49061\clftsWidth3 \clbrdrt\brdrnil \clbrdrl\brdrnil \clbrdrb\brdrnil \clbrdrr\brdrnil \clpadl200 \clpadr200 \gaph\cellx8640
\pard\intbl\itap1\pardeftab720\sl400\qr\partightenfactor0
\cf2 \cell 
\pard\intbl\itap1\pardeftab720\sl400\partightenfactor0
\cf2           </mxGeometry>\cell \row

\itap1\trowd \taflags1 \trgaph108\trleft-108 \trcbpat3 \trbrdrl\brdrnil \trbrdrr\brdrnil 
\clvertalt \clshdrawnil \clwWidth37045\clftsWidth3 \clminw1000 \clbrdrt\brdrnil \clbrdrl\brdrnil \clbrdrb\brdrnil \clbrdrr\brdrnil \clpadl200 \clpadr200 \gaph\cellx4320
\clvertalt \clshdrawnil \clwWidth49061\clftsWidth3 \clbrdrt\brdrnil \clbrdrl\brdrnil \clbrdrb\brdrnil \clbrdrr\brdrnil \clpadl200 \clpadr200 \gaph\cellx8640
\pard\intbl\itap1\pardeftab720\sl400\qr\partightenfactor0
\cf2 \cell 
\pard\intbl\itap1\pardeftab720\sl400\partightenfactor0
\cf2         </mxCell>\cell \row

\itap1\trowd \taflags1 \trgaph108\trleft-108 \trcbpat3 \trbrdrl\brdrnil \trbrdrr\brdrnil 
\clvertalt \clshdrawnil \clwWidth37045\clftsWidth3 \clminw1000 \clbrdrt\brdrnil \clbrdrl\brdrnil \clbrdrb\brdrnil \clbrdrr\brdrnil \clpadl200 \clpadr200 \gaph\cellx4320
\clvertalt \clshdrawnil \clwWidth49061\clftsWidth3 \clbrdrt\brdrnil \clbrdrl\brdrnil \clbrdrb\brdrnil \clbrdrr\brdrnil \clpadl200 \clpadr200 \gaph\cellx8640
\pard\intbl\itap1\pardeftab720\sl400\qr\partightenfactor0
\cf2 \cell 
\pard\intbl\itap1\pardeftab720\sl400\partightenfactor0
\cf2         <mxCell id="sPDVBLaamCeaX5s3TwPM-78" style="edgeStyle=orthogonalEdgeStyle;rounded=0;orthogonalLoop=1;jettySize=auto;html=1;entryX=0;entryY=0.5;entryDx=0;entryDy=0;fontSize=20;" parent="WIyWlLk6GJQsqaUBKTNV-1" source="sPDVBLaamCeaX5s3TwPM-12" target="sPDVBLaamCeaX5s3TwPM-73" edge="1">\cell \row

\itap1\trowd \taflags1 \trgaph108\trleft-108 \trcbpat3 \trbrdrl\brdrnil \trbrdrr\brdrnil 
\clvertalt \clshdrawnil \clwWidth37045\clftsWidth3 \clminw1000 \clbrdrt\brdrnil \clbrdrl\brdrnil \clbrdrb\brdrnil \clbrdrr\brdrnil \clpadl200 \clpadr200 \gaph\cellx4320
\clvertalt \clshdrawnil \clwWidth49061\clftsWidth3 \clbrdrt\brdrnil \clbrdrl\brdrnil \clbrdrb\brdrnil \clbrdrr\brdrnil \clpadl200 \clpadr200 \gaph\cellx8640
\pard\intbl\itap1\pardeftab720\sl400\qr\partightenfactor0
\cf2 \cell 
\pard\intbl\itap1\pardeftab720\sl400\partightenfactor0
\cf2           <mxGeometry relative="1" as="geometry" />\cell \row

\itap1\trowd \taflags1 \trgaph108\trleft-108 \trcbpat3 \trbrdrl\brdrnil \trbrdrr\brdrnil 
\clvertalt \clshdrawnil \clwWidth37045\clftsWidth3 \clminw1000 \clbrdrt\brdrnil \clbrdrl\brdrnil \clbrdrb\brdrnil \clbrdrr\brdrnil \clpadl200 \clpadr200 \gaph\cellx4320
\clvertalt \clshdrawnil \clwWidth49061\clftsWidth3 \clbrdrt\brdrnil \clbrdrl\brdrnil \clbrdrb\brdrnil \clbrdrr\brdrnil \clpadl200 \clpadr200 \gaph\cellx8640
\pard\intbl\itap1\pardeftab720\sl400\qr\partightenfactor0
\cf2 \cell 
\pard\intbl\itap1\pardeftab720\sl400\partightenfactor0
\cf2         </mxCell>\cell \row

\itap1\trowd \taflags1 \trgaph108\trleft-108 \trcbpat3 \trbrdrl\brdrnil \trbrdrr\brdrnil 
\clvertalt \clshdrawnil \clwWidth37045\clftsWidth3 \clminw1000 \clbrdrt\brdrnil \clbrdrl\brdrnil \clbrdrb\brdrnil \clbrdrr\brdrnil \clpadl200 \clpadr200 \gaph\cellx4320
\clvertalt \clshdrawnil \clwWidth49061\clftsWidth3 \clbrdrt\brdrnil \clbrdrl\brdrnil \clbrdrb\brdrnil \clbrdrr\brdrnil \clpadl200 \clpadr200 \gaph\cellx8640
\pard\intbl\itap1\pardeftab720\sl400\qr\partightenfactor0
\cf2 \cell 
\pard\intbl\itap1\pardeftab720\sl400\partightenfactor0
\cf2         <mxCell id="sPDVBLaamCeaX5s3TwPM-12" value="DBlock (256, /3)" style="rounded=1;whiteSpace=wrap;html=1;fillColor=#dae8fc;strokeColor=#6c8ebf;fontSize=20;" parent="WIyWlLk6GJQsqaUBKTNV-1" vertex="1">\cell \row

\itap1\trowd \taflags1 \trgaph108\trleft-108 \trcbpat3 \trbrdrl\brdrnil \trbrdrr\brdrnil 
\clvertalt \clshdrawnil \clwWidth37045\clftsWidth3 \clminw1000 \clbrdrt\brdrnil \clbrdrl\brdrnil \clbrdrb\brdrnil \clbrdrr\brdrnil \clpadl200 \clpadr200 \gaph\cellx4320
\clvertalt \clshdrawnil \clwWidth49061\clftsWidth3 \clbrdrt\brdrnil \clbrdrl\brdrnil \clbrdrb\brdrnil \clbrdrr\brdrnil \clpadl200 \clpadr200 \gaph\cellx8640
\pard\intbl\itap1\pardeftab720\sl400\qr\partightenfactor0
\cf2 \cell 
\pard\intbl\itap1\pardeftab720\sl400\partightenfactor0
\cf2           <mxGeometry x="340" y="885" width="150" height="30" as="geometry" />\cell \row

\itap1\trowd \taflags1 \trgaph108\trleft-108 \trcbpat3 \trbrdrl\brdrnil \trbrdrr\brdrnil 
\clvertalt \clshdrawnil \clwWidth37045\clftsWidth3 \clminw1000 \clbrdrt\brdrnil \clbrdrl\brdrnil \clbrdrb\brdrnil \clbrdrr\brdrnil \clpadl200 \clpadr200 \gaph\cellx4320
\clvertalt \clshdrawnil \clwWidth49061\clftsWidth3 \clbrdrt\brdrnil \clbrdrl\brdrnil \clbrdrb\brdrnil \clbrdrr\brdrnil \clpadl200 \clpadr200 \gaph\cellx8640
\pard\intbl\itap1\pardeftab720\sl400\qr\partightenfactor0
\cf2 \cell 
\pard\intbl\itap1\pardeftab720\sl400\partightenfactor0
\cf2         </mxCell>\cell \row

\itap1\trowd \taflags1 \trgaph108\trleft-108 \trcbpat3 \trbrdrl\brdrnil \trbrdrr\brdrnil 
\clvertalt \clshdrawnil \clwWidth37045\clftsWidth3 \clminw1000 \clbrdrt\brdrnil \clbrdrl\brdrnil \clbrdrb\brdrnil \clbrdrr\brdrnil \clpadl200 \clpadr200 \gaph\cellx4320
\clvertalt \clshdrawnil \clwWidth49061\clftsWidth3 \clbrdrt\brdrnil \clbrdrl\brdrnil \clbrdrb\brdrnil \clbrdrr\brdrnil \clpadl200 \clpadr200 \gaph\cellx8640
\pard\intbl\itap1\pardeftab720\sl400\qr\partightenfactor0
\cf2 \cell 
\pard\intbl\itap1\pardeftab720\sl400\partightenfactor0
\cf2         <mxCell id="sPDVBLaamCeaX5s3TwPM-13" value="" style="edgeStyle=orthogonalEdgeStyle;rounded=0;orthogonalLoop=1;jettySize=auto;html=1;fontSize=20;" parent="WIyWlLk6GJQsqaUBKTNV-1" source="sPDVBLaamCeaX5s3TwPM-12" target="sPDVBLaamCeaX5s3TwPM-14" edge="1">\cell \row

\itap1\trowd \taflags1 \trgaph108\trleft-108 \trcbpat3 \trbrdrl\brdrnil \trbrdrr\brdrnil 
\clvertalt \clshdrawnil \clwWidth37045\clftsWidth3 \clminw1000 \clbrdrt\brdrnil \clbrdrl\brdrnil \clbrdrb\brdrnil \clbrdrr\brdrnil \clpadl200 \clpadr200 \gaph\cellx4320
\clvertalt \clshdrawnil \clwWidth49061\clftsWidth3 \clbrdrt\brdrnil \clbrdrl\brdrnil \clbrdrb\brdrnil \clbrdrr\brdrnil \clpadl200 \clpadr200 \gaph\cellx8640
\pard\intbl\itap1\pardeftab720\sl400\qr\partightenfactor0
\cf2 \cell 
\pard\intbl\itap1\pardeftab720\sl400\partightenfactor0
\cf2           <mxGeometry relative="1" as="geometry">\cell \row

\itap1\trowd \taflags1 \trgaph108\trleft-108 \trcbpat3 \trbrdrl\brdrnil \trbrdrr\brdrnil 
\clvertalt \clshdrawnil \clwWidth37045\clftsWidth3 \clminw1000 \clbrdrt\brdrnil \clbrdrl\brdrnil \clbrdrb\brdrnil \clbrdrr\brdrnil \clpadl200 \clpadr200 \gaph\cellx4320
\clvertalt \clshdrawnil \clwWidth49061\clftsWidth3 \clbrdrt\brdrnil \clbrdrl\brdrnil \clbrdrb\brdrnil \clbrdrr\brdrnil \clpadl200 \clpadr200 \gaph\cellx8640
\pard\intbl\itap1\pardeftab720\sl400\qr\partightenfactor0
\cf2 \cell 
\pard\intbl\itap1\pardeftab720\sl400\partightenfactor0
\cf2             <mxPoint x="400" y="955" as="sourcePoint" />\cell \row

\itap1\trowd \taflags1 \trgaph108\trleft-108 \trcbpat3 \trbrdrl\brdrnil \trbrdrr\brdrnil 
\clvertalt \clshdrawnil \clwWidth37045\clftsWidth3 \clminw1000 \clbrdrt\brdrnil \clbrdrl\brdrnil \clbrdrb\brdrnil \clbrdrr\brdrnil \clpadl200 \clpadr200 \gaph\cellx4320
\clvertalt \clshdrawnil \clwWidth49061\clftsWidth3 \clbrdrt\brdrnil \clbrdrl\brdrnil \clbrdrb\brdrnil \clbrdrr\brdrnil \clpadl200 \clpadr200 \gaph\cellx8640
\pard\intbl\itap1\pardeftab720\sl400\qr\partightenfactor0
\cf2 \cell 
\pard\intbl\itap1\pardeftab720\sl400\partightenfactor0
\cf2             <Array as="points" />\cell \row

\itap1\trowd \taflags1 \trgaph108\trleft-108 \trcbpat3 \trbrdrl\brdrnil \trbrdrr\brdrnil 
\clvertalt \clshdrawnil \clwWidth37045\clftsWidth3 \clminw1000 \clbrdrt\brdrnil \clbrdrl\brdrnil \clbrdrb\brdrnil \clbrdrr\brdrnil \clpadl200 \clpadr200 \gaph\cellx4320
\clvertalt \clshdrawnil \clwWidth49061\clftsWidth3 \clbrdrt\brdrnil \clbrdrl\brdrnil \clbrdrb\brdrnil \clbrdrr\brdrnil \clpadl200 \clpadr200 \gaph\cellx8640
\pard\intbl\itap1\pardeftab720\sl400\qr\partightenfactor0
\cf2 \cell 
\pard\intbl\itap1\pardeftab720\sl400\partightenfactor0
\cf2           </mxGeometry>\cell \row

\itap1\trowd \taflags1 \trgaph108\trleft-108 \trcbpat3 \trbrdrl\brdrnil \trbrdrr\brdrnil 
\clvertalt \clshdrawnil \clwWidth37045\clftsWidth3 \clminw1000 \clbrdrt\brdrnil \clbrdrl\brdrnil \clbrdrb\brdrnil \clbrdrr\brdrnil \clpadl200 \clpadr200 \gaph\cellx4320
\clvertalt \clshdrawnil \clwWidth49061\clftsWidth3 \clbrdrt\brdrnil \clbrdrl\brdrnil \clbrdrb\brdrnil \clbrdrr\brdrnil \clpadl200 \clpadr200 \gaph\cellx8640
\pard\intbl\itap1\pardeftab720\sl400\qr\partightenfactor0
\cf2 \cell 
\pard\intbl\itap1\pardeftab720\sl400\partightenfactor0
\cf2         </mxCell>\cell \row

\itap1\trowd \taflags1 \trgaph108\trleft-108 \trcbpat3 \trbrdrl\brdrnil \trbrdrr\brdrnil 
\clvertalt \clshdrawnil \clwWidth37045\clftsWidth3 \clminw1000 \clbrdrt\brdrnil \clbrdrl\brdrnil \clbrdrb\brdrnil \clbrdrr\brdrnil \clpadl200 \clpadr200 \gaph\cellx4320
\clvertalt \clshdrawnil \clwWidth49061\clftsWidth3 \clbrdrt\brdrnil \clbrdrl\brdrnil \clbrdrb\brdrnil \clbrdrr\brdrnil \clpadl200 \clpadr200 \gaph\cellx8640
\pard\intbl\itap1\pardeftab720\sl400\qr\partightenfactor0
\cf2 \cell 
\pard\intbl\itap1\pardeftab720\sl400\partightenfactor0
\cf2         <mxCell id="sPDVBLaamCeaX5s3TwPM-17" value="" style="edgeStyle=orthogonalEdgeStyle;rounded=0;orthogonalLoop=1;jettySize=auto;html=1;fontSize=20;" parent="WIyWlLk6GJQsqaUBKTNV-1" source="sPDVBLaamCeaX5s3TwPM-14" target="sPDVBLaamCeaX5s3TwPM-16" edge="1">\cell \row

\itap1\trowd \taflags1 \trgaph108\trleft-108 \trcbpat3 \trbrdrl\brdrnil \trbrdrr\brdrnil 
\clvertalt \clshdrawnil \clwWidth37045\clftsWidth3 \clminw1000 \clbrdrt\brdrnil \clbrdrl\brdrnil \clbrdrb\brdrnil \clbrdrr\brdrnil \clpadl200 \clpadr200 \gaph\cellx4320
\clvertalt \clshdrawnil \clwWidth49061\clftsWidth3 \clbrdrt\brdrnil \clbrdrl\brdrnil \clbrdrb\brdrnil \clbrdrr\brdrnil \clpadl200 \clpadr200 \gaph\cellx8640
\pard\intbl\itap1\pardeftab720\sl400\qr\partightenfactor0
\cf2 \cell 
\pard\intbl\itap1\pardeftab720\sl400\partightenfactor0
\cf2           <mxGeometry relative="1" as="geometry" />\cell \row

\itap1\trowd \taflags1 \trgaph108\trleft-108 \trcbpat3 \trbrdrl\brdrnil \trbrdrr\brdrnil 
\clvertalt \clshdrawnil \clwWidth37045\clftsWidth3 \clminw1000 \clbrdrt\brdrnil \clbrdrl\brdrnil \clbrdrb\brdrnil \clbrdrr\brdrnil \clpadl200 \clpadr200 \gaph\cellx4320
\clvertalt \clshdrawnil \clwWidth49061\clftsWidth3 \clbrdrt\brdrnil \clbrdrl\brdrnil \clbrdrb\brdrnil \clbrdrr\brdrnil \clpadl200 \clpadr200 \gaph\cellx8640
\pard\intbl\itap1\pardeftab720\sl400\qr\partightenfactor0
\cf2 \cell 
\pard\intbl\itap1\pardeftab720\sl400\partightenfactor0
\cf2         </mxCell>\cell \row

\itap1\trowd \taflags1 \trgaph108\trleft-108 \trcbpat3 \trbrdrl\brdrnil \trbrdrr\brdrnil 
\clvertalt \clshdrawnil \clwWidth37045\clftsWidth3 \clminw1000 \clbrdrt\brdrnil \clbrdrl\brdrnil \clbrdrb\brdrnil \clbrdrr\brdrnil \clpadl200 \clpadr200 \gaph\cellx4320
\clvertalt \clshdrawnil \clwWidth49061\clftsWidth3 \clbrdrt\brdrnil \clbrdrl\brdrnil \clbrdrb\brdrnil \clbrdrr\brdrnil \clpadl200 \clpadr200 \gaph\cellx8640
\pard\intbl\itap1\pardeftab720\sl400\qr\partightenfactor0
\cf2 \cell 
\pard\intbl\itap1\pardeftab720\sl400\partightenfactor0
\cf2         <mxCell id="sPDVBLaamCeaX5s3TwPM-76" style="edgeStyle=orthogonalEdgeStyle;rounded=0;orthogonalLoop=1;jettySize=auto;html=1;entryX=0;entryY=0.5;entryDx=0;entryDy=0;fontSize=20;" parent="WIyWlLk6GJQsqaUBKTNV-1" source="sPDVBLaamCeaX5s3TwPM-14" target="sPDVBLaamCeaX5s3TwPM-72" edge="1">\cell \row

\itap1\trowd \taflags1 \trgaph108\trleft-108 \trcbpat3 \trbrdrl\brdrnil \trbrdrr\brdrnil 
\clvertalt \clshdrawnil \clwWidth37045\clftsWidth3 \clminw1000 \clbrdrt\brdrnil \clbrdrl\brdrnil \clbrdrb\brdrnil \clbrdrr\brdrnil \clpadl200 \clpadr200 \gaph\cellx4320
\clvertalt \clshdrawnil \clwWidth49061\clftsWidth3 \clbrdrt\brdrnil \clbrdrl\brdrnil \clbrdrb\brdrnil \clbrdrr\brdrnil \clpadl200 \clpadr200 \gaph\cellx8640
\pard\intbl\itap1\pardeftab720\sl400\qr\partightenfactor0
\cf2 \cell 
\pard\intbl\itap1\pardeftab720\sl400\partightenfactor0
\cf2           <mxGeometry relative="1" as="geometry" />\cell \row

\itap1\trowd \taflags1 \trgaph108\trleft-108 \trcbpat3 \trbrdrl\brdrnil \trbrdrr\brdrnil 
\clvertalt \clshdrawnil \clwWidth37045\clftsWidth3 \clminw1000 \clbrdrt\brdrnil \clbrdrl\brdrnil \clbrdrb\brdrnil \clbrdrr\brdrnil \clpadl200 \clpadr200 \gaph\cellx4320
\clvertalt \clshdrawnil \clwWidth49061\clftsWidth3 \clbrdrt\brdrnil \clbrdrl\brdrnil \clbrdrb\brdrnil \clbrdrr\brdrnil \clpadl200 \clpadr200 \gaph\cellx8640
\pard\intbl\itap1\pardeftab720\sl400\qr\partightenfactor0
\cf2 \cell 
\pard\intbl\itap1\pardeftab720\sl400\partightenfactor0
\cf2         </mxCell>\cell \row

\itap1\trowd \taflags1 \trgaph108\trleft-108 \trcbpat3 \trbrdrl\brdrnil \trbrdrr\brdrnil 
\clvertalt \clshdrawnil \clwWidth37045\clftsWidth3 \clminw1000 \clbrdrt\brdrnil \clbrdrl\brdrnil \clbrdrb\brdrnil \clbrdrr\brdrnil \clpadl200 \clpadr200 \gaph\cellx4320
\clvertalt \clshdrawnil \clwWidth49061\clftsWidth3 \clbrdrt\brdrnil \clbrdrl\brdrnil \clbrdrb\brdrnil \clbrdrr\brdrnil \clpadl200 \clpadr200 \gaph\cellx8640
\pard\intbl\itap1\pardeftab720\sl400\qr\partightenfactor0
\cf2 \cell 
\pard\intbl\itap1\pardeftab720\sl400\partightenfactor0
\cf2         <mxCell id="sPDVBLaamCeaX5s3TwPM-14" value="DBlock (512, /5)" style="rounded=1;whiteSpace=wrap;html=1;fillColor=#dae8fc;strokeColor=#6c8ebf;fontSize=20;" parent="WIyWlLk6GJQsqaUBKTNV-1" vertex="1">\cell \row

\itap1\trowd \taflags1 \trgaph108\trleft-108 \trcbpat3 \trbrdrl\brdrnil \trbrdrr\brdrnil 
\clvertalt \clshdrawnil \clwWidth37045\clftsWidth3 \clminw1000 \clbrdrt\brdrnil \clbrdrl\brdrnil \clbrdrb\brdrnil \clbrdrr\brdrnil \clpadl200 \clpadr200 \gaph\cellx4320
\clvertalt \clshdrawnil \clwWidth49061\clftsWidth3 \clbrdrt\brdrnil \clbrdrl\brdrnil \clbrdrb\brdrnil \clbrdrr\brdrnil \clpadl200 \clpadr200 \gaph\cellx8640
\pard\intbl\itap1\pardeftab720\sl400\qr\partightenfactor0
\cf2 \cell 
\pard\intbl\itap1\pardeftab720\sl400\partightenfactor0
\cf2           <mxGeometry x="340" y="960" width="150" height="30" as="geometry" />\cell \row

\itap1\trowd \taflags1 \trgaph108\trleft-108 \trcbpat3 \trbrdrl\brdrnil \trbrdrr\brdrnil 
\clvertalt \clshdrawnil \clwWidth37045\clftsWidth3 \clminw1000 \clbrdrt\brdrnil \clbrdrl\brdrnil \clbrdrb\brdrnil \clbrdrr\brdrnil \clpadl200 \clpadr200 \gaph\cellx4320
\clvertalt \clshdrawnil \clwWidth49061\clftsWidth3 \clbrdrt\brdrnil \clbrdrl\brdrnil \clbrdrb\brdrnil \clbrdrr\brdrnil \clpadl200 \clpadr200 \gaph\cellx8640
\pard\intbl\itap1\pardeftab720\sl400\qr\partightenfactor0
\cf2 \cell 
\pard\intbl\itap1\pardeftab720\sl400\partightenfactor0
\cf2         </mxCell>\cell \row

\itap1\trowd \taflags1 \trgaph108\trleft-108 \trcbpat3 \trbrdrl\brdrnil \trbrdrr\brdrnil 
\clvertalt \clshdrawnil \clwWidth37045\clftsWidth3 \clminw1000 \clbrdrt\brdrnil \clbrdrl\brdrnil \clbrdrb\brdrnil \clbrdrr\brdrnil \clpadl200 \clpadr200 \gaph\cellx4320
\clvertalt \clshdrawnil \clwWidth49061\clftsWidth3 \clbrdrt\brdrnil \clbrdrl\brdrnil \clbrdrb\brdrnil \clbrdrr\brdrnil \clpadl200 \clpadr200 \gaph\cellx8640
\pard\intbl\itap1\pardeftab720\sl400\qr\partightenfactor0
\cf2 \cell 
\pard\intbl\itap1\pardeftab720\sl400\partightenfactor0
\cf2         <mxCell id="sPDVBLaamCeaX5s3TwPM-62" style="edgeStyle=orthogonalEdgeStyle;rounded=0;orthogonalLoop=1;jettySize=auto;html=1;entryX=0.5;entryY=1;entryDx=0;entryDy=0;fontSize=20;exitX=0.5;exitY=1;exitDx=0;exitDy=0;" parent="WIyWlLk6GJQsqaUBKTNV-1" source="sPDVBLaamCeaX5s3TwPM-16" target="sPDVBLaamCeaX5s3TwPM-57" edge="1">\cell \row

\itap1\trowd \taflags1 \trgaph108\trleft-108 \trcbpat3 \trbrdrl\brdrnil \trbrdrr\brdrnil 
\clvertalt \clshdrawnil \clwWidth37045\clftsWidth3 \clminw1000 \clbrdrt\brdrnil \clbrdrl\brdrnil \clbrdrb\brdrnil \clbrdrr\brdrnil \clpadl200 \clpadr200 \gaph\cellx4320
\clvertalt \clshdrawnil \clwWidth49061\clftsWidth3 \clbrdrt\brdrnil \clbrdrl\brdrnil \clbrdrb\brdrnil \clbrdrr\brdrnil \clpadl200 \clpadr200 \gaph\cellx8640
\pard\intbl\itap1\pardeftab720\sl400\qr\partightenfactor0
\cf2 \cell 
\pard\intbl\itap1\pardeftab720\sl400\partightenfactor0
\cf2           <mxGeometry relative="1" as="geometry">\cell \row

\itap1\trowd \taflags1 \trgaph108\trleft-108 \trcbpat3 \trbrdrl\brdrnil \trbrdrr\brdrnil 
\clvertalt \clshdrawnil \clwWidth37045\clftsWidth3 \clminw1000 \clbrdrt\brdrnil \clbrdrl\brdrnil \clbrdrb\brdrnil \clbrdrr\brdrnil \clpadl200 \clpadr200 \gaph\cellx4320
\clvertalt \clshdrawnil \clwWidth49061\clftsWidth3 \clbrdrt\brdrnil \clbrdrl\brdrnil \clbrdrb\brdrnil \clbrdrr\brdrnil \clpadl200 \clpadr200 \gaph\cellx8640
\pard\intbl\itap1\pardeftab720\sl400\qr\partightenfactor0
\cf2 \cell 
\pard\intbl\itap1\pardeftab720\sl400\partightenfactor0
\cf2             <Array as="points">\cell \row

\itap1\trowd \taflags1 \trgaph108\trleft-108 \trcbpat3 \trbrdrl\brdrnil \trbrdrr\brdrnil 
\clvertalt \clshdrawnil \clwWidth37045\clftsWidth3 \clminw1000 \clbrdrt\brdrnil \clbrdrl\brdrnil \clbrdrb\brdrnil \clbrdrr\brdrnil \clpadl200 \clpadr200 \gaph\cellx4320
\clvertalt \clshdrawnil \clwWidth49061\clftsWidth3 \clbrdrt\brdrnil \clbrdrl\brdrnil \clbrdrb\brdrnil \clbrdrr\brdrnil \clpadl200 \clpadr200 \gaph\cellx8640
\pard\intbl\itap1\pardeftab720\sl400\qr\partightenfactor0
\cf2 \cell 
\pard\intbl\itap1\pardeftab720\sl400\partightenfactor0
\cf2               <mxPoint x="415" y="1090" />\cell \row

\itap1\trowd \taflags1 \trgaph108\trleft-108 \trcbpat3 \trbrdrl\brdrnil \trbrdrr\brdrnil 
\clvertalt \clshdrawnil \clwWidth37045\clftsWidth3 \clminw1000 \clbrdrt\brdrnil \clbrdrl\brdrnil \clbrdrb\brdrnil \clbrdrr\brdrnil \clpadl200 \clpadr200 \gaph\cellx4320
\clvertalt \clshdrawnil \clwWidth49061\clftsWidth3 \clbrdrt\brdrnil \clbrdrl\brdrnil \clbrdrb\brdrnil \clbrdrr\brdrnil \clpadl200 \clpadr200 \gaph\cellx8640
\pard\intbl\itap1\pardeftab720\sl400\qr\partightenfactor0
\cf2 \cell 
\pard\intbl\itap1\pardeftab720\sl400\partightenfactor0
\cf2               <mxPoint x="655" y="1090" />\cell \row

\itap1\trowd \taflags1 \trgaph108\trleft-108 \trcbpat3 \trbrdrl\brdrnil \trbrdrr\brdrnil 
\clvertalt \clshdrawnil \clwWidth37045\clftsWidth3 \clminw1000 \clbrdrt\brdrnil \clbrdrl\brdrnil \clbrdrb\brdrnil \clbrdrr\brdrnil \clpadl200 \clpadr200 \gaph\cellx4320
\clvertalt \clshdrawnil \clwWidth49061\clftsWidth3 \clbrdrt\brdrnil \clbrdrl\brdrnil \clbrdrb\brdrnil \clbrdrr\brdrnil \clpadl200 \clpadr200 \gaph\cellx8640
\pard\intbl\itap1\pardeftab720\sl400\qr\partightenfactor0
\cf2 \cell 
\pard\intbl\itap1\pardeftab720\sl400\partightenfactor0
\cf2             </Array>\cell \row

\itap1\trowd \taflags1 \trgaph108\trleft-108 \trcbpat3 \trbrdrl\brdrnil \trbrdrr\brdrnil 
\clvertalt \clshdrawnil \clwWidth37045\clftsWidth3 \clminw1000 \clbrdrt\brdrnil \clbrdrl\brdrnil \clbrdrb\brdrnil \clbrdrr\brdrnil \clpadl200 \clpadr200 \gaph\cellx4320
\clvertalt \clshdrawnil \clwWidth49061\clftsWidth3 \clbrdrt\brdrnil \clbrdrl\brdrnil \clbrdrb\brdrnil \clbrdrr\brdrnil \clpadl200 \clpadr200 \gaph\cellx8640
\pard\intbl\itap1\pardeftab720\sl400\qr\partightenfactor0
\cf2 \cell 
\pard\intbl\itap1\pardeftab720\sl400\partightenfactor0
\cf2           </mxGeometry>\cell \row

\itap1\trowd \taflags1 \trgaph108\trleft-108 \trcbpat3 \trbrdrl\brdrnil \trbrdrr\brdrnil 
\clvertalt \clshdrawnil \clwWidth37045\clftsWidth3 \clminw1000 \clbrdrt\brdrnil \clbrdrl\brdrnil \clbrdrb\brdrnil \clbrdrr\brdrnil \clpadl200 \clpadr200 \gaph\cellx4320
\clvertalt \clshdrawnil \clwWidth49061\clftsWidth3 \clbrdrt\brdrnil \clbrdrl\brdrnil \clbrdrb\brdrnil \clbrdrr\brdrnil \clpadl200 \clpadr200 \gaph\cellx8640
\pard\intbl\itap1\pardeftab720\sl400\qr\partightenfactor0
\cf2 \cell 
\pard\intbl\itap1\pardeftab720\sl400\partightenfactor0
\cf2         </mxCell>\cell \row

\itap1\trowd \taflags1 \trgaph108\trleft-108 \trcbpat3 \trbrdrl\brdrnil \trbrdrr\brdrnil 
\clvertalt \clshdrawnil \clwWidth37045\clftsWidth3 \clminw1000 \clbrdrt\brdrnil \clbrdrl\brdrnil \clbrdrb\brdrnil \clbrdrr\brdrnil \clpadl200 \clpadr200 \gaph\cellx4320
\clvertalt \clshdrawnil \clwWidth49061\clftsWidth3 \clbrdrt\brdrnil \clbrdrl\brdrnil \clbrdrb\brdrnil \clbrdrr\brdrnil \clpadl200 \clpadr200 \gaph\cellx8640
\pard\intbl\itap1\pardeftab720\sl400\qr\partightenfactor0
\cf2 \cell 
\pard\intbl\itap1\pardeftab720\sl400\partightenfactor0
\cf2         <mxCell id="sPDVBLaamCeaX5s3TwPM-64" style="edgeStyle=orthogonalEdgeStyle;rounded=0;orthogonalLoop=1;jettySize=auto;html=1;fontSize=20;" parent="WIyWlLk6GJQsqaUBKTNV-1" source="sPDVBLaamCeaX5s3TwPM-16" target="sPDVBLaamCeaX5s3TwPM-63" edge="1">\cell \row

\itap1\trowd \taflags1 \trgaph108\trleft-108 \trcbpat3 \trbrdrl\brdrnil \trbrdrr\brdrnil 
\clvertalt \clshdrawnil \clwWidth37045\clftsWidth3 \clminw1000 \clbrdrt\brdrnil \clbrdrl\brdrnil \clbrdrb\brdrnil \clbrdrr\brdrnil \clpadl200 \clpadr200 \gaph\cellx4320
\clvertalt \clshdrawnil \clwWidth49061\clftsWidth3 \clbrdrt\brdrnil \clbrdrl\brdrnil \clbrdrb\brdrnil \clbrdrr\brdrnil \clpadl200 \clpadr200 \gaph\cellx8640
\pard\intbl\itap1\pardeftab720\sl400\qr\partightenfactor0
\cf2 \cell 
\pard\intbl\itap1\pardeftab720\sl400\partightenfactor0
\cf2           <mxGeometry relative="1" as="geometry" />\cell \row

\itap1\trowd \taflags1 \trgaph108\trleft-108 \trcbpat3 \trbrdrl\brdrnil \trbrdrr\brdrnil 
\clvertalt \clshdrawnil \clwWidth37045\clftsWidth3 \clminw1000 \clbrdrt\brdrnil \clbrdrl\brdrnil \clbrdrb\brdrnil \clbrdrr\brdrnil \clpadl200 \clpadr200 \gaph\cellx4320
\clvertalt \clshdrawnil \clwWidth49061\clftsWidth3 \clbrdrt\brdrnil \clbrdrl\brdrnil \clbrdrb\brdrnil \clbrdrr\brdrnil \clpadl200 \clpadr200 \gaph\cellx8640
\pard\intbl\itap1\pardeftab720\sl400\qr\partightenfactor0
\cf2 \cell 
\pard\intbl\itap1\pardeftab720\sl400\partightenfactor0
\cf2         </mxCell>\cell \row

\itap1\trowd \taflags1 \trgaph108\trleft-108 \trcbpat3 \trbrdrl\brdrnil \trbrdrr\brdrnil 
\clvertalt \clshdrawnil \clwWidth37045\clftsWidth3 \clminw1000 \clbrdrt\brdrnil \clbrdrl\brdrnil \clbrdrb\brdrnil \clbrdrr\brdrnil \clpadl200 \clpadr200 \gaph\cellx4320
\clvertalt \clshdrawnil \clwWidth49061\clftsWidth3 \clbrdrt\brdrnil \clbrdrl\brdrnil \clbrdrb\brdrnil \clbrdrr\brdrnil \clpadl200 \clpadr200 \gaph\cellx8640
\pard\intbl\itap1\pardeftab720\sl400\qr\partightenfactor0
\cf2 \cell 
\pard\intbl\itap1\pardeftab720\sl400\partightenfactor0
\cf2         <mxCell id="sPDVBLaamCeaX5s3TwPM-16" value="DBlock (512, /5)" style="rounded=1;whiteSpace=wrap;html=1;fillColor=#dae8fc;strokeColor=#6c8ebf;fontSize=20;" parent="WIyWlLk6GJQsqaUBKTNV-1" vertex="1">\cell \row

\itap1\trowd \taflags1 \trgaph108\trleft-108 \trcbpat3 \trbrdrl\brdrnil \trbrdrr\brdrnil 
\clvertalt \clshdrawnil \clwWidth37045\clftsWidth3 \clminw1000 \clbrdrt\brdrnil \clbrdrl\brdrnil \clbrdrb\brdrnil \clbrdrr\brdrnil \clpadl200 \clpadr200 \gaph\cellx4320
\clvertalt \clshdrawnil \clwWidth49061\clftsWidth3 \clbrdrt\brdrnil \clbrdrl\brdrnil \clbrdrb\brdrnil \clbrdrr\brdrnil \clpadl200 \clpadr200 \gaph\cellx8640
\pard\intbl\itap1\pardeftab720\sl400\qr\partightenfactor0
\cf2 \cell 
\pard\intbl\itap1\pardeftab720\sl400\partightenfactor0
\cf2           <mxGeometry x="340" y="1040" width="150" height="30" as="geometry" />\cell \row

\itap1\trowd \taflags1 \trgaph108\trleft-108 \trcbpat3 \trbrdrl\brdrnil \trbrdrr\brdrnil 
\clvertalt \clshdrawnil \clwWidth37045\clftsWidth3 \clminw1000 \clbrdrt\brdrnil \clbrdrl\brdrnil \clbrdrb\brdrnil \clbrdrr\brdrnil \clpadl200 \clpadr200 \gaph\cellx4320
\clvertalt \clshdrawnil \clwWidth49061\clftsWidth3 \clbrdrt\brdrnil \clbrdrl\brdrnil \clbrdrb\brdrnil \clbrdrr\brdrnil \clpadl200 \clpadr200 \gaph\cellx8640
\pard\intbl\itap1\pardeftab720\sl400\qr\partightenfactor0
\cf2 \cell 
\pard\intbl\itap1\pardeftab720\sl400\partightenfactor0
\cf2         </mxCell>\cell \row

\itap1\trowd \taflags1 \trgaph108\trleft-108 \trcbpat3 \trbrdrl\brdrnil \trbrdrr\brdrnil 
\clvertalt \clshdrawnil \clwWidth37045\clftsWidth3 \clminw1000 \clbrdrt\brdrnil \clbrdrl\brdrnil \clbrdrb\brdrnil \clbrdrr\brdrnil \clpadl200 \clpadr200 \gaph\cellx4320
\clvertalt \clshdrawnil \clwWidth49061\clftsWidth3 \clbrdrt\brdrnil \clbrdrl\brdrnil \clbrdrb\brdrnil \clbrdrr\brdrnil \clpadl200 \clpadr200 \gaph\cellx8640
\pard\intbl\itap1\pardeftab720\sl400\qr\partightenfactor0
\cf2 \cell 
\pard\intbl\itap1\pardeftab720\sl400\partightenfactor0
\cf2         <mxCell id="sPDVBLaamCeaX5s3TwPM-18" value="&lt;font style=&quot;font-size: 20px;&quot;&gt;RFF embedding (64)&lt;/font&gt;" style="rounded=0;whiteSpace=wrap;html=1;fillColor=#e1d5e7;strokeColor=#9673a6;fontSize=20;" parent="WIyWlLk6GJQsqaUBKTNV-1" vertex="1">\cell \row

\itap1\trowd \taflags1 \trgaph108\trleft-108 \trcbpat3 \trbrdrl\brdrnil \trbrdrr\brdrnil 
\clvertalt \clshdrawnil \clwWidth37045\clftsWidth3 \clminw1000 \clbrdrt\brdrnil \clbrdrl\brdrnil \clbrdrb\brdrnil \clbrdrr\brdrnil \clpadl200 \clpadr200 \gaph\cellx4320
\clvertalt \clshdrawnil \clwWidth49061\clftsWidth3 \clbrdrt\brdrnil \clbrdrl\brdrnil \clbrdrb\brdrnil \clbrdrr\brdrnil \clpadl200 \clpadr200 \gaph\cellx8640
\pard\intbl\itap1\pardeftab720\sl400\qr\partightenfactor0
\cf2 \cell 
\pard\intbl\itap1\pardeftab720\sl400\partightenfactor0
\cf2           <mxGeometry x="5" y="737.5" width="190" height="30" as="geometry" />\cell \row

\itap1\trowd \taflags1 \trgaph108\trleft-108 \trcbpat3 \trbrdrl\brdrnil \trbrdrr\brdrnil 
\clvertalt \clshdrawnil \clwWidth37045\clftsWidth3 \clminw1000 \clbrdrt\brdrnil \clbrdrl\brdrnil \clbrdrb\brdrnil \clbrdrr\brdrnil \clpadl200 \clpadr200 \gaph\cellx4320
\clvertalt \clshdrawnil \clwWidth49061\clftsWidth3 \clbrdrt\brdrnil \clbrdrl\brdrnil \clbrdrb\brdrnil \clbrdrr\brdrnil \clpadl200 \clpadr200 \gaph\cellx8640
\pard\intbl\itap1\pardeftab720\sl400\qr\partightenfactor0
\cf2 \cell 
\pard\intbl\itap1\pardeftab720\sl400\partightenfactor0
\cf2         </mxCell>\cell \row

\itap1\trowd \taflags1 \trgaph108\trleft-108 \trcbpat3 \trbrdrl\brdrnil \trbrdrr\brdrnil 
\clvertalt \clshdrawnil \clwWidth37045\clftsWidth3 \clminw1000 \clbrdrt\brdrnil \clbrdrl\brdrnil \clbrdrb\brdrnil \clbrdrr\brdrnil \clpadl200 \clpadr200 \gaph\cellx4320
\clvertalt \clshdrawnil \clwWidth49061\clftsWidth3 \clbrdrt\brdrnil \clbrdrl\brdrnil \clbrdrb\brdrnil \clbrdrr\brdrnil \clpadl200 \clpadr200 \gaph\cellx8640
\pard\intbl\itap1\pardeftab720\sl400\qr\partightenfactor0
\cf2 \cell 
\pard\intbl\itap1\pardeftab720\sl400\partightenfactor0
\cf2         <mxCell id="07mqXIemjpvf2Ur7vXoQ-10" value="" style="edgeStyle=orthogonalEdgeStyle;rounded=0;orthogonalLoop=1;jettySize=auto;html=1;fontSize=20;" edge="1" parent="WIyWlLk6GJQsqaUBKTNV-1" source="sPDVBLaamCeaX5s3TwPM-19" target="07mqXIemjpvf2Ur7vXoQ-0">\cell \row

\itap1\trowd \taflags1 \trgaph108\trleft-108 \trcbpat3 \trbrdrl\brdrnil \trbrdrr\brdrnil 
\clvertalt \clshdrawnil \clwWidth37045\clftsWidth3 \clminw1000 \clbrdrt\brdrnil \clbrdrl\brdrnil \clbrdrb\brdrnil \clbrdrr\brdrnil \clpadl200 \clpadr200 \gaph\cellx4320
\clvertalt \clshdrawnil \clwWidth49061\clftsWidth3 \clbrdrt\brdrnil \clbrdrl\brdrnil \clbrdrb\brdrnil \clbrdrr\brdrnil \clpadl200 \clpadr200 \gaph\cellx8640
\pard\intbl\itap1\pardeftab720\sl400\qr\partightenfactor0
\cf2 \cell 
\pard\intbl\itap1\pardeftab720\sl400\partightenfactor0
\cf2           <mxGeometry relative="1" as="geometry" />\cell \row

\itap1\trowd \taflags1 \trgaph108\trleft-108 \trcbpat3 \trbrdrl\brdrnil \trbrdrr\brdrnil 
\clvertalt \clshdrawnil \clwWidth37045\clftsWidth3 \clminw1000 \clbrdrt\brdrnil \clbrdrl\brdrnil \clbrdrb\brdrnil \clbrdrr\brdrnil \clpadl200 \clpadr200 \gaph\cellx4320
\clvertalt \clshdrawnil \clwWidth49061\clftsWidth3 \clbrdrt\brdrnil \clbrdrl\brdrnil \clbrdrb\brdrnil \clbrdrr\brdrnil \clpadl200 \clpadr200 \gaph\cellx8640
\pard\intbl\itap1\pardeftab720\sl400\qr\partightenfactor0
\cf2 \cell 
\pard\intbl\itap1\pardeftab720\sl400\partightenfactor0
\cf2         </mxCell>\cell \row

\itap1\trowd \taflags1 \trgaph108\trleft-108 \trcbpat3 \trbrdrl\brdrnil \trbrdrr\brdrnil 
\clvertalt \clshdrawnil \clwWidth37045\clftsWidth3 \clminw1000 \clbrdrt\brdrnil \clbrdrl\brdrnil \clbrdrb\brdrnil \clbrdrr\brdrnil \clpadl200 \clpadr200 \gaph\cellx4320
\clvertalt \clshdrawnil \clwWidth49061\clftsWidth3 \clbrdrt\brdrnil \clbrdrl\brdrnil \clbrdrb\brdrnil \clbrdrr\brdrnil \clpadl200 \clpadr200 \gaph\cellx8640
\pard\intbl\itap1\pardeftab720\sl400\qr\partightenfactor0
\cf2 \cell 
\pard\intbl\itap1\pardeftab720\sl400\partightenfactor0
\cf2         <mxCell id="sPDVBLaamCeaX5s3TwPM-19" value="&lt;font style=&quot;font-size: 20px;&quot;&gt;MLP&lt;/font&gt;" style="rounded=0;whiteSpace=wrap;html=1;fillColor=#fff2cc;strokeColor=#d6b656;fontSize=20;" parent="WIyWlLk6GJQsqaUBKTNV-1" vertex="1">\cell \row

\itap1\trowd \taflags1 \trgaph108\trleft-108 \trcbpat3 \trbrdrl\brdrnil \trbrdrr\brdrnil 
\clvertalt \clshdrawnil \clwWidth37045\clftsWidth3 \clminw1000 \clbrdrt\brdrnil \clbrdrl\brdrnil \clbrdrb\brdrnil \clbrdrr\brdrnil \clpadl200 \clpadr200 \gaph\cellx4320
\clvertalt \clshdrawnil \clwWidth49061\clftsWidth3 \clbrdrt\brdrnil \clbrdrl\brdrnil \clbrdrb\brdrnil \clbrdrr\brdrnil \clpadl200 \clpadr200 \gaph\cellx8640
\pard\intbl\itap1\pardeftab720\sl400\qr\partightenfactor0
\cf2 \cell 
\pard\intbl\itap1\pardeftab720\sl400\partightenfactor0
\cf2           <mxGeometry x="5" y="767.5" width="190" height="32.5" as="geometry" />\cell \row

\itap1\trowd \taflags1 \trgaph108\trleft-108 \trcbpat3 \trbrdrl\brdrnil \trbrdrr\brdrnil 
\clvertalt \clshdrawnil \clwWidth37045\clftsWidth3 \clminw1000 \clbrdrt\brdrnil \clbrdrl\brdrnil \clbrdrb\brdrnil \clbrdrr\brdrnil \clpadl200 \clpadr200 \gaph\cellx4320
\clvertalt \clshdrawnil \clwWidth49061\clftsWidth3 \clbrdrt\brdrnil \clbrdrl\brdrnil \clbrdrb\brdrnil \clbrdrr\brdrnil \clpadl200 \clpadr200 \gaph\cellx8640
\pard\intbl\itap1\pardeftab720\sl400\qr\partightenfactor0
\cf2 \cell 
\pard\intbl\itap1\pardeftab720\sl400\partightenfactor0
\cf2         </mxCell>\cell \row

\itap1\trowd \taflags1 \trgaph108\trleft-108 \trcbpat3 \trbrdrl\brdrnil \trbrdrr\brdrnil 
\clvertalt \clshdrawnil \clwWidth37045\clftsWidth3 \clminw1000 \clbrdrt\brdrnil \clbrdrl\brdrnil \clbrdrb\brdrnil \clbrdrr\brdrnil \clpadl200 \clpadr200 \gaph\cellx4320
\clvertalt \clshdrawnil \clwWidth49061\clftsWidth3 \clbrdrt\brdrnil \clbrdrl\brdrnil \clbrdrb\brdrnil \clbrdrr\brdrnil \clpadl200 \clpadr200 \gaph\cellx8640
\pard\intbl\itap1\pardeftab720\sl400\qr\partightenfactor0
\cf2 \cell 
\pard\intbl\itap1\pardeftab720\sl400\partightenfactor0
\cf2         <mxCell id="sPDVBLaamCeaX5s3TwPM-90" style="edgeStyle=orthogonalEdgeStyle;rounded=0;orthogonalLoop=1;jettySize=auto;html=1;entryX=0;entryY=0.5;entryDx=0;entryDy=0;fontSize=20;" parent="WIyWlLk6GJQsqaUBKTNV-1" target="sPDVBLaamCeaX5s3TwPM-32" edge="1">\cell \row

\itap1\trowd \taflags1 \trgaph108\trleft-108 \trcbpat3 \trbrdrl\brdrnil \trbrdrr\brdrnil 
\clvertalt \clshdrawnil \clwWidth37045\clftsWidth3 \clminw1000 \clbrdrt\brdrnil \clbrdrl\brdrnil \clbrdrb\brdrnil \clbrdrr\brdrnil \clpadl200 \clpadr200 \gaph\cellx4320
\clvertalt \clshdrawnil \clwWidth49061\clftsWidth3 \clbrdrt\brdrnil \clbrdrl\brdrnil \clbrdrb\brdrnil \clbrdrr\brdrnil \clpadl200 \clpadr200 \gaph\cellx8640
\pard\intbl\itap1\pardeftab720\sl400\qr\partightenfactor0
\cf2 \cell 
\pard\intbl\itap1\pardeftab720\sl400\partightenfactor0
\cf2           <mxGeometry relative="1" as="geometry">\cell \row

\itap1\trowd \taflags1 \trgaph108\trleft-108 \trcbpat3 \trbrdrl\brdrnil \trbrdrr\brdrnil 
\clvertalt \clshdrawnil \clwWidth37045\clftsWidth3 \clminw1000 \clbrdrt\brdrnil \clbrdrl\brdrnil \clbrdrb\brdrnil \clbrdrr\brdrnil \clpadl200 \clpadr200 \gaph\cellx4320
\clvertalt \clshdrawnil \clwWidth49061\clftsWidth3 \clbrdrt\brdrnil \clbrdrl\brdrnil \clbrdrb\brdrnil \clbrdrr\brdrnil \clpadl200 \clpadr200 \gaph\cellx8640
\pard\intbl\itap1\pardeftab720\sl400\qr\partightenfactor0
\cf2 \cell 
\pard\intbl\itap1\pardeftab720\sl400\partightenfactor0
\cf2             <Array as="points">\cell \row

\itap1\trowd \taflags1 \trgaph108\trleft-108 \trcbpat3 \trbrdrl\brdrnil \trbrdrr\brdrnil 
\clvertalt \clshdrawnil \clwWidth37045\clftsWidth3 \clminw1000 \clbrdrt\brdrnil \clbrdrl\brdrnil \clbrdrb\brdrnil \clbrdrr\brdrnil \clpadl200 \clpadr200 \gaph\cellx4320
\clvertalt \clshdrawnil \clwWidth49061\clftsWidth3 \clbrdrt\brdrnil \clbrdrl\brdrnil \clbrdrb\brdrnil \clbrdrr\brdrnil \clpadl200 \clpadr200 \gaph\cellx8640
\pard\intbl\itap1\pardeftab720\sl400\qr\partightenfactor0
\cf2 \cell 
\pard\intbl\itap1\pardeftab720\sl400\partightenfactor0
\cf2               <mxPoint x="95" y="900" />\cell \row

\itap1\trowd \taflags1 \trgaph108\trleft-108 \trcbpat3 \trbrdrl\brdrnil \trbrdrr\brdrnil 
\clvertalt \clshdrawnil \clwWidth37045\clftsWidth3 \clminw1000 \clbrdrt\brdrnil \clbrdrl\brdrnil \clbrdrb\brdrnil \clbrdrr\brdrnil \clpadl200 \clpadr200 \gaph\cellx4320
\clvertalt \clshdrawnil \clwWidth49061\clftsWidth3 \clbrdrt\brdrnil \clbrdrl\brdrnil \clbrdrb\brdrnil \clbrdrr\brdrnil \clpadl200 \clpadr200 \gaph\cellx8640
\pard\intbl\itap1\pardeftab720\sl400\qr\partightenfactor0
\cf2 \cell 
\pard\intbl\itap1\pardeftab720\sl400\partightenfactor0
\cf2               <mxPoint x="220" y="900" />\cell \row

\itap1\trowd \taflags1 \trgaph108\trleft-108 \trcbpat3 \trbrdrl\brdrnil \trbrdrr\brdrnil 
\clvertalt \clshdrawnil \clwWidth37045\clftsWidth3 \clminw1000 \clbrdrt\brdrnil \clbrdrl\brdrnil \clbrdrb\brdrnil \clbrdrr\brdrnil \clpadl200 \clpadr200 \gaph\cellx4320
\clvertalt \clshdrawnil \clwWidth49061\clftsWidth3 \clbrdrt\brdrnil \clbrdrl\brdrnil \clbrdrb\brdrnil \clbrdrr\brdrnil \clpadl200 \clpadr200 \gaph\cellx8640
\pard\intbl\itap1\pardeftab720\sl400\qr\partightenfactor0
\cf2 \cell 
\pard\intbl\itap1\pardeftab720\sl400\partightenfactor0
\cf2               <mxPoint x="220" y="680" />\cell \row

\itap1\trowd \taflags1 \trgaph108\trleft-108 \trcbpat3 \trbrdrl\brdrnil \trbrdrr\brdrnil 
\clvertalt \clshdrawnil \clwWidth37045\clftsWidth3 \clminw1000 \clbrdrt\brdrnil \clbrdrl\brdrnil \clbrdrb\brdrnil \clbrdrr\brdrnil \clpadl200 \clpadr200 \gaph\cellx4320
\clvertalt \clshdrawnil \clwWidth49061\clftsWidth3 \clbrdrt\brdrnil \clbrdrl\brdrnil \clbrdrb\brdrnil \clbrdrr\brdrnil \clpadl200 \clpadr200 \gaph\cellx8640
\pard\intbl\itap1\pardeftab720\sl400\qr\partightenfactor0
\cf2 \cell 
\pard\intbl\itap1\pardeftab720\sl400\partightenfactor0
\cf2             </Array>\cell \row

\itap1\trowd \taflags1 \trgaph108\trleft-108 \trcbpat3 \trbrdrl\brdrnil \trbrdrr\brdrnil 
\clvertalt \clshdrawnil \clwWidth37045\clftsWidth3 \clminw1000 \clbrdrt\brdrnil \clbrdrl\brdrnil \clbrdrb\brdrnil \clbrdrr\brdrnil \clpadl200 \clpadr200 \gaph\cellx4320
\clvertalt \clshdrawnil \clwWidth49061\clftsWidth3 \clbrdrt\brdrnil \clbrdrl\brdrnil \clbrdrb\brdrnil \clbrdrr\brdrnil \clpadl200 \clpadr200 \gaph\cellx8640
\pard\intbl\itap1\pardeftab720\sl400\qr\partightenfactor0
\cf2 \cell 
\pard\intbl\itap1\pardeftab720\sl400\partightenfactor0
\cf2             <mxPoint x="95" y="842.5" as="sourcePoint" />\cell \row

\itap1\trowd \taflags1 \trgaph108\trleft-108 \trcbpat3 \trbrdrl\brdrnil \trbrdrr\brdrnil 
\clvertalt \clshdrawnil \clwWidth37045\clftsWidth3 \clminw1000 \clbrdrt\brdrnil \clbrdrl\brdrnil \clbrdrb\brdrnil \clbrdrr\brdrnil \clpadl200 \clpadr200 \gaph\cellx4320
\clvertalt \clshdrawnil \clwWidth49061\clftsWidth3 \clbrdrt\brdrnil \clbrdrl\brdrnil \clbrdrb\brdrnil \clbrdrr\brdrnil \clpadl200 \clpadr200 \gaph\cellx8640
\pard\intbl\itap1\pardeftab720\sl400\qr\partightenfactor0
\cf2 \cell 
\pard\intbl\itap1\pardeftab720\sl400\partightenfactor0
\cf2           </mxGeometry>\cell \row

\itap1\trowd \taflags1 \trgaph108\trleft-108 \trcbpat3 \trbrdrl\brdrnil \trbrdrr\brdrnil 
\clvertalt \clshdrawnil \clwWidth37045\clftsWidth3 \clminw1000 \clbrdrt\brdrnil \clbrdrl\brdrnil \clbrdrb\brdrnil \clbrdrr\brdrnil \clpadl200 \clpadr200 \gaph\cellx4320
\clvertalt \clshdrawnil \clwWidth49061\clftsWidth3 \clbrdrt\brdrnil \clbrdrl\brdrnil \clbrdrb\brdrnil \clbrdrr\brdrnil \clpadl200 \clpadr200 \gaph\cellx8640
\pard\intbl\itap1\pardeftab720\sl400\qr\partightenfactor0
\cf2 \cell 
\pard\intbl\itap1\pardeftab720\sl400\partightenfactor0
\cf2         </mxCell>\cell \row

\itap1\trowd \taflags1 \trgaph108\trleft-108 \trcbpat3 \trbrdrl\brdrnil \trbrdrr\brdrnil 
\clvertalt \clshdrawnil \clwWidth37045\clftsWidth3 \clminw1000 \clbrdrt\brdrnil \clbrdrl\brdrnil \clbrdrb\brdrnil \clbrdrr\brdrnil \clpadl200 \clpadr200 \gaph\cellx4320
\clvertalt \clshdrawnil \clwWidth49061\clftsWidth3 \clbrdrt\brdrnil \clbrdrl\brdrnil \clbrdrb\brdrnil \clbrdrr\brdrnil \clpadl200 \clpadr200 \gaph\cellx8640
\pard\intbl\itap1\pardeftab720\sl400\qr\partightenfactor0
\cf2 \cell 
\pard\intbl\itap1\pardeftab720\sl400\partightenfactor0
\cf2         <mxCell id="sPDVBLaamCeaX5s3TwPM-91" style="edgeStyle=orthogonalEdgeStyle;rounded=0;orthogonalLoop=1;jettySize=auto;html=1;entryX=0;entryY=0.5;entryDx=0;entryDy=0;fontSize=20;" parent="WIyWlLk6GJQsqaUBKTNV-1" target="sPDVBLaamCeaX5s3TwPM-36" edge="1">\cell \row

\itap1\trowd \taflags1 \trgaph108\trleft-108 \trcbpat3 \trbrdrl\brdrnil \trbrdrr\brdrnil 
\clvertalt \clshdrawnil \clwWidth37045\clftsWidth3 \clminw1000 \clbrdrt\brdrnil \clbrdrl\brdrnil \clbrdrb\brdrnil \clbrdrr\brdrnil \clpadl200 \clpadr200 \gaph\cellx4320
\clvertalt \clshdrawnil \clwWidth49061\clftsWidth3 \clbrdrt\brdrnil \clbrdrl\brdrnil \clbrdrb\brdrnil \clbrdrr\brdrnil \clpadl200 \clpadr200 \gaph\cellx8640
\pard\intbl\itap1\pardeftab720\sl400\qr\partightenfactor0
\cf2 \cell 
\pard\intbl\itap1\pardeftab720\sl400\partightenfactor0
\cf2           <mxGeometry relative="1" as="geometry">\cell \row

\itap1\trowd \taflags1 \trgaph108\trleft-108 \trcbpat3 \trbrdrl\brdrnil \trbrdrr\brdrnil 
\clvertalt \clshdrawnil \clwWidth37045\clftsWidth3 \clminw1000 \clbrdrt\brdrnil \clbrdrl\brdrnil \clbrdrb\brdrnil \clbrdrr\brdrnil \clpadl200 \clpadr200 \gaph\cellx4320
\clvertalt \clshdrawnil \clwWidth49061\clftsWidth3 \clbrdrt\brdrnil \clbrdrl\brdrnil \clbrdrb\brdrnil \clbrdrr\brdrnil \clpadl200 \clpadr200 \gaph\cellx8640
\pard\intbl\itap1\pardeftab720\sl400\qr\partightenfactor0
\cf2 \cell 
\pard\intbl\itap1\pardeftab720\sl400\partightenfactor0
\cf2             <Array as="points">\cell \row

\itap1\trowd \taflags1 \trgaph108\trleft-108 \trcbpat3 \trbrdrl\brdrnil \trbrdrr\brdrnil 
\clvertalt \clshdrawnil \clwWidth37045\clftsWidth3 \clminw1000 \clbrdrt\brdrnil \clbrdrl\brdrnil \clbrdrb\brdrnil \clbrdrr\brdrnil \clpadl200 \clpadr200 \gaph\cellx4320
\clvertalt \clshdrawnil \clwWidth49061\clftsWidth3 \clbrdrt\brdrnil \clbrdrl\brdrnil \clbrdrb\brdrnil \clbrdrr\brdrnil \clpadl200 \clpadr200 \gaph\cellx8640
\pard\intbl\itap1\pardeftab720\sl400\qr\partightenfactor0
\cf2 \cell 
\pard\intbl\itap1\pardeftab720\sl400\partightenfactor0
\cf2               <mxPoint x="95" y="900" />\cell \row

\itap1\trowd \taflags1 \trgaph108\trleft-108 \trcbpat3 \trbrdrl\brdrnil \trbrdrr\brdrnil 
\clvertalt \clshdrawnil \clwWidth37045\clftsWidth3 \clminw1000 \clbrdrt\brdrnil \clbrdrl\brdrnil \clbrdrb\brdrnil \clbrdrr\brdrnil \clpadl200 \clpadr200 \gaph\cellx4320
\clvertalt \clshdrawnil \clwWidth49061\clftsWidth3 \clbrdrt\brdrnil \clbrdrl\brdrnil \clbrdrb\brdrnil \clbrdrr\brdrnil \clpadl200 \clpadr200 \gaph\cellx8640
\pard\intbl\itap1\pardeftab720\sl400\qr\partightenfactor0
\cf2 \cell 
\pard\intbl\itap1\pardeftab720\sl400\partightenfactor0
\cf2               <mxPoint x="220" y="900" />\cell \row

\itap1\trowd \taflags1 \trgaph108\trleft-108 \trcbpat3 \trbrdrl\brdrnil \trbrdrr\brdrnil 
\clvertalt \clshdrawnil \clwWidth37045\clftsWidth3 \clminw1000 \clbrdrt\brdrnil \clbrdrl\brdrnil \clbrdrb\brdrnil \clbrdrr\brdrnil \clpadl200 \clpadr200 \gaph\cellx4320
\clvertalt \clshdrawnil \clwWidth49061\clftsWidth3 \clbrdrt\brdrnil \clbrdrl\brdrnil \clbrdrb\brdrnil \clbrdrr\brdrnil \clpadl200 \clpadr200 \gaph\cellx8640
\pard\intbl\itap1\pardeftab720\sl400\qr\partightenfactor0
\cf2 \cell 
\pard\intbl\itap1\pardeftab720\sl400\partightenfactor0
\cf2               <mxPoint x="220" y="750" />\cell \row

\itap1\trowd \taflags1 \trgaph108\trleft-108 \trcbpat3 \trbrdrl\brdrnil \trbrdrr\brdrnil 
\clvertalt \clshdrawnil \clwWidth37045\clftsWidth3 \clminw1000 \clbrdrt\brdrnil \clbrdrl\brdrnil \clbrdrb\brdrnil \clbrdrr\brdrnil \clpadl200 \clpadr200 \gaph\cellx4320
\clvertalt \clshdrawnil \clwWidth49061\clftsWidth3 \clbrdrt\brdrnil \clbrdrl\brdrnil \clbrdrb\brdrnil \clbrdrr\brdrnil \clpadl200 \clpadr200 \gaph\cellx8640
\pard\intbl\itap1\pardeftab720\sl400\qr\partightenfactor0
\cf2 \cell 
\pard\intbl\itap1\pardeftab720\sl400\partightenfactor0
\cf2             </Array>\cell \row

\itap1\trowd \taflags1 \trgaph108\trleft-108 \trcbpat3 \trbrdrl\brdrnil \trbrdrr\brdrnil 
\clvertalt \clshdrawnil \clwWidth37045\clftsWidth3 \clminw1000 \clbrdrt\brdrnil \clbrdrl\brdrnil \clbrdrb\brdrnil \clbrdrr\brdrnil \clpadl200 \clpadr200 \gaph\cellx4320
\clvertalt \clshdrawnil \clwWidth49061\clftsWidth3 \clbrdrt\brdrnil \clbrdrl\brdrnil \clbrdrb\brdrnil \clbrdrr\brdrnil \clpadl200 \clpadr200 \gaph\cellx8640
\pard\intbl\itap1\pardeftab720\sl400\qr\partightenfactor0
\cf2 \cell 
\pard\intbl\itap1\pardeftab720\sl400\partightenfactor0
\cf2             <mxPoint x="95" y="842.5" as="sourcePoint" />\cell \row

\itap1\trowd \taflags1 \trgaph108\trleft-108 \trcbpat3 \trbrdrl\brdrnil \trbrdrr\brdrnil 
\clvertalt \clshdrawnil \clwWidth37045\clftsWidth3 \clminw1000 \clbrdrt\brdrnil \clbrdrl\brdrnil \clbrdrb\brdrnil \clbrdrr\brdrnil \clpadl200 \clpadr200 \gaph\cellx4320
\clvertalt \clshdrawnil \clwWidth49061\clftsWidth3 \clbrdrt\brdrnil \clbrdrl\brdrnil \clbrdrb\brdrnil \clbrdrr\brdrnil \clpadl200 \clpadr200 \gaph\cellx8640
\pard\intbl\itap1\pardeftab720\sl400\qr\partightenfactor0
\cf2 \cell 
\pard\intbl\itap1\pardeftab720\sl400\partightenfactor0
\cf2           </mxGeometry>\cell \row

\itap1\trowd \taflags1 \trgaph108\trleft-108 \trcbpat3 \trbrdrl\brdrnil \trbrdrr\brdrnil 
\clvertalt \clshdrawnil \clwWidth37045\clftsWidth3 \clminw1000 \clbrdrt\brdrnil \clbrdrl\brdrnil \clbrdrb\brdrnil \clbrdrr\brdrnil \clpadl200 \clpadr200 \gaph\cellx4320
\clvertalt \clshdrawnil \clwWidth49061\clftsWidth3 \clbrdrt\brdrnil \clbrdrl\brdrnil \clbrdrb\brdrnil \clbrdrr\brdrnil \clpadl200 \clpadr200 \gaph\cellx8640
\pard\intbl\itap1\pardeftab720\sl400\qr\partightenfactor0
\cf2 \cell 
\pard\intbl\itap1\pardeftab720\sl400\partightenfactor0
\cf2         </mxCell>\cell \row

\itap1\trowd \taflags1 \trgaph108\trleft-108 \trcbpat3 \trbrdrl\brdrnil \trbrdrr\brdrnil 
\clvertalt \clshdrawnil \clwWidth37045\clftsWidth3 \clminw1000 \clbrdrt\brdrnil \clbrdrl\brdrnil \clbrdrb\brdrnil \clbrdrr\brdrnil \clpadl200 \clpadr200 \gaph\cellx4320
\clvertalt \clshdrawnil \clwWidth49061\clftsWidth3 \clbrdrt\brdrnil \clbrdrl\brdrnil \clbrdrb\brdrnil \clbrdrr\brdrnil \clpadl200 \clpadr200 \gaph\cellx8640
\pard\intbl\itap1\pardeftab720\sl400\qr\partightenfactor0
\cf2 \cell 
\pard\intbl\itap1\pardeftab720\sl400\partightenfactor0
\cf2         <mxCell id="sPDVBLaamCeaX5s3TwPM-92" style="edgeStyle=orthogonalEdgeStyle;rounded=0;orthogonalLoop=1;jettySize=auto;html=1;entryX=0;entryY=0.5;entryDx=0;entryDy=0;fontSize=20;" parent="WIyWlLk6GJQsqaUBKTNV-1" target="sPDVBLaamCeaX5s3TwPM-35" edge="1">\cell \row

\itap1\trowd \taflags1 \trgaph108\trleft-108 \trcbpat3 \trbrdrl\brdrnil \trbrdrr\brdrnil 
\clvertalt \clshdrawnil \clwWidth37045\clftsWidth3 \clminw1000 \clbrdrt\brdrnil \clbrdrl\brdrnil \clbrdrb\brdrnil \clbrdrr\brdrnil \clpadl200 \clpadr200 \gaph\cellx4320
\clvertalt \clshdrawnil \clwWidth49061\clftsWidth3 \clbrdrt\brdrnil \clbrdrl\brdrnil \clbrdrb\brdrnil \clbrdrr\brdrnil \clpadl200 \clpadr200 \gaph\cellx8640
\pard\intbl\itap1\pardeftab720\sl400\qr\partightenfactor0
\cf2 \cell 
\pard\intbl\itap1\pardeftab720\sl400\partightenfactor0
\cf2           <mxGeometry relative="1" as="geometry">\cell \row

\itap1\trowd \taflags1 \trgaph108\trleft-108 \trcbpat3 \trbrdrl\brdrnil \trbrdrr\brdrnil 
\clvertalt \clshdrawnil \clwWidth37045\clftsWidth3 \clminw1000 \clbrdrt\brdrnil \clbrdrl\brdrnil \clbrdrb\brdrnil \clbrdrr\brdrnil \clpadl200 \clpadr200 \gaph\cellx4320
\clvertalt \clshdrawnil \clwWidth49061\clftsWidth3 \clbrdrt\brdrnil \clbrdrl\brdrnil \clbrdrb\brdrnil \clbrdrr\brdrnil \clpadl200 \clpadr200 \gaph\cellx8640
\pard\intbl\itap1\pardeftab720\sl400\qr\partightenfactor0
\cf2 \cell 
\pard\intbl\itap1\pardeftab720\sl400\partightenfactor0
\cf2             <Array as="points">\cell \row

\itap1\trowd \taflags1 \trgaph108\trleft-108 \trcbpat3 \trbrdrl\brdrnil \trbrdrr\brdrnil 
\clvertalt \clshdrawnil \clwWidth37045\clftsWidth3 \clminw1000 \clbrdrt\brdrnil \clbrdrl\brdrnil \clbrdrb\brdrnil \clbrdrr\brdrnil \clpadl200 \clpadr200 \gaph\cellx4320
\clvertalt \clshdrawnil \clwWidth49061\clftsWidth3 \clbrdrt\brdrnil \clbrdrl\brdrnil \clbrdrb\brdrnil \clbrdrr\brdrnil \clpadl200 \clpadr200 \gaph\cellx8640
\pard\intbl\itap1\pardeftab720\sl400\qr\partightenfactor0
\cf2 \cell 
\pard\intbl\itap1\pardeftab720\sl400\partightenfactor0
\cf2               <mxPoint x="95" y="900" />\cell \row

\itap1\trowd \taflags1 \trgaph108\trleft-108 \trcbpat3 \trbrdrl\brdrnil \trbrdrr\brdrnil 
\clvertalt \clshdrawnil \clwWidth37045\clftsWidth3 \clminw1000 \clbrdrt\brdrnil \clbrdrl\brdrnil \clbrdrb\brdrnil \clbrdrr\brdrnil \clpadl200 \clpadr200 \gaph\cellx4320
\clvertalt \clshdrawnil \clwWidth49061\clftsWidth3 \clbrdrt\brdrnil \clbrdrl\brdrnil \clbrdrb\brdrnil \clbrdrr\brdrnil \clpadl200 \clpadr200 \gaph\cellx8640
\pard\intbl\itap1\pardeftab720\sl400\qr\partightenfactor0
\cf2 \cell 
\pard\intbl\itap1\pardeftab720\sl400\partightenfactor0
\cf2               <mxPoint x="220" y="900" />\cell \row

\itap1\trowd \taflags1 \trgaph108\trleft-108 \trcbpat3 \trbrdrl\brdrnil \trbrdrr\brdrnil 
\clvertalt \clshdrawnil \clwWidth37045\clftsWidth3 \clminw1000 \clbrdrt\brdrnil \clbrdrl\brdrnil \clbrdrb\brdrnil \clbrdrr\brdrnil \clpadl200 \clpadr200 \gaph\cellx4320
\clvertalt \clshdrawnil \clwWidth49061\clftsWidth3 \clbrdrt\brdrnil \clbrdrl\brdrnil \clbrdrb\brdrnil \clbrdrr\brdrnil \clpadl200 \clpadr200 \gaph\cellx8640
\pard\intbl\itap1\pardeftab720\sl400\qr\partightenfactor0
\cf2 \cell 
\pard\intbl\itap1\pardeftab720\sl400\partightenfactor0
\cf2               <mxPoint x="220" y="825" />\cell \row

\itap1\trowd \taflags1 \trgaph108\trleft-108 \trcbpat3 \trbrdrl\brdrnil \trbrdrr\brdrnil 
\clvertalt \clshdrawnil \clwWidth37045\clftsWidth3 \clminw1000 \clbrdrt\brdrnil \clbrdrl\brdrnil \clbrdrb\brdrnil \clbrdrr\brdrnil \clpadl200 \clpadr200 \gaph\cellx4320
\clvertalt \clshdrawnil \clwWidth49061\clftsWidth3 \clbrdrt\brdrnil \clbrdrl\brdrnil \clbrdrb\brdrnil \clbrdrr\brdrnil \clpadl200 \clpadr200 \gaph\cellx8640
\pard\intbl\itap1\pardeftab720\sl400\qr\partightenfactor0
\cf2 \cell 
\pard\intbl\itap1\pardeftab720\sl400\partightenfactor0
\cf2             </Array>\cell \row

\itap1\trowd \taflags1 \trgaph108\trleft-108 \trcbpat3 \trbrdrl\brdrnil \trbrdrr\brdrnil 
\clvertalt \clshdrawnil \clwWidth37045\clftsWidth3 \clminw1000 \clbrdrt\brdrnil \clbrdrl\brdrnil \clbrdrb\brdrnil \clbrdrr\brdrnil \clpadl200 \clpadr200 \gaph\cellx4320
\clvertalt \clshdrawnil \clwWidth49061\clftsWidth3 \clbrdrt\brdrnil \clbrdrl\brdrnil \clbrdrb\brdrnil \clbrdrr\brdrnil \clpadl200 \clpadr200 \gaph\cellx8640
\pard\intbl\itap1\pardeftab720\sl400\qr\partightenfactor0
\cf2 \cell 
\pard\intbl\itap1\pardeftab720\sl400\partightenfactor0
\cf2             <mxPoint x="95" y="842.5" as="sourcePoint" />\cell \row

\itap1\trowd \taflags1 \trgaph108\trleft-108 \trcbpat3 \trbrdrl\brdrnil \trbrdrr\brdrnil 
\clvertalt \clshdrawnil \clwWidth37045\clftsWidth3 \clminw1000 \clbrdrt\brdrnil \clbrdrl\brdrnil \clbrdrb\brdrnil \clbrdrr\brdrnil \clpadl200 \clpadr200 \gaph\cellx4320
\clvertalt \clshdrawnil \clwWidth49061\clftsWidth3 \clbrdrt\brdrnil \clbrdrl\brdrnil \clbrdrb\brdrnil \clbrdrr\brdrnil \clpadl200 \clpadr200 \gaph\cellx8640
\pard\intbl\itap1\pardeftab720\sl400\qr\partightenfactor0
\cf2 \cell 
\pard\intbl\itap1\pardeftab720\sl400\partightenfactor0
\cf2           </mxGeometry>\cell \row

\itap1\trowd \taflags1 \trgaph108\trleft-108 \trcbpat3 \trbrdrl\brdrnil \trbrdrr\brdrnil 
\clvertalt \clshdrawnil \clwWidth37045\clftsWidth3 \clminw1000 \clbrdrt\brdrnil \clbrdrl\brdrnil \clbrdrb\brdrnil \clbrdrr\brdrnil \clpadl200 \clpadr200 \gaph\cellx4320
\clvertalt \clshdrawnil \clwWidth49061\clftsWidth3 \clbrdrt\brdrnil \clbrdrl\brdrnil \clbrdrb\brdrnil \clbrdrr\brdrnil \clpadl200 \clpadr200 \gaph\cellx8640
\pard\intbl\itap1\pardeftab720\sl400\qr\partightenfactor0
\cf2 \cell 
\pard\intbl\itap1\pardeftab720\sl400\partightenfactor0
\cf2         </mxCell>\cell \row

\itap1\trowd \taflags1 \trgaph108\trleft-108 \trcbpat3 \trbrdrl\brdrnil \trbrdrr\brdrnil 
\clvertalt \clshdrawnil \clwWidth37045\clftsWidth3 \clminw1000 \clbrdrt\brdrnil \clbrdrl\brdrnil \clbrdrb\brdrnil \clbrdrr\brdrnil \clpadl200 \clpadr200 \gaph\cellx4320
\clvertalt \clshdrawnil \clwWidth49061\clftsWidth3 \clbrdrt\brdrnil \clbrdrl\brdrnil \clbrdrb\brdrnil \clbrdrr\brdrnil \clpadl200 \clpadr200 \gaph\cellx8640
\pard\intbl\itap1\pardeftab720\sl400\qr\partightenfactor0
\cf2 \cell 
\pard\intbl\itap1\pardeftab720\sl400\partightenfactor0
\cf2         <mxCell id="sPDVBLaamCeaX5s3TwPM-93" style="edgeStyle=orthogonalEdgeStyle;rounded=0;orthogonalLoop=1;jettySize=auto;html=1;entryX=0;entryY=0.5;entryDx=0;entryDy=0;fontSize=20;" parent="WIyWlLk6GJQsqaUBKTNV-1" target="sPDVBLaamCeaX5s3TwPM-34" edge="1">\cell \row

\itap1\trowd \taflags1 \trgaph108\trleft-108 \trcbpat3 \trbrdrl\brdrnil \trbrdrr\brdrnil 
\clvertalt \clshdrawnil \clwWidth37045\clftsWidth3 \clminw1000 \clbrdrt\brdrnil \clbrdrl\brdrnil \clbrdrb\brdrnil \clbrdrr\brdrnil \clpadl200 \clpadr200 \gaph\cellx4320
\clvertalt \clshdrawnil \clwWidth49061\clftsWidth3 \clbrdrt\brdrnil \clbrdrl\brdrnil \clbrdrb\brdrnil \clbrdrr\brdrnil \clpadl200 \clpadr200 \gaph\cellx8640
\pard\intbl\itap1\pardeftab720\sl400\qr\partightenfactor0
\cf2 \cell 
\pard\intbl\itap1\pardeftab720\sl400\partightenfactor0
\cf2           <mxGeometry relative="1" as="geometry">\cell \row

\itap1\trowd \taflags1 \trgaph108\trleft-108 \trcbpat3 \trbrdrl\brdrnil \trbrdrr\brdrnil 
\clvertalt \clshdrawnil \clwWidth37045\clftsWidth3 \clminw1000 \clbrdrt\brdrnil \clbrdrl\brdrnil \clbrdrb\brdrnil \clbrdrr\brdrnil \clpadl200 \clpadr200 \gaph\cellx4320
\clvertalt \clshdrawnil \clwWidth49061\clftsWidth3 \clbrdrt\brdrnil \clbrdrl\brdrnil \clbrdrb\brdrnil \clbrdrr\brdrnil \clpadl200 \clpadr200 \gaph\cellx8640
\pard\intbl\itap1\pardeftab720\sl400\qr\partightenfactor0
\cf2 \cell 
\pard\intbl\itap1\pardeftab720\sl400\partightenfactor0
\cf2             <Array as="points">\cell \row

\itap1\trowd \taflags1 \trgaph108\trleft-108 \trcbpat3 \trbrdrl\brdrnil \trbrdrr\brdrnil 
\clvertalt \clshdrawnil \clwWidth37045\clftsWidth3 \clminw1000 \clbrdrt\brdrnil \clbrdrl\brdrnil \clbrdrb\brdrnil \clbrdrr\brdrnil \clpadl200 \clpadr200 \gaph\cellx4320
\clvertalt \clshdrawnil \clwWidth49061\clftsWidth3 \clbrdrt\brdrnil \clbrdrl\brdrnil \clbrdrb\brdrnil \clbrdrr\brdrnil \clpadl200 \clpadr200 \gaph\cellx8640
\pard\intbl\itap1\pardeftab720\sl400\qr\partightenfactor0
\cf2 \cell 
\pard\intbl\itap1\pardeftab720\sl400\partightenfactor0
\cf2               <mxPoint x="95" y="900" />\cell \row

\itap1\trowd \taflags1 \trgaph108\trleft-108 \trcbpat3 \trbrdrl\brdrnil \trbrdrr\brdrnil 
\clvertalt \clshdrawnil \clwWidth37045\clftsWidth3 \clminw1000 \clbrdrt\brdrnil \clbrdrl\brdrnil \clbrdrb\brdrnil \clbrdrr\brdrnil \clpadl200 \clpadr200 \gaph\cellx4320
\clvertalt \clshdrawnil \clwWidth49061\clftsWidth3 \clbrdrt\brdrnil \clbrdrl\brdrnil \clbrdrb\brdrnil \clbrdrr\brdrnil \clpadl200 \clpadr200 \gaph\cellx8640
\pard\intbl\itap1\pardeftab720\sl400\qr\partightenfactor0
\cf2 \cell 
\pard\intbl\itap1\pardeftab720\sl400\partightenfactor0
\cf2             </Array>\cell \row

\itap1\trowd \taflags1 \trgaph108\trleft-108 \trcbpat3 \trbrdrl\brdrnil \trbrdrr\brdrnil 
\clvertalt \clshdrawnil \clwWidth37045\clftsWidth3 \clminw1000 \clbrdrt\brdrnil \clbrdrl\brdrnil \clbrdrb\brdrnil \clbrdrr\brdrnil \clpadl200 \clpadr200 \gaph\cellx4320
\clvertalt \clshdrawnil \clwWidth49061\clftsWidth3 \clbrdrt\brdrnil \clbrdrl\brdrnil \clbrdrb\brdrnil \clbrdrr\brdrnil \clpadl200 \clpadr200 \gaph\cellx8640
\pard\intbl\itap1\pardeftab720\sl400\qr\partightenfactor0
\cf2 \cell 
\pard\intbl\itap1\pardeftab720\sl400\partightenfactor0
\cf2             <mxPoint x="95" y="842.5" as="sourcePoint" />\cell \row

\itap1\trowd \taflags1 \trgaph108\trleft-108 \trcbpat3 \trbrdrl\brdrnil \trbrdrr\brdrnil 
\clvertalt \clshdrawnil \clwWidth37045\clftsWidth3 \clminw1000 \clbrdrt\brdrnil \clbrdrl\brdrnil \clbrdrb\brdrnil \clbrdrr\brdrnil \clpadl200 \clpadr200 \gaph\cellx4320
\clvertalt \clshdrawnil \clwWidth49061\clftsWidth3 \clbrdrt\brdrnil \clbrdrl\brdrnil \clbrdrb\brdrnil \clbrdrr\brdrnil \clpadl200 \clpadr200 \gaph\cellx8640
\pard\intbl\itap1\pardeftab720\sl400\qr\partightenfactor0
\cf2 \cell 
\pard\intbl\itap1\pardeftab720\sl400\partightenfactor0
\cf2           </mxGeometry>\cell \row

\itap1\trowd \taflags1 \trgaph108\trleft-108 \trcbpat3 \trbrdrl\brdrnil \trbrdrr\brdrnil 
\clvertalt \clshdrawnil \clwWidth37045\clftsWidth3 \clminw1000 \clbrdrt\brdrnil \clbrdrl\brdrnil \clbrdrb\brdrnil \clbrdrr\brdrnil \clpadl200 \clpadr200 \gaph\cellx4320
\clvertalt \clshdrawnil \clwWidth49061\clftsWidth3 \clbrdrt\brdrnil \clbrdrl\brdrnil \clbrdrb\brdrnil \clbrdrr\brdrnil \clpadl200 \clpadr200 \gaph\cellx8640
\pard\intbl\itap1\pardeftab720\sl400\qr\partightenfactor0
\cf2 \cell 
\pard\intbl\itap1\pardeftab720\sl400\partightenfactor0
\cf2         </mxCell>\cell \row

\itap1\trowd \taflags1 \trgaph108\trleft-108 \trcbpat3 \trbrdrl\brdrnil \trbrdrr\brdrnil 
\clvertalt \clshdrawnil \clwWidth37045\clftsWidth3 \clminw1000 \clbrdrt\brdrnil \clbrdrl\brdrnil \clbrdrb\brdrnil \clbrdrr\brdrnil \clpadl200 \clpadr200 \gaph\cellx4320
\clvertalt \clshdrawnil \clwWidth49061\clftsWidth3 \clbrdrt\brdrnil \clbrdrl\brdrnil \clbrdrb\brdrnil \clbrdrr\brdrnil \clpadl200 \clpadr200 \gaph\cellx8640
\pard\intbl\itap1\pardeftab720\sl400\qr\partightenfactor0
\cf2 \cell 
\pard\intbl\itap1\pardeftab720\sl400\partightenfactor0
\cf2         <mxCell id="sPDVBLaamCeaX5s3TwPM-94" style="edgeStyle=orthogonalEdgeStyle;rounded=0;orthogonalLoop=1;jettySize=auto;html=1;entryX=0;entryY=0.5;entryDx=0;entryDy=0;fontSize=20;" parent="WIyWlLk6GJQsqaUBKTNV-1" target="sPDVBLaamCeaX5s3TwPM-37" edge="1">\cell \row

\itap1\trowd \taflags1 \trgaph108\trleft-108 \trcbpat3 \trbrdrl\brdrnil \trbrdrr\brdrnil 
\clvertalt \clshdrawnil \clwWidth37045\clftsWidth3 \clminw1000 \clbrdrt\brdrnil \clbrdrl\brdrnil \clbrdrb\brdrnil \clbrdrr\brdrnil \clpadl200 \clpadr200 \gaph\cellx4320
\clvertalt \clshdrawnil \clwWidth49061\clftsWidth3 \clbrdrt\brdrnil \clbrdrl\brdrnil \clbrdrb\brdrnil \clbrdrr\brdrnil \clpadl200 \clpadr200 \gaph\cellx8640
\pard\intbl\itap1\pardeftab720\sl400\qr\partightenfactor0
\cf2 \cell 
\pard\intbl\itap1\pardeftab720\sl400\partightenfactor0
\cf2           <mxGeometry relative="1" as="geometry">\cell \row

\itap1\trowd \taflags1 \trgaph108\trleft-108 \trcbpat3 \trbrdrl\brdrnil \trbrdrr\brdrnil 
\clvertalt \clshdrawnil \clwWidth37045\clftsWidth3 \clminw1000 \clbrdrt\brdrnil \clbrdrl\brdrnil \clbrdrb\brdrnil \clbrdrr\brdrnil \clpadl200 \clpadr200 \gaph\cellx4320
\clvertalt \clshdrawnil \clwWidth49061\clftsWidth3 \clbrdrt\brdrnil \clbrdrl\brdrnil \clbrdrb\brdrnil \clbrdrr\brdrnil \clpadl200 \clpadr200 \gaph\cellx8640
\pard\intbl\itap1\pardeftab720\sl400\qr\partightenfactor0
\cf2 \cell 
\pard\intbl\itap1\pardeftab720\sl400\partightenfactor0
\cf2             <Array as="points">\cell \row

\itap1\trowd \taflags1 \trgaph108\trleft-108 \trcbpat3 \trbrdrl\brdrnil \trbrdrr\brdrnil 
\clvertalt \clshdrawnil \clwWidth37045\clftsWidth3 \clminw1000 \clbrdrt\brdrnil \clbrdrl\brdrnil \clbrdrb\brdrnil \clbrdrr\brdrnil \clpadl200 \clpadr200 \gaph\cellx4320
\clvertalt \clshdrawnil \clwWidth49061\clftsWidth3 \clbrdrt\brdrnil \clbrdrl\brdrnil \clbrdrb\brdrnil \clbrdrr\brdrnil \clpadl200 \clpadr200 \gaph\cellx8640
\pard\intbl\itap1\pardeftab720\sl400\qr\partightenfactor0
\cf2 \cell 
\pard\intbl\itap1\pardeftab720\sl400\partightenfactor0
\cf2               <mxPoint x="95" y="900" />\cell \row

\itap1\trowd \taflags1 \trgaph108\trleft-108 \trcbpat3 \trbrdrl\brdrnil \trbrdrr\brdrnil 
\clvertalt \clshdrawnil \clwWidth37045\clftsWidth3 \clminw1000 \clbrdrt\brdrnil \clbrdrl\brdrnil \clbrdrb\brdrnil \clbrdrr\brdrnil \clpadl200 \clpadr200 \gaph\cellx4320
\clvertalt \clshdrawnil \clwWidth49061\clftsWidth3 \clbrdrt\brdrnil \clbrdrl\brdrnil \clbrdrb\brdrnil \clbrdrr\brdrnil \clpadl200 \clpadr200 \gaph\cellx8640
\pard\intbl\itap1\pardeftab720\sl400\qr\partightenfactor0
\cf2 \cell 
\pard\intbl\itap1\pardeftab720\sl400\partightenfactor0
\cf2               <mxPoint x="220" y="900" />\cell \row

\itap1\trowd \taflags1 \trgaph108\trleft-108 \trcbpat3 \trbrdrl\brdrnil \trbrdrr\brdrnil 
\clvertalt \clshdrawnil \clwWidth37045\clftsWidth3 \clminw1000 \clbrdrt\brdrnil \clbrdrl\brdrnil \clbrdrb\brdrnil \clbrdrr\brdrnil \clpadl200 \clpadr200 \gaph\cellx4320
\clvertalt \clshdrawnil \clwWidth49061\clftsWidth3 \clbrdrt\brdrnil \clbrdrl\brdrnil \clbrdrb\brdrnil \clbrdrr\brdrnil \clpadl200 \clpadr200 \gaph\cellx8640
\pard\intbl\itap1\pardeftab720\sl400\qr\partightenfactor0
\cf2 \cell 
\pard\intbl\itap1\pardeftab720\sl400\partightenfactor0
\cf2               <mxPoint x="220" y="975" />\cell \row

\itap1\trowd \taflags1 \trgaph108\trleft-108 \trcbpat3 \trbrdrl\brdrnil \trbrdrr\brdrnil 
\clvertalt \clshdrawnil \clwWidth37045\clftsWidth3 \clminw1000 \clbrdrt\brdrnil \clbrdrl\brdrnil \clbrdrb\brdrnil \clbrdrr\brdrnil \clpadl200 \clpadr200 \gaph\cellx4320
\clvertalt \clshdrawnil \clwWidth49061\clftsWidth3 \clbrdrt\brdrnil \clbrdrl\brdrnil \clbrdrb\brdrnil \clbrdrr\brdrnil \clpadl200 \clpadr200 \gaph\cellx8640
\pard\intbl\itap1\pardeftab720\sl400\qr\partightenfactor0
\cf2 \cell 
\pard\intbl\itap1\pardeftab720\sl400\partightenfactor0
\cf2             </Array>\cell \row

\itap1\trowd \taflags1 \trgaph108\trleft-108 \trcbpat3 \trbrdrl\brdrnil \trbrdrr\brdrnil 
\clvertalt \clshdrawnil \clwWidth37045\clftsWidth3 \clminw1000 \clbrdrt\brdrnil \clbrdrl\brdrnil \clbrdrb\brdrnil \clbrdrr\brdrnil \clpadl200 \clpadr200 \gaph\cellx4320
\clvertalt \clshdrawnil \clwWidth49061\clftsWidth3 \clbrdrt\brdrnil \clbrdrl\brdrnil \clbrdrb\brdrnil \clbrdrr\brdrnil \clpadl200 \clpadr200 \gaph\cellx8640
\pard\intbl\itap1\pardeftab720\sl400\qr\partightenfactor0
\cf2 \cell 
\pard\intbl\itap1\pardeftab720\sl400\partightenfactor0
\cf2             <mxPoint x="95" y="842.5" as="sourcePoint" />\cell \row

\itap1\trowd \taflags1 \trgaph108\trleft-108 \trcbpat3 \trbrdrl\brdrnil \trbrdrr\brdrnil 
\clvertalt \clshdrawnil \clwWidth37045\clftsWidth3 \clminw1000 \clbrdrt\brdrnil \clbrdrl\brdrnil \clbrdrb\brdrnil \clbrdrr\brdrnil \clpadl200 \clpadr200 \gaph\cellx4320
\clvertalt \clshdrawnil \clwWidth49061\clftsWidth3 \clbrdrt\brdrnil \clbrdrl\brdrnil \clbrdrb\brdrnil \clbrdrr\brdrnil \clpadl200 \clpadr200 \gaph\cellx8640
\pard\intbl\itap1\pardeftab720\sl400\qr\partightenfactor0
\cf2 \cell 
\pard\intbl\itap1\pardeftab720\sl400\partightenfactor0
\cf2           </mxGeometry>\cell \row

\itap1\trowd \taflags1 \trgaph108\trleft-108 \trcbpat3 \trbrdrl\brdrnil \trbrdrr\brdrnil 
\clvertalt \clshdrawnil \clwWidth37045\clftsWidth3 \clminw1000 \clbrdrt\brdrnil \clbrdrl\brdrnil \clbrdrb\brdrnil \clbrdrr\brdrnil \clpadl200 \clpadr200 \gaph\cellx4320
\clvertalt \clshdrawnil \clwWidth49061\clftsWidth3 \clbrdrt\brdrnil \clbrdrl\brdrnil \clbrdrb\brdrnil \clbrdrr\brdrnil \clpadl200 \clpadr200 \gaph\cellx8640
\pard\intbl\itap1\pardeftab720\sl400\qr\partightenfactor0
\cf2 \cell 
\pard\intbl\itap1\pardeftab720\sl400\partightenfactor0
\cf2         </mxCell>\cell \row

\itap1\trowd \taflags1 \trgaph108\trleft-108 \trcbpat3 \trbrdrl\brdrnil \trbrdrr\brdrnil 
\clvertalt \clshdrawnil \clwWidth37045\clftsWidth3 \clminw1000 \clbrdrt\brdrnil \clbrdrl\brdrnil \clbrdrb\brdrnil \clbrdrr\brdrnil \clpadl200 \clpadr200 \gaph\cellx4320
\clvertalt \clshdrawnil \clwWidth49061\clftsWidth3 \clbrdrt\brdrnil \clbrdrl\brdrnil \clbrdrb\brdrnil \clbrdrr\brdrnil \clpadl200 \clpadr200 \gaph\cellx8640
\pard\intbl\itap1\pardeftab720\sl400\qr\partightenfactor0
\cf2 \cell 
\pard\intbl\itap1\pardeftab720\sl400\partightenfactor0
\cf2         <mxCell id="sPDVBLaamCeaX5s3TwPM-95" style="edgeStyle=orthogonalEdgeStyle;rounded=0;orthogonalLoop=1;jettySize=auto;html=1;entryX=0;entryY=0.5;entryDx=0;entryDy=0;exitX=0.5;exitY=1;exitDx=0;exitDy=0;fontSize=20;" parent="WIyWlLk6GJQsqaUBKTNV-1" source="sPDVBLaamCeaX5s3TwPM-19" target="sPDVBLaamCeaX5s3TwPM-38" edge="1">\cell \row

\itap1\trowd \taflags1 \trgaph108\trleft-108 \trcbpat3 \trbrdrl\brdrnil \trbrdrr\brdrnil 
\clvertalt \clshdrawnil \clwWidth37045\clftsWidth3 \clminw1000 \clbrdrt\brdrnil \clbrdrl\brdrnil \clbrdrb\brdrnil \clbrdrr\brdrnil \clpadl200 \clpadr200 \gaph\cellx4320
\clvertalt \clshdrawnil \clwWidth49061\clftsWidth3 \clbrdrt\brdrnil \clbrdrl\brdrnil \clbrdrb\brdrnil \clbrdrr\brdrnil \clpadl200 \clpadr200 \gaph\cellx8640
\pard\intbl\itap1\pardeftab720\sl400\qr\partightenfactor0
\cf2 \cell 
\pard\intbl\itap1\pardeftab720\sl400\partightenfactor0
\cf2           <mxGeometry relative="1" as="geometry">\cell \row

\itap1\trowd \taflags1 \trgaph108\trleft-108 \trcbpat3 \trbrdrl\brdrnil \trbrdrr\brdrnil 
\clvertalt \clshdrawnil \clwWidth37045\clftsWidth3 \clminw1000 \clbrdrt\brdrnil \clbrdrl\brdrnil \clbrdrb\brdrnil \clbrdrr\brdrnil \clpadl200 \clpadr200 \gaph\cellx4320
\clvertalt \clshdrawnil \clwWidth49061\clftsWidth3 \clbrdrt\brdrnil \clbrdrl\brdrnil \clbrdrb\brdrnil \clbrdrr\brdrnil \clpadl200 \clpadr200 \gaph\cellx8640
\pard\intbl\itap1\pardeftab720\sl400\qr\partightenfactor0
\cf2 \cell 
\pard\intbl\itap1\pardeftab720\sl400\partightenfactor0
\cf2             <Array as="points">\cell \row

\itap1\trowd \taflags1 \trgaph108\trleft-108 \trcbpat3 \trbrdrl\brdrnil \trbrdrr\brdrnil 
\clvertalt \clshdrawnil \clwWidth37045\clftsWidth3 \clminw1000 \clbrdrt\brdrnil \clbrdrl\brdrnil \clbrdrb\brdrnil \clbrdrr\brdrnil \clpadl200 \clpadr200 \gaph\cellx4320
\clvertalt \clshdrawnil \clwWidth49061\clftsWidth3 \clbrdrt\brdrnil \clbrdrl\brdrnil \clbrdrb\brdrnil \clbrdrr\brdrnil \clpadl200 \clpadr200 \gaph\cellx8640
\pard\intbl\itap1\pardeftab720\sl400\qr\partightenfactor0
\cf2 \cell 
\pard\intbl\itap1\pardeftab720\sl400\partightenfactor0
\cf2               <mxPoint x="95" y="800" />\cell \row

\itap1\trowd \taflags1 \trgaph108\trleft-108 \trcbpat3 \trbrdrl\brdrnil \trbrdrr\brdrnil 
\clvertalt \clshdrawnil \clwWidth37045\clftsWidth3 \clminw1000 \clbrdrt\brdrnil \clbrdrl\brdrnil \clbrdrb\brdrnil \clbrdrr\brdrnil \clpadl200 \clpadr200 \gaph\cellx4320
\clvertalt \clshdrawnil \clwWidth49061\clftsWidth3 \clbrdrt\brdrnil \clbrdrl\brdrnil \clbrdrb\brdrnil \clbrdrr\brdrnil \clpadl200 \clpadr200 \gaph\cellx8640
\pard\intbl\itap1\pardeftab720\sl400\qr\partightenfactor0
\cf2 \cell 
\pard\intbl\itap1\pardeftab720\sl400\partightenfactor0
\cf2               <mxPoint x="95" y="900" />\cell \row

\itap1\trowd \taflags1 \trgaph108\trleft-108 \trcbpat3 \trbrdrl\brdrnil \trbrdrr\brdrnil 
\clvertalt \clshdrawnil \clwWidth37045\clftsWidth3 \clminw1000 \clbrdrt\brdrnil \clbrdrl\brdrnil \clbrdrb\brdrnil \clbrdrr\brdrnil \clpadl200 \clpadr200 \gaph\cellx4320
\clvertalt \clshdrawnil \clwWidth49061\clftsWidth3 \clbrdrt\brdrnil \clbrdrl\brdrnil \clbrdrb\brdrnil \clbrdrr\brdrnil \clpadl200 \clpadr200 \gaph\cellx8640
\pard\intbl\itap1\pardeftab720\sl400\qr\partightenfactor0
\cf2 \cell 
\pard\intbl\itap1\pardeftab720\sl400\partightenfactor0
\cf2               <mxPoint x="220" y="900" />\cell \row

\itap1\trowd \taflags1 \trgaph108\trleft-108 \trcbpat3 \trbrdrl\brdrnil \trbrdrr\brdrnil 
\clvertalt \clshdrawnil \clwWidth37045\clftsWidth3 \clminw1000 \clbrdrt\brdrnil \clbrdrl\brdrnil \clbrdrb\brdrnil \clbrdrr\brdrnil \clpadl200 \clpadr200 \gaph\cellx4320
\clvertalt \clshdrawnil \clwWidth49061\clftsWidth3 \clbrdrt\brdrnil \clbrdrl\brdrnil \clbrdrb\brdrnil \clbrdrr\brdrnil \clpadl200 \clpadr200 \gaph\cellx8640
\pard\intbl\itap1\pardeftab720\sl400\qr\partightenfactor0
\cf2 \cell 
\pard\intbl\itap1\pardeftab720\sl400\partightenfactor0
\cf2               <mxPoint x="220" y="1055" />\cell \row

\itap1\trowd \taflags1 \trgaph108\trleft-108 \trcbpat3 \trbrdrl\brdrnil \trbrdrr\brdrnil 
\clvertalt \clshdrawnil \clwWidth37045\clftsWidth3 \clminw1000 \clbrdrt\brdrnil \clbrdrl\brdrnil \clbrdrb\brdrnil \clbrdrr\brdrnil \clpadl200 \clpadr200 \gaph\cellx4320
\clvertalt \clshdrawnil \clwWidth49061\clftsWidth3 \clbrdrt\brdrnil \clbrdrl\brdrnil \clbrdrb\brdrnil \clbrdrr\brdrnil \clpadl200 \clpadr200 \gaph\cellx8640
\pard\intbl\itap1\pardeftab720\sl400\qr\partightenfactor0
\cf2 \cell 
\pard\intbl\itap1\pardeftab720\sl400\partightenfactor0
\cf2             </Array>\cell \row

\itap1\trowd \taflags1 \trgaph108\trleft-108 \trcbpat3 \trbrdrl\brdrnil \trbrdrr\brdrnil 
\clvertalt \clshdrawnil \clwWidth37045\clftsWidth3 \clminw1000 \clbrdrt\brdrnil \clbrdrl\brdrnil \clbrdrb\brdrnil \clbrdrr\brdrnil \clpadl200 \clpadr200 \gaph\cellx4320
\clvertalt \clshdrawnil \clwWidth49061\clftsWidth3 \clbrdrt\brdrnil \clbrdrl\brdrnil \clbrdrb\brdrnil \clbrdrr\brdrnil \clpadl200 \clpadr200 \gaph\cellx8640
\pard\intbl\itap1\pardeftab720\sl400\qr\partightenfactor0
\cf2 \cell 
\pard\intbl\itap1\pardeftab720\sl400\partightenfactor0
\cf2             <mxPoint x="95" y="842.5" as="sourcePoint" />\cell \row

\itap1\trowd \taflags1 \trgaph108\trleft-108 \trcbpat3 \trbrdrl\brdrnil \trbrdrr\brdrnil 
\clvertalt \clshdrawnil \clwWidth37045\clftsWidth3 \clminw1000 \clbrdrt\brdrnil \clbrdrl\brdrnil \clbrdrb\brdrnil \clbrdrr\brdrnil \clpadl200 \clpadr200 \gaph\cellx4320
\clvertalt \clshdrawnil \clwWidth49061\clftsWidth3 \clbrdrt\brdrnil \clbrdrl\brdrnil \clbrdrb\brdrnil \clbrdrr\brdrnil \clpadl200 \clpadr200 \gaph\cellx8640
\pard\intbl\itap1\pardeftab720\sl400\qr\partightenfactor0
\cf2 \cell 
\pard\intbl\itap1\pardeftab720\sl400\partightenfactor0
\cf2           </mxGeometry>\cell \row

\itap1\trowd \taflags1 \trgaph108\trleft-108 \trcbpat3 \trbrdrl\brdrnil \trbrdrr\brdrnil 
\clvertalt \clshdrawnil \clwWidth37045\clftsWidth3 \clminw1000 \clbrdrt\brdrnil \clbrdrl\brdrnil \clbrdrb\brdrnil \clbrdrr\brdrnil \clpadl200 \clpadr200 \gaph\cellx4320
\clvertalt \clshdrawnil \clwWidth49061\clftsWidth3 \clbrdrt\brdrnil \clbrdrl\brdrnil \clbrdrb\brdrnil \clbrdrr\brdrnil \clpadl200 \clpadr200 \gaph\cellx8640
\pard\intbl\itap1\pardeftab720\sl400\qr\partightenfactor0
\cf2 \cell 
\pard\intbl\itap1\pardeftab720\sl400\partightenfactor0
\cf2         </mxCell>\cell \row

\itap1\trowd \taflags1 \trgaph108\trleft-108 \trcbpat3 \trbrdrl\brdrnil \trbrdrr\brdrnil 
\clvertalt \clshdrawnil \clwWidth37045\clftsWidth3 \clminw1000 \clbrdrt\brdrnil \clbrdrl\brdrnil \clbrdrb\brdrnil \clbrdrr\brdrnil \clpadl200 \clpadr200 \gaph\cellx4320
\clvertalt \clshdrawnil \clwWidth49061\clftsWidth3 \clbrdrt\brdrnil \clbrdrl\brdrnil \clbrdrb\brdrnil \clbrdrr\brdrnil \clpadl200 \clpadr200 \gaph\cellx8640
\pard\intbl\itap1\pardeftab720\sl400\qr\partightenfactor0
\cf2 \cell 
\pard\intbl\itap1\pardeftab720\sl400\partightenfactor0
\cf2         <mxCell id="sPDVBLaamCeaX5s3TwPM-45" style="edgeStyle=orthogonalEdgeStyle;rounded=0;orthogonalLoop=1;jettySize=auto;html=1;entryX=0;entryY=0.5;entryDx=0;entryDy=0;fontSize=20;" parent="WIyWlLk6GJQsqaUBKTNV-1" source="sPDVBLaamCeaX5s3TwPM-32" target="sPDVBLaamCeaX5s3TwPM-2" edge="1">\cell \row

\itap1\trowd \taflags1 \trgaph108\trleft-108 \trcbpat3 \trbrdrl\brdrnil \trbrdrr\brdrnil 
\clvertalt \clshdrawnil \clwWidth37045\clftsWidth3 \clminw1000 \clbrdrt\brdrnil \clbrdrl\brdrnil \clbrdrb\brdrnil \clbrdrr\brdrnil \clpadl200 \clpadr200 \gaph\cellx4320
\clvertalt \clshdrawnil \clwWidth49061\clftsWidth3 \clbrdrt\brdrnil \clbrdrl\brdrnil \clbrdrb\brdrnil \clbrdrr\brdrnil \clpadl200 \clpadr200 \gaph\cellx8640
\pard\intbl\itap1\pardeftab720\sl400\qr\partightenfactor0
\cf2 \cell 
\pard\intbl\itap1\pardeftab720\sl400\partightenfactor0
\cf2           <mxGeometry relative="1" as="geometry" />\cell \row

\itap1\trowd \taflags1 \trgaph108\trleft-108 \trcbpat3 \trbrdrl\brdrnil \trbrdrr\brdrnil 
\clvertalt \clshdrawnil \clwWidth37045\clftsWidth3 \clminw1000 \clbrdrt\brdrnil \clbrdrl\brdrnil \clbrdrb\brdrnil \clbrdrr\brdrnil \clpadl200 \clpadr200 \gaph\cellx4320
\clvertalt \clshdrawnil \clwWidth49061\clftsWidth3 \clbrdrt\brdrnil \clbrdrl\brdrnil \clbrdrb\brdrnil \clbrdrr\brdrnil \clpadl200 \clpadr200 \gaph\cellx8640
\pard\intbl\itap1\pardeftab720\sl400\qr\partightenfactor0
\cf2 \cell 
\pard\intbl\itap1\pardeftab720\sl400\partightenfactor0
\cf2         </mxCell>\cell \row

\itap1\trowd \taflags1 \trgaph108\trleft-108 \trcbpat3 \trbrdrl\brdrnil \trbrdrr\brdrnil 
\clvertalt \clshdrawnil \clwWidth37045\clftsWidth3 \clminw1000 \clbrdrt\brdrnil \clbrdrl\brdrnil \clbrdrb\brdrnil \clbrdrr\brdrnil \clpadl200 \clpadr200 \gaph\cellx4320
\clvertalt \clshdrawnil \clwWidth49061\clftsWidth3 \clbrdrt\brdrnil \clbrdrl\brdrnil \clbrdrb\brdrnil \clbrdrr\brdrnil \clpadl200 \clpadr200 \gaph\cellx8640
\pard\intbl\itap1\pardeftab720\sl400\qr\partightenfactor0
\cf2 \cell 
\pard\intbl\itap1\pardeftab720\sl400\partightenfactor0
\cf2         <mxCell id="sPDVBLaamCeaX5s3TwPM-32" value="FiLM" style="rounded=1;whiteSpace=wrap;html=1;fillColor=#d5e8d4;strokeColor=#82b366;fontSize=20;" parent="WIyWlLk6GJQsqaUBKTNV-1" vertex="1">\cell \row

\itap1\trowd \taflags1 \trgaph108\trleft-108 \trcbpat3 \trbrdrl\brdrnil \trbrdrr\brdrnil 
\clvertalt \clshdrawnil \clwWidth37045\clftsWidth3 \clminw1000 \clbrdrt\brdrnil \clbrdrl\brdrnil \clbrdrb\brdrnil \clbrdrr\brdrnil \clpadl200 \clpadr200 \gaph\cellx4320
\clvertalt \clshdrawnil \clwWidth49061\clftsWidth3 \clbrdrt\brdrnil \clbrdrl\brdrnil \clbrdrb\brdrnil \clbrdrr\brdrnil \clpadl200 \clpadr200 \gaph\cellx8640
\pard\intbl\itap1\pardeftab720\sl400\qr\partightenfactor0
\cf2 \cell 
\pard\intbl\itap1\pardeftab720\sl400\partightenfactor0
\cf2           <mxGeometry x="275" y="670" width="50" height="20" as="geometry" />\cell \row

\itap1\trowd \taflags1 \trgaph108\trleft-108 \trcbpat3 \trbrdrl\brdrnil \trbrdrr\brdrnil 
\clvertalt \clshdrawnil \clwWidth37045\clftsWidth3 \clminw1000 \clbrdrt\brdrnil \clbrdrl\brdrnil \clbrdrb\brdrnil \clbrdrr\brdrnil \clpadl200 \clpadr200 \gaph\cellx4320
\clvertalt \clshdrawnil \clwWidth49061\clftsWidth3 \clbrdrt\brdrnil \clbrdrl\brdrnil \clbrdrb\brdrnil \clbrdrr\brdrnil \clpadl200 \clpadr200 \gaph\cellx8640
\pard\intbl\itap1\pardeftab720\sl400\qr\partightenfactor0
\cf2 \cell 
\pard\intbl\itap1\pardeftab720\sl400\partightenfactor0
\cf2         </mxCell>\cell \row

\itap1\trowd \taflags1 \trgaph108\trleft-108 \trcbpat3 \trbrdrl\brdrnil \trbrdrr\brdrnil 
\clvertalt \clshdrawnil \clwWidth37045\clftsWidth3 \clminw1000 \clbrdrt\brdrnil \clbrdrl\brdrnil \clbrdrb\brdrnil \clbrdrr\brdrnil \clpadl200 \clpadr200 \gaph\cellx4320
\clvertalt \clshdrawnil \clwWidth49061\clftsWidth3 \clbrdrt\brdrnil \clbrdrl\brdrnil \clbrdrb\brdrnil \clbrdrr\brdrnil \clpadl200 \clpadr200 \gaph\cellx8640
\pard\intbl\itap1\pardeftab720\sl400\qr\partightenfactor0
\cf2 \cell 
\pard\intbl\itap1\pardeftab720\sl400\partightenfactor0
\cf2         <mxCell id="sPDVBLaamCeaX5s3TwPM-48" style="edgeStyle=orthogonalEdgeStyle;rounded=0;orthogonalLoop=1;jettySize=auto;html=1;fontSize=20;" parent="WIyWlLk6GJQsqaUBKTNV-1" source="sPDVBLaamCeaX5s3TwPM-34" target="sPDVBLaamCeaX5s3TwPM-12" edge="1">\cell \row

\itap1\trowd \taflags1 \trgaph108\trleft-108 \trcbpat3 \trbrdrl\brdrnil \trbrdrr\brdrnil 
\clvertalt \clshdrawnil \clwWidth37045\clftsWidth3 \clminw1000 \clbrdrt\brdrnil \clbrdrl\brdrnil \clbrdrb\brdrnil \clbrdrr\brdrnil \clpadl200 \clpadr200 \gaph\cellx4320
\clvertalt \clshdrawnil \clwWidth49061\clftsWidth3 \clbrdrt\brdrnil \clbrdrl\brdrnil \clbrdrb\brdrnil \clbrdrr\brdrnil \clpadl200 \clpadr200 \gaph\cellx8640
\pard\intbl\itap1\pardeftab720\sl400\qr\partightenfactor0
\cf2 \cell 
\pard\intbl\itap1\pardeftab720\sl400\partightenfactor0
\cf2           <mxGeometry relative="1" as="geometry" />\cell \row

\itap1\trowd \taflags1 \trgaph108\trleft-108 \trcbpat3 \trbrdrl\brdrnil \trbrdrr\brdrnil 
\clvertalt \clshdrawnil \clwWidth37045\clftsWidth3 \clminw1000 \clbrdrt\brdrnil \clbrdrl\brdrnil \clbrdrb\brdrnil \clbrdrr\brdrnil \clpadl200 \clpadr200 \gaph\cellx4320
\clvertalt \clshdrawnil \clwWidth49061\clftsWidth3 \clbrdrt\brdrnil \clbrdrl\brdrnil \clbrdrb\brdrnil \clbrdrr\brdrnil \clpadl200 \clpadr200 \gaph\cellx8640
\pard\intbl\itap1\pardeftab720\sl400\qr\partightenfactor0
\cf2 \cell 
\pard\intbl\itap1\pardeftab720\sl400\partightenfactor0
\cf2         </mxCell>\cell \row

\itap1\trowd \taflags1 \trgaph108\trleft-108 \trcbpat3 \trbrdrl\brdrnil \trbrdrr\brdrnil 
\clvertalt \clshdrawnil \clwWidth37045\clftsWidth3 \clminw1000 \clbrdrt\brdrnil \clbrdrl\brdrnil \clbrdrb\brdrnil \clbrdrr\brdrnil \clpadl200 \clpadr200 \gaph\cellx4320
\clvertalt \clshdrawnil \clwWidth49061\clftsWidth3 \clbrdrt\brdrnil \clbrdrl\brdrnil \clbrdrb\brdrnil \clbrdrr\brdrnil \clpadl200 \clpadr200 \gaph\cellx8640
\pard\intbl\itap1\pardeftab720\sl400\qr\partightenfactor0
\cf2 \cell 
\pard\intbl\itap1\pardeftab720\sl400\partightenfactor0
\cf2         <mxCell id="sPDVBLaamCeaX5s3TwPM-34" value="FiLM" style="rounded=1;whiteSpace=wrap;html=1;fillColor=#d5e8d4;strokeColor=#82b366;fontSize=20;" parent="WIyWlLk6GJQsqaUBKTNV-1" vertex="1">\cell \row

\itap1\trowd \taflags1 \trgaph108\trleft-108 \trcbpat3 \trbrdrl\brdrnil \trbrdrr\brdrnil 
\clvertalt \clshdrawnil \clwWidth37045\clftsWidth3 \clminw1000 \clbrdrt\brdrnil \clbrdrl\brdrnil \clbrdrb\brdrnil \clbrdrr\brdrnil \clpadl200 \clpadr200 \gaph\cellx4320
\clvertalt \clshdrawnil \clwWidth49061\clftsWidth3 \clbrdrt\brdrnil \clbrdrl\brdrnil \clbrdrb\brdrnil \clbrdrr\brdrnil \clpadl200 \clpadr200 \gaph\cellx8640
\pard\intbl\itap1\pardeftab720\sl400\qr\partightenfactor0
\cf2 \cell 
\pard\intbl\itap1\pardeftab720\sl400\partightenfactor0
\cf2           <mxGeometry x="275" y="890" width="50" height="20" as="geometry" />\cell \row

\itap1\trowd \taflags1 \trgaph108\trleft-108 \trcbpat3 \trbrdrl\brdrnil \trbrdrr\brdrnil 
\clvertalt \clshdrawnil \clwWidth37045\clftsWidth3 \clminw1000 \clbrdrt\brdrnil \clbrdrl\brdrnil \clbrdrb\brdrnil \clbrdrr\brdrnil \clpadl200 \clpadr200 \gaph\cellx4320
\clvertalt \clshdrawnil \clwWidth49061\clftsWidth3 \clbrdrt\brdrnil \clbrdrl\brdrnil \clbrdrb\brdrnil \clbrdrr\brdrnil \clpadl200 \clpadr200 \gaph\cellx8640
\pard\intbl\itap1\pardeftab720\sl400\qr\partightenfactor0
\cf2 \cell 
\pard\intbl\itap1\pardeftab720\sl400\partightenfactor0
\cf2         </mxCell>\cell \row

\itap1\trowd \taflags1 \trgaph108\trleft-108 \trcbpat3 \trbrdrl\brdrnil \trbrdrr\brdrnil 
\clvertalt \clshdrawnil \clwWidth37045\clftsWidth3 \clminw1000 \clbrdrt\brdrnil \clbrdrl\brdrnil \clbrdrb\brdrnil \clbrdrr\brdrnil \clpadl200 \clpadr200 \gaph\cellx4320
\clvertalt \clshdrawnil \clwWidth49061\clftsWidth3 \clbrdrt\brdrnil \clbrdrl\brdrnil \clbrdrb\brdrnil \clbrdrr\brdrnil \clpadl200 \clpadr200 \gaph\cellx8640
\pard\intbl\itap1\pardeftab720\sl400\qr\partightenfactor0
\cf2 \cell 
\pard\intbl\itap1\pardeftab720\sl400\partightenfactor0
\cf2         <mxCell id="sPDVBLaamCeaX5s3TwPM-47" style="edgeStyle=orthogonalEdgeStyle;rounded=0;orthogonalLoop=1;jettySize=auto;html=1;fontSize=20;" parent="WIyWlLk6GJQsqaUBKTNV-1" source="sPDVBLaamCeaX5s3TwPM-35" target="sPDVBLaamCeaX5s3TwPM-8" edge="1">\cell \row

\itap1\trowd \taflags1 \trgaph108\trleft-108 \trcbpat3 \trbrdrl\brdrnil \trbrdrr\brdrnil 
\clvertalt \clshdrawnil \clwWidth37045\clftsWidth3 \clminw1000 \clbrdrt\brdrnil \clbrdrl\brdrnil \clbrdrb\brdrnil \clbrdrr\brdrnil \clpadl200 \clpadr200 \gaph\cellx4320
\clvertalt \clshdrawnil \clwWidth49061\clftsWidth3 \clbrdrt\brdrnil \clbrdrl\brdrnil \clbrdrb\brdrnil \clbrdrr\brdrnil \clpadl200 \clpadr200 \gaph\cellx8640
\pard\intbl\itap1\pardeftab720\sl400\qr\partightenfactor0
\cf2 \cell 
\pard\intbl\itap1\pardeftab720\sl400\partightenfactor0
\cf2           <mxGeometry relative="1" as="geometry" />\cell \row

\itap1\trowd \taflags1 \trgaph108\trleft-108 \trcbpat3 \trbrdrl\brdrnil \trbrdrr\brdrnil 
\clvertalt \clshdrawnil \clwWidth37045\clftsWidth3 \clminw1000 \clbrdrt\brdrnil \clbrdrl\brdrnil \clbrdrb\brdrnil \clbrdrr\brdrnil \clpadl200 \clpadr200 \gaph\cellx4320
\clvertalt \clshdrawnil \clwWidth49061\clftsWidth3 \clbrdrt\brdrnil \clbrdrl\brdrnil \clbrdrb\brdrnil \clbrdrr\brdrnil \clpadl200 \clpadr200 \gaph\cellx8640
\pard\intbl\itap1\pardeftab720\sl400\qr\partightenfactor0
\cf2 \cell 
\pard\intbl\itap1\pardeftab720\sl400\partightenfactor0
\cf2         </mxCell>\cell \row

\itap1\trowd \taflags1 \trgaph108\trleft-108 \trcbpat3 \trbrdrl\brdrnil \trbrdrr\brdrnil 
\clvertalt \clshdrawnil \clwWidth37045\clftsWidth3 \clminw1000 \clbrdrt\brdrnil \clbrdrl\brdrnil \clbrdrb\brdrnil \clbrdrr\brdrnil \clpadl200 \clpadr200 \gaph\cellx4320
\clvertalt \clshdrawnil \clwWidth49061\clftsWidth3 \clbrdrt\brdrnil \clbrdrl\brdrnil \clbrdrb\brdrnil \clbrdrr\brdrnil \clpadl200 \clpadr200 \gaph\cellx8640
\pard\intbl\itap1\pardeftab720\sl400\qr\partightenfactor0
\cf2 \cell 
\pard\intbl\itap1\pardeftab720\sl400\partightenfactor0
\cf2         <mxCell id="sPDVBLaamCeaX5s3TwPM-35" value="FiLM" style="rounded=1;whiteSpace=wrap;html=1;fillColor=#d5e8d4;strokeColor=#82b366;fontSize=20;" parent="WIyWlLk6GJQsqaUBKTNV-1" vertex="1">\cell \row

\itap1\trowd \taflags1 \trgaph108\trleft-108 \trcbpat3 \trbrdrl\brdrnil \trbrdrr\brdrnil 
\clvertalt \clshdrawnil \clwWidth37045\clftsWidth3 \clminw1000 \clbrdrt\brdrnil \clbrdrl\brdrnil \clbrdrb\brdrnil \clbrdrr\brdrnil \clpadl200 \clpadr200 \gaph\cellx4320
\clvertalt \clshdrawnil \clwWidth49061\clftsWidth3 \clbrdrt\brdrnil \clbrdrl\brdrnil \clbrdrb\brdrnil \clbrdrr\brdrnil \clpadl200 \clpadr200 \gaph\cellx8640
\pard\intbl\itap1\pardeftab720\sl400\qr\partightenfactor0
\cf2 \cell 
\pard\intbl\itap1\pardeftab720\sl400\partightenfactor0
\cf2           <mxGeometry x="275" y="815" width="50" height="20" as="geometry" />\cell \row

\itap1\trowd \taflags1 \trgaph108\trleft-108 \trcbpat3 \trbrdrl\brdrnil \trbrdrr\brdrnil 
\clvertalt \clshdrawnil \clwWidth37045\clftsWidth3 \clminw1000 \clbrdrt\brdrnil \clbrdrl\brdrnil \clbrdrb\brdrnil \clbrdrr\brdrnil \clpadl200 \clpadr200 \gaph\cellx4320
\clvertalt \clshdrawnil \clwWidth49061\clftsWidth3 \clbrdrt\brdrnil \clbrdrl\brdrnil \clbrdrb\brdrnil \clbrdrr\brdrnil \clpadl200 \clpadr200 \gaph\cellx8640
\pard\intbl\itap1\pardeftab720\sl400\qr\partightenfactor0
\cf2 \cell 
\pard\intbl\itap1\pardeftab720\sl400\partightenfactor0
\cf2         </mxCell>\cell \row

\itap1\trowd \taflags1 \trgaph108\trleft-108 \trcbpat3 \trbrdrl\brdrnil \trbrdrr\brdrnil 
\clvertalt \clshdrawnil \clwWidth37045\clftsWidth3 \clminw1000 \clbrdrt\brdrnil \clbrdrl\brdrnil \clbrdrb\brdrnil \clbrdrr\brdrnil \clpadl200 \clpadr200 \gaph\cellx4320
\clvertalt \clshdrawnil \clwWidth49061\clftsWidth3 \clbrdrt\brdrnil \clbrdrl\brdrnil \clbrdrb\brdrnil \clbrdrr\brdrnil \clpadl200 \clpadr200 \gaph\cellx8640
\pard\intbl\itap1\pardeftab720\sl400\qr\partightenfactor0
\cf2 \cell 
\pard\intbl\itap1\pardeftab720\sl400\partightenfactor0
\cf2         <mxCell id="sPDVBLaamCeaX5s3TwPM-46" style="edgeStyle=orthogonalEdgeStyle;rounded=0;orthogonalLoop=1;jettySize=auto;html=1;fontSize=20;" parent="WIyWlLk6GJQsqaUBKTNV-1" source="sPDVBLaamCeaX5s3TwPM-36" target="sPDVBLaamCeaX5s3TwPM-4" edge="1">\cell \row

\itap1\trowd \taflags1 \trgaph108\trleft-108 \trcbpat3 \trbrdrl\brdrnil \trbrdrr\brdrnil 
\clvertalt \clshdrawnil \clwWidth37045\clftsWidth3 \clminw1000 \clbrdrt\brdrnil \clbrdrl\brdrnil \clbrdrb\brdrnil \clbrdrr\brdrnil \clpadl200 \clpadr200 \gaph\cellx4320
\clvertalt \clshdrawnil \clwWidth49061\clftsWidth3 \clbrdrt\brdrnil \clbrdrl\brdrnil \clbrdrb\brdrnil \clbrdrr\brdrnil \clpadl200 \clpadr200 \gaph\cellx8640
\pard\intbl\itap1\pardeftab720\sl400\qr\partightenfactor0
\cf2 \cell 
\pard\intbl\itap1\pardeftab720\sl400\partightenfactor0
\cf2           <mxGeometry relative="1" as="geometry" />\cell \row

\itap1\trowd \taflags1 \trgaph108\trleft-108 \trcbpat3 \trbrdrl\brdrnil \trbrdrr\brdrnil 
\clvertalt \clshdrawnil \clwWidth37045\clftsWidth3 \clminw1000 \clbrdrt\brdrnil \clbrdrl\brdrnil \clbrdrb\brdrnil \clbrdrr\brdrnil \clpadl200 \clpadr200 \gaph\cellx4320
\clvertalt \clshdrawnil \clwWidth49061\clftsWidth3 \clbrdrt\brdrnil \clbrdrl\brdrnil \clbrdrb\brdrnil \clbrdrr\brdrnil \clpadl200 \clpadr200 \gaph\cellx8640
\pard\intbl\itap1\pardeftab720\sl400\qr\partightenfactor0
\cf2 \cell 
\pard\intbl\itap1\pardeftab720\sl400\partightenfactor0
\cf2         </mxCell>\cell \row

\itap1\trowd \taflags1 \trgaph108\trleft-108 \trcbpat3 \trbrdrl\brdrnil \trbrdrr\brdrnil 
\clvertalt \clshdrawnil \clwWidth37045\clftsWidth3 \clminw1000 \clbrdrt\brdrnil \clbrdrl\brdrnil \clbrdrb\brdrnil \clbrdrr\brdrnil \clpadl200 \clpadr200 \gaph\cellx4320
\clvertalt \clshdrawnil \clwWidth49061\clftsWidth3 \clbrdrt\brdrnil \clbrdrl\brdrnil \clbrdrb\brdrnil \clbrdrr\brdrnil \clpadl200 \clpadr200 \gaph\cellx8640
\pard\intbl\itap1\pardeftab720\sl400\qr\partightenfactor0
\cf2 \cell 
\pard\intbl\itap1\pardeftab720\sl400\partightenfactor0
\cf2         <mxCell id="sPDVBLaamCeaX5s3TwPM-36" value="FiLM" style="rounded=1;whiteSpace=wrap;html=1;fillColor=#d5e8d4;strokeColor=#82b366;fontSize=20;" parent="WIyWlLk6GJQsqaUBKTNV-1" vertex="1">\cell \row

\itap1\trowd \taflags1 \trgaph108\trleft-108 \trcbpat3 \trbrdrl\brdrnil \trbrdrr\brdrnil 
\clvertalt \clshdrawnil \clwWidth37045\clftsWidth3 \clminw1000 \clbrdrt\brdrnil \clbrdrl\brdrnil \clbrdrb\brdrnil \clbrdrr\brdrnil \clpadl200 \clpadr200 \gaph\cellx4320
\clvertalt \clshdrawnil \clwWidth49061\clftsWidth3 \clbrdrt\brdrnil \clbrdrl\brdrnil \clbrdrb\brdrnil \clbrdrr\brdrnil \clpadl200 \clpadr200 \gaph\cellx8640
\pard\intbl\itap1\pardeftab720\sl400\qr\partightenfactor0
\cf2 \cell 
\pard\intbl\itap1\pardeftab720\sl400\partightenfactor0
\cf2           <mxGeometry x="275" y="740" width="50" height="20" as="geometry" />\cell \row

\itap1\trowd \taflags1 \trgaph108\trleft-108 \trcbpat3 \trbrdrl\brdrnil \trbrdrr\brdrnil 
\clvertalt \clshdrawnil \clwWidth37045\clftsWidth3 \clminw1000 \clbrdrt\brdrnil \clbrdrl\brdrnil \clbrdrb\brdrnil \clbrdrr\brdrnil \clpadl200 \clpadr200 \gaph\cellx4320
\clvertalt \clshdrawnil \clwWidth49061\clftsWidth3 \clbrdrt\brdrnil \clbrdrl\brdrnil \clbrdrb\brdrnil \clbrdrr\brdrnil \clpadl200 \clpadr200 \gaph\cellx8640
\pard\intbl\itap1\pardeftab720\sl400\qr\partightenfactor0
\cf2 \cell 
\pard\intbl\itap1\pardeftab720\sl400\partightenfactor0
\cf2         </mxCell>\cell \row

\itap1\trowd \taflags1 \trgaph108\trleft-108 \trcbpat3 \trbrdrl\brdrnil \trbrdrr\brdrnil 
\clvertalt \clshdrawnil \clwWidth37045\clftsWidth3 \clminw1000 \clbrdrt\brdrnil \clbrdrl\brdrnil \clbrdrb\brdrnil \clbrdrr\brdrnil \clpadl200 \clpadr200 \gaph\cellx4320
\clvertalt \clshdrawnil \clwWidth49061\clftsWidth3 \clbrdrt\brdrnil \clbrdrl\brdrnil \clbrdrb\brdrnil \clbrdrr\brdrnil \clpadl200 \clpadr200 \gaph\cellx8640
\pard\intbl\itap1\pardeftab720\sl400\qr\partightenfactor0
\cf2 \cell 
\pard\intbl\itap1\pardeftab720\sl400\partightenfactor0
\cf2         <mxCell id="sPDVBLaamCeaX5s3TwPM-49" style="edgeStyle=orthogonalEdgeStyle;rounded=0;orthogonalLoop=1;jettySize=auto;html=1;entryX=0;entryY=0.5;entryDx=0;entryDy=0;fontSize=20;" parent="WIyWlLk6GJQsqaUBKTNV-1" source="sPDVBLaamCeaX5s3TwPM-37" target="sPDVBLaamCeaX5s3TwPM-14" edge="1">\cell \row

\itap1\trowd \taflags1 \trgaph108\trleft-108 \trcbpat3 \trbrdrl\brdrnil \trbrdrr\brdrnil 
\clvertalt \clshdrawnil \clwWidth37045\clftsWidth3 \clminw1000 \clbrdrt\brdrnil \clbrdrl\brdrnil \clbrdrb\brdrnil \clbrdrr\brdrnil \clpadl200 \clpadr200 \gaph\cellx4320
\clvertalt \clshdrawnil \clwWidth49061\clftsWidth3 \clbrdrt\brdrnil \clbrdrl\brdrnil \clbrdrb\brdrnil \clbrdrr\brdrnil \clpadl200 \clpadr200 \gaph\cellx8640
\pard\intbl\itap1\pardeftab720\sl400\qr\partightenfactor0
\cf2 \cell 
\pard\intbl\itap1\pardeftab720\sl400\partightenfactor0
\cf2           <mxGeometry relative="1" as="geometry" />\cell \row

\itap1\trowd \taflags1 \trgaph108\trleft-108 \trcbpat3 \trbrdrl\brdrnil \trbrdrr\brdrnil 
\clvertalt \clshdrawnil \clwWidth37045\clftsWidth3 \clminw1000 \clbrdrt\brdrnil \clbrdrl\brdrnil \clbrdrb\brdrnil \clbrdrr\brdrnil \clpadl200 \clpadr200 \gaph\cellx4320
\clvertalt \clshdrawnil \clwWidth49061\clftsWidth3 \clbrdrt\brdrnil \clbrdrl\brdrnil \clbrdrb\brdrnil \clbrdrr\brdrnil \clpadl200 \clpadr200 \gaph\cellx8640
\pard\intbl\itap1\pardeftab720\sl400\qr\partightenfactor0
\cf2 \cell 
\pard\intbl\itap1\pardeftab720\sl400\partightenfactor0
\cf2         </mxCell>\cell \row

\itap1\trowd \taflags1 \trgaph108\trleft-108 \trcbpat3 \trbrdrl\brdrnil \trbrdrr\brdrnil 
\clvertalt \clshdrawnil \clwWidth37045\clftsWidth3 \clminw1000 \clbrdrt\brdrnil \clbrdrl\brdrnil \clbrdrb\brdrnil \clbrdrr\brdrnil \clpadl200 \clpadr200 \gaph\cellx4320
\clvertalt \clshdrawnil \clwWidth49061\clftsWidth3 \clbrdrt\brdrnil \clbrdrl\brdrnil \clbrdrb\brdrnil \clbrdrr\brdrnil \clpadl200 \clpadr200 \gaph\cellx8640
\pard\intbl\itap1\pardeftab720\sl400\qr\partightenfactor0
\cf2 \cell 
\pard\intbl\itap1\pardeftab720\sl400\partightenfactor0
\cf2         <mxCell id="sPDVBLaamCeaX5s3TwPM-37" value="FiLM" style="rounded=1;whiteSpace=wrap;html=1;fillColor=#d5e8d4;strokeColor=#82b366;fontSize=20;" parent="WIyWlLk6GJQsqaUBKTNV-1" vertex="1">\cell \row

\itap1\trowd \taflags1 \trgaph108\trleft-108 \trcbpat3 \trbrdrl\brdrnil \trbrdrr\brdrnil 
\clvertalt \clshdrawnil \clwWidth37045\clftsWidth3 \clminw1000 \clbrdrt\brdrnil \clbrdrl\brdrnil \clbrdrb\brdrnil \clbrdrr\brdrnil \clpadl200 \clpadr200 \gaph\cellx4320
\clvertalt \clshdrawnil \clwWidth49061\clftsWidth3 \clbrdrt\brdrnil \clbrdrl\brdrnil \clbrdrb\brdrnil \clbrdrr\brdrnil \clpadl200 \clpadr200 \gaph\cellx8640
\pard\intbl\itap1\pardeftab720\sl400\qr\partightenfactor0
\cf2 \cell 
\pard\intbl\itap1\pardeftab720\sl400\partightenfactor0
\cf2           <mxGeometry x="275" y="965" width="50" height="20" as="geometry" />\cell \row

\itap1\trowd \taflags1 \trgaph108\trleft-108 \trcbpat3 \trbrdrl\brdrnil \trbrdrr\brdrnil 
\clvertalt \clshdrawnil \clwWidth37045\clftsWidth3 \clminw1000 \clbrdrt\brdrnil \clbrdrl\brdrnil \clbrdrb\brdrnil \clbrdrr\brdrnil \clpadl200 \clpadr200 \gaph\cellx4320
\clvertalt \clshdrawnil \clwWidth49061\clftsWidth3 \clbrdrt\brdrnil \clbrdrl\brdrnil \clbrdrb\brdrnil \clbrdrr\brdrnil \clpadl200 \clpadr200 \gaph\cellx8640
\pard\intbl\itap1\pardeftab720\sl400\qr\partightenfactor0
\cf2 \cell 
\pard\intbl\itap1\pardeftab720\sl400\partightenfactor0
\cf2         </mxCell>\cell \row

\itap1\trowd \taflags1 \trgaph108\trleft-108 \trcbpat3 \trbrdrl\brdrnil \trbrdrr\brdrnil 
\clvertalt \clshdrawnil \clwWidth37045\clftsWidth3 \clminw1000 \clbrdrt\brdrnil \clbrdrl\brdrnil \clbrdrb\brdrnil \clbrdrr\brdrnil \clpadl200 \clpadr200 \gaph\cellx4320
\clvertalt \clshdrawnil \clwWidth49061\clftsWidth3 \clbrdrt\brdrnil \clbrdrl\brdrnil \clbrdrb\brdrnil \clbrdrr\brdrnil \clpadl200 \clpadr200 \gaph\cellx8640
\pard\intbl\itap1\pardeftab720\sl400\qr\partightenfactor0
\cf2 \cell 
\pard\intbl\itap1\pardeftab720\sl400\partightenfactor0
\cf2         <mxCell id="sPDVBLaamCeaX5s3TwPM-50" style="edgeStyle=orthogonalEdgeStyle;rounded=0;orthogonalLoop=1;jettySize=auto;html=1;entryX=0;entryY=0.5;entryDx=0;entryDy=0;fontSize=20;" parent="WIyWlLk6GJQsqaUBKTNV-1" source="sPDVBLaamCeaX5s3TwPM-38" target="sPDVBLaamCeaX5s3TwPM-16" edge="1">\cell \row

\itap1\trowd \taflags1 \trgaph108\trleft-108 \trcbpat3 \trbrdrl\brdrnil \trbrdrr\brdrnil 
\clvertalt \clshdrawnil \clwWidth37045\clftsWidth3 \clminw1000 \clbrdrt\brdrnil \clbrdrl\brdrnil \clbrdrb\brdrnil \clbrdrr\brdrnil \clpadl200 \clpadr200 \gaph\cellx4320
\clvertalt \clshdrawnil \clwWidth49061\clftsWidth3 \clbrdrt\brdrnil \clbrdrl\brdrnil \clbrdrb\brdrnil \clbrdrr\brdrnil \clpadl200 \clpadr200 \gaph\cellx8640
\pard\intbl\itap1\pardeftab720\sl400\qr\partightenfactor0
\cf2 \cell 
\pard\intbl\itap1\pardeftab720\sl400\partightenfactor0
\cf2           <mxGeometry relative="1" as="geometry" />\cell \row

\itap1\trowd \taflags1 \trgaph108\trleft-108 \trcbpat3 \trbrdrl\brdrnil \trbrdrr\brdrnil 
\clvertalt \clshdrawnil \clwWidth37045\clftsWidth3 \clminw1000 \clbrdrt\brdrnil \clbrdrl\brdrnil \clbrdrb\brdrnil \clbrdrr\brdrnil \clpadl200 \clpadr200 \gaph\cellx4320
\clvertalt \clshdrawnil \clwWidth49061\clftsWidth3 \clbrdrt\brdrnil \clbrdrl\brdrnil \clbrdrb\brdrnil \clbrdrr\brdrnil \clpadl200 \clpadr200 \gaph\cellx8640
\pard\intbl\itap1\pardeftab720\sl400\qr\partightenfactor0
\cf2 \cell 
\pard\intbl\itap1\pardeftab720\sl400\partightenfactor0
\cf2         </mxCell>\cell \row

\itap1\trowd \taflags1 \trgaph108\trleft-108 \trcbpat3 \trbrdrl\brdrnil \trbrdrr\brdrnil 
\clvertalt \clshdrawnil \clwWidth37045\clftsWidth3 \clminw1000 \clbrdrt\brdrnil \clbrdrl\brdrnil \clbrdrb\brdrnil \clbrdrr\brdrnil \clpadl200 \clpadr200 \gaph\cellx4320
\clvertalt \clshdrawnil \clwWidth49061\clftsWidth3 \clbrdrt\brdrnil \clbrdrl\brdrnil \clbrdrb\brdrnil \clbrdrr\brdrnil \clpadl200 \clpadr200 \gaph\cellx8640
\pard\intbl\itap1\pardeftab720\sl400\qr\partightenfactor0
\cf2 \cell 
\pard\intbl\itap1\pardeftab720\sl400\partightenfactor0
\cf2         <mxCell id="sPDVBLaamCeaX5s3TwPM-38" value="FiLM" style="rounded=1;whiteSpace=wrap;html=1;fillColor=#d5e8d4;strokeColor=#82b366;fontSize=20;" parent="WIyWlLk6GJQsqaUBKTNV-1" vertex="1">\cell \row

\itap1\trowd \taflags1 \trgaph108\trleft-108 \trcbpat3 \trbrdrl\brdrnil \trbrdrr\brdrnil 
\clvertalt \clshdrawnil \clwWidth37045\clftsWidth3 \clminw1000 \clbrdrt\brdrnil \clbrdrl\brdrnil \clbrdrb\brdrnil \clbrdrr\brdrnil \clpadl200 \clpadr200 \gaph\cellx4320
\clvertalt \clshdrawnil \clwWidth49061\clftsWidth3 \clbrdrt\brdrnil \clbrdrl\brdrnil \clbrdrb\brdrnil \clbrdrr\brdrnil \clpadl200 \clpadr200 \gaph\cellx8640
\pard\intbl\itap1\pardeftab720\sl400\qr\partightenfactor0
\cf2 \cell 
\pard\intbl\itap1\pardeftab720\sl400\partightenfactor0
\cf2           <mxGeometry x="275" y="1045" width="50" height="20" as="geometry" />\cell \row

\itap1\trowd \taflags1 \trgaph108\trleft-108 \trcbpat3 \trbrdrl\brdrnil \trbrdrr\brdrnil 
\clvertalt \clshdrawnil \clwWidth37045\clftsWidth3 \clminw1000 \clbrdrt\brdrnil \clbrdrl\brdrnil \clbrdrb\brdrnil \clbrdrr\brdrnil \clpadl200 \clpadr200 \gaph\cellx4320
\clvertalt \clshdrawnil \clwWidth49061\clftsWidth3 \clbrdrt\brdrnil \clbrdrl\brdrnil \clbrdrb\brdrnil \clbrdrr\brdrnil \clpadl200 \clpadr200 \gaph\cellx8640
\pard\intbl\itap1\pardeftab720\sl400\qr\partightenfactor0
\cf2 \cell 
\pard\intbl\itap1\pardeftab720\sl400\partightenfactor0
\cf2         </mxCell>\cell \row

\itap1\trowd \taflags1 \trgaph108\trleft-108 \trcbpat3 \trbrdrl\brdrnil \trbrdrr\brdrnil 
\clvertalt \clshdrawnil \clwWidth37045\clftsWidth3 \clminw1000 \clbrdrt\brdrnil \clbrdrl\brdrnil \clbrdrb\brdrnil \clbrdrr\brdrnil \clpadl200 \clpadr200 \gaph\cellx4320
\clvertalt \clshdrawnil \clwWidth49061\clftsWidth3 \clbrdrt\brdrnil \clbrdrl\brdrnil \clbrdrb\brdrnil \clbrdrr\brdrnil \clpadl200 \clpadr200 \gaph\cellx8640
\pard\intbl\itap1\pardeftab720\sl400\qr\partightenfactor0
\cf2 \cell 
\pard\intbl\itap1\pardeftab720\sl400\partightenfactor0
\cf2         <mxCell id="sPDVBLaamCeaX5s3TwPM-85" style="edgeStyle=orthogonalEdgeStyle;rounded=0;orthogonalLoop=1;jettySize=auto;html=1;entryX=0.5;entryY=1;entryDx=0;entryDy=0;fontSize=20;" parent="WIyWlLk6GJQsqaUBKTNV-1" source="sPDVBLaamCeaX5s3TwPM-53" target="sPDVBLaamCeaX5s3TwPM-84" edge="1">\cell \row

\itap1\trowd \taflags1 \trgaph108\trleft-108 \trcbpat3 \trbrdrl\brdrnil \trbrdrr\brdrnil 
\clvertalt \clshdrawnil \clwWidth37045\clftsWidth3 \clminw1000 \clbrdrt\brdrnil \clbrdrl\brdrnil \clbrdrb\brdrnil \clbrdrr\brdrnil \clpadl200 \clpadr200 \gaph\cellx4320
\clvertalt \clshdrawnil \clwWidth49061\clftsWidth3 \clbrdrt\brdrnil \clbrdrl\brdrnil \clbrdrb\brdrnil \clbrdrr\brdrnil \clpadl200 \clpadr200 \gaph\cellx8640
\pard\intbl\itap1\pardeftab720\sl400\qr\partightenfactor0
\cf2 \cell 
\pard\intbl\itap1\pardeftab720\sl400\partightenfactor0
\cf2           <mxGeometry relative="1" as="geometry" />\cell \row

\itap1\trowd \taflags1 \trgaph108\trleft-108 \trcbpat3 \trbrdrl\brdrnil \trbrdrr\brdrnil 
\clvertalt \clshdrawnil \clwWidth37045\clftsWidth3 \clminw1000 \clbrdrt\brdrnil \clbrdrl\brdrnil \clbrdrb\brdrnil \clbrdrr\brdrnil \clpadl200 \clpadr200 \gaph\cellx4320
\clvertalt \clshdrawnil \clwWidth49061\clftsWidth3 \clbrdrt\brdrnil \clbrdrl\brdrnil \clbrdrb\brdrnil \clbrdrr\brdrnil \clpadl200 \clpadr200 \gaph\cellx8640
\pard\intbl\itap1\pardeftab720\sl400\qr\partightenfactor0
\cf2 \cell 
\pard\intbl\itap1\pardeftab720\sl400\partightenfactor0
\cf2         </mxCell>\cell \row

\itap1\trowd \taflags1 \trgaph108\trleft-108 \trcbpat3 \trbrdrl\brdrnil \trbrdrr\brdrnil 
\clvertalt \clshdrawnil \clwWidth37045\clftsWidth3 \clminw1000 \clbrdrt\brdrnil \clbrdrl\brdrnil \clbrdrb\brdrnil \clbrdrr\brdrnil \clpadl200 \clpadr200 \gaph\cellx4320
\clvertalt \clshdrawnil \clwWidth49061\clftsWidth3 \clbrdrt\brdrnil \clbrdrl\brdrnil \clbrdrb\brdrnil \clbrdrr\brdrnil \clpadl200 \clpadr200 \gaph\cellx8640
\pard\intbl\itap1\pardeftab720\sl400\qr\partightenfactor0
\cf2 \cell 
\pard\intbl\itap1\pardeftab720\sl400\partightenfactor0
\cf2         <mxCell id="sPDVBLaamCeaX5s3TwPM-53" value="UBlock (128, x2)" style="rounded=1;whiteSpace=wrap;html=1;fillColor=#f8cecc;strokeColor=#b85450;fontSize=20;" parent="WIyWlLk6GJQsqaUBKTNV-1" vertex="1">\cell \row

\itap1\trowd \taflags1 \trgaph108\trleft-108 \trcbpat3 \trbrdrl\brdrnil \trbrdrr\brdrnil 
\clvertalt \clshdrawnil \clwWidth37045\clftsWidth3 \clminw1000 \clbrdrt\brdrnil \clbrdrl\brdrnil \clbrdrb\brdrnil \clbrdrr\brdrnil \clpadl200 \clpadr200 \gaph\cellx4320
\clvertalt \clshdrawnil \clwWidth49061\clftsWidth3 \clbrdrt\brdrnil \clbrdrl\brdrnil \clbrdrb\brdrnil \clbrdrr\brdrnil \clpadl200 \clpadr200 \gaph\cellx8640
\pard\intbl\itap1\pardeftab720\sl400\qr\partightenfactor0
\cf2 \cell 
\pard\intbl\itap1\pardeftab720\sl400\partightenfactor0
\cf2           <mxGeometry x="580" y="735" width="150" height="30" as="geometry" />\cell \row

\itap1\trowd \taflags1 \trgaph108\trleft-108 \trcbpat3 \trbrdrl\brdrnil \trbrdrr\brdrnil 
\clvertalt \clshdrawnil \clwWidth37045\clftsWidth3 \clminw1000 \clbrdrt\brdrnil \clbrdrl\brdrnil \clbrdrb\brdrnil \clbrdrr\brdrnil \clpadl200 \clpadr200 \gaph\cellx4320
\clvertalt \clshdrawnil \clwWidth49061\clftsWidth3 \clbrdrt\brdrnil \clbrdrl\brdrnil \clbrdrb\brdrnil \clbrdrr\brdrnil \clpadl200 \clpadr200 \gaph\cellx8640
\pard\intbl\itap1\pardeftab720\sl400\qr\partightenfactor0
\cf2 \cell 
\pard\intbl\itap1\pardeftab720\sl400\partightenfactor0
\cf2         </mxCell>\cell \row

\itap1\trowd \taflags1 \trgaph108\trleft-108 \trcbpat3 \trbrdrl\brdrnil \trbrdrr\brdrnil 
\clvertalt \clshdrawnil \clwWidth37045\clftsWidth3 \clminw1000 \clbrdrt\brdrnil \clbrdrl\brdrnil \clbrdrb\brdrnil \clbrdrr\brdrnil \clpadl200 \clpadr200 \gaph\cellx4320
\clvertalt \clshdrawnil \clwWidth49061\clftsWidth3 \clbrdrt\brdrnil \clbrdrl\brdrnil \clbrdrb\brdrnil \clbrdrr\brdrnil \clpadl200 \clpadr200 \gaph\cellx8640
\pard\intbl\itap1\pardeftab720\sl400\qr\partightenfactor0
\cf2 \cell 
\pard\intbl\itap1\pardeftab720\sl400\partightenfactor0
\cf2         <mxCell id="sPDVBLaamCeaX5s3TwPM-61" style="edgeStyle=orthogonalEdgeStyle;rounded=0;orthogonalLoop=1;jettySize=auto;html=1;fontSize=20;" parent="WIyWlLk6GJQsqaUBKTNV-1" source="sPDVBLaamCeaX5s3TwPM-54" target="sPDVBLaamCeaX5s3TwPM-53" edge="1">\cell \row

\itap1\trowd \taflags1 \trgaph108\trleft-108 \trcbpat3 \trbrdrl\brdrnil \trbrdrr\brdrnil 
\clvertalt \clshdrawnil \clwWidth37045\clftsWidth3 \clminw1000 \clbrdrt\brdrnil \clbrdrl\brdrnil \clbrdrb\brdrnil \clbrdrr\brdrnil \clpadl200 \clpadr200 \gaph\cellx4320
\clvertalt \clshdrawnil \clwWidth49061\clftsWidth3 \clbrdrt\brdrnil \clbrdrl\brdrnil \clbrdrb\brdrnil \clbrdrr\brdrnil \clpadl200 \clpadr200 \gaph\cellx8640
\pard\intbl\itap1\pardeftab720\sl400\qr\partightenfactor0
\cf2 \cell 
\pard\intbl\itap1\pardeftab720\sl400\partightenfactor0
\cf2           <mxGeometry relative="1" as="geometry" />\cell \row

\itap1\trowd \taflags1 \trgaph108\trleft-108 \trcbpat3 \trbrdrl\brdrnil \trbrdrr\brdrnil 
\clvertalt \clshdrawnil \clwWidth37045\clftsWidth3 \clminw1000 \clbrdrt\brdrnil \clbrdrl\brdrnil \clbrdrb\brdrnil \clbrdrr\brdrnil \clpadl200 \clpadr200 \gaph\cellx4320
\clvertalt \clshdrawnil \clwWidth49061\clftsWidth3 \clbrdrt\brdrnil \clbrdrl\brdrnil \clbrdrb\brdrnil \clbrdrr\brdrnil \clpadl200 \clpadr200 \gaph\cellx8640
\pard\intbl\itap1\pardeftab720\sl400\qr\partightenfactor0
\cf2 \cell 
\pard\intbl\itap1\pardeftab720\sl400\partightenfactor0
\cf2         </mxCell>\cell \row

\itap1\trowd \taflags1 \trgaph108\trleft-108 \trcbpat3 \trbrdrl\brdrnil \trbrdrr\brdrnil 
\clvertalt \clshdrawnil \clwWidth37045\clftsWidth3 \clminw1000 \clbrdrt\brdrnil \clbrdrl\brdrnil \clbrdrb\brdrnil \clbrdrr\brdrnil \clpadl200 \clpadr200 \gaph\cellx4320
\clvertalt \clshdrawnil \clwWidth49061\clftsWidth3 \clbrdrt\brdrnil \clbrdrl\brdrnil \clbrdrb\brdrnil \clbrdrr\brdrnil \clpadl200 \clpadr200 \gaph\cellx8640
\pard\intbl\itap1\pardeftab720\sl400\qr\partightenfactor0
\cf2 \cell 
\pard\intbl\itap1\pardeftab720\sl400\partightenfactor0
\cf2         <mxCell id="sPDVBLaamCeaX5s3TwPM-54" value="UBlock (128, x2)" style="rounded=1;whiteSpace=wrap;html=1;fillColor=#f8cecc;strokeColor=#b85450;fontSize=20;" parent="WIyWlLk6GJQsqaUBKTNV-1" vertex="1">\cell \row

\itap1\trowd \taflags1 \trgaph108\trleft-108 \trcbpat3 \trbrdrl\brdrnil \trbrdrr\brdrnil 
\clvertalt \clshdrawnil \clwWidth37045\clftsWidth3 \clminw1000 \clbrdrt\brdrnil \clbrdrl\brdrnil \clbrdrb\brdrnil \clbrdrr\brdrnil \clpadl200 \clpadr200 \gaph\cellx4320
\clvertalt \clshdrawnil \clwWidth49061\clftsWidth3 \clbrdrt\brdrnil \clbrdrl\brdrnil \clbrdrb\brdrnil \clbrdrr\brdrnil \clpadl200 \clpadr200 \gaph\cellx8640
\pard\intbl\itap1\pardeftab720\sl400\qr\partightenfactor0
\cf2 \cell 
\pard\intbl\itap1\pardeftab720\sl400\partightenfactor0
\cf2           <mxGeometry x="580" y="810" width="150" height="30" as="geometry" />\cell \row

\itap1\trowd \taflags1 \trgaph108\trleft-108 \trcbpat3 \trbrdrl\brdrnil \trbrdrr\brdrnil 
\clvertalt \clshdrawnil \clwWidth37045\clftsWidth3 \clminw1000 \clbrdrt\brdrnil \clbrdrl\brdrnil \clbrdrb\brdrnil \clbrdrr\brdrnil \clpadl200 \clpadr200 \gaph\cellx4320
\clvertalt \clshdrawnil \clwWidth49061\clftsWidth3 \clbrdrt\brdrnil \clbrdrl\brdrnil \clbrdrb\brdrnil \clbrdrr\brdrnil \clpadl200 \clpadr200 \gaph\cellx8640
\pard\intbl\itap1\pardeftab720\sl400\qr\partightenfactor0
\cf2 \cell 
\pard\intbl\itap1\pardeftab720\sl400\partightenfactor0
\cf2         </mxCell>\cell \row

\itap1\trowd \taflags1 \trgaph108\trleft-108 \trcbpat3 \trbrdrl\brdrnil \trbrdrr\brdrnil 
\clvertalt \clshdrawnil \clwWidth37045\clftsWidth3 \clminw1000 \clbrdrt\brdrnil \clbrdrl\brdrnil \clbrdrb\brdrnil \clbrdrr\brdrnil \clpadl200 \clpadr200 \gaph\cellx4320
\clvertalt \clshdrawnil \clwWidth49061\clftsWidth3 \clbrdrt\brdrnil \clbrdrl\brdrnil \clbrdrb\brdrnil \clbrdrr\brdrnil \clpadl200 \clpadr200 \gaph\cellx8640
\pard\intbl\itap1\pardeftab720\sl400\qr\partightenfactor0
\cf2 \cell 
\pard\intbl\itap1\pardeftab720\sl400\partightenfactor0
\cf2         <mxCell id="sPDVBLaamCeaX5s3TwPM-60" style="edgeStyle=orthogonalEdgeStyle;rounded=0;orthogonalLoop=1;jettySize=auto;html=1;entryX=0.5;entryY=1;entryDx=0;entryDy=0;fontSize=20;" parent="WIyWlLk6GJQsqaUBKTNV-1" source="sPDVBLaamCeaX5s3TwPM-55" target="sPDVBLaamCeaX5s3TwPM-54" edge="1">\cell \row

\itap1\trowd \taflags1 \trgaph108\trleft-108 \trcbpat3 \trbrdrl\brdrnil \trbrdrr\brdrnil 
\clvertalt \clshdrawnil \clwWidth37045\clftsWidth3 \clminw1000 \clbrdrt\brdrnil \clbrdrl\brdrnil \clbrdrb\brdrnil \clbrdrr\brdrnil \clpadl200 \clpadr200 \gaph\cellx4320
\clvertalt \clshdrawnil \clwWidth49061\clftsWidth3 \clbrdrt\brdrnil \clbrdrl\brdrnil \clbrdrb\brdrnil \clbrdrr\brdrnil \clpadl200 \clpadr200 \gaph\cellx8640
\pard\intbl\itap1\pardeftab720\sl400\qr\partightenfactor0
\cf2 \cell 
\pard\intbl\itap1\pardeftab720\sl400\partightenfactor0
\cf2           <mxGeometry relative="1" as="geometry" />\cell \row

\itap1\trowd \taflags1 \trgaph108\trleft-108 \trcbpat3 \trbrdrl\brdrnil \trbrdrr\brdrnil 
\clvertalt \clshdrawnil \clwWidth37045\clftsWidth3 \clminw1000 \clbrdrt\brdrnil \clbrdrl\brdrnil \clbrdrb\brdrnil \clbrdrr\brdrnil \clpadl200 \clpadr200 \gaph\cellx4320
\clvertalt \clshdrawnil \clwWidth49061\clftsWidth3 \clbrdrt\brdrnil \clbrdrl\brdrnil \clbrdrb\brdrnil \clbrdrr\brdrnil \clpadl200 \clpadr200 \gaph\cellx8640
\pard\intbl\itap1\pardeftab720\sl400\qr\partightenfactor0
\cf2 \cell 
\pard\intbl\itap1\pardeftab720\sl400\partightenfactor0
\cf2         </mxCell>\cell \row

\itap1\trowd \taflags1 \trgaph108\trleft-108 \trcbpat3 \trbrdrl\brdrnil \trbrdrr\brdrnil 
\clvertalt \clshdrawnil \clwWidth37045\clftsWidth3 \clminw1000 \clbrdrt\brdrnil \clbrdrl\brdrnil \clbrdrb\brdrnil \clbrdrr\brdrnil \clpadl200 \clpadr200 \gaph\cellx4320
\clvertalt \clshdrawnil \clwWidth49061\clftsWidth3 \clbrdrt\brdrnil \clbrdrl\brdrnil \clbrdrb\brdrnil \clbrdrr\brdrnil \clpadl200 \clpadr200 \gaph\cellx8640
\pard\intbl\itap1\pardeftab720\sl400\qr\partightenfactor0
\cf2 \cell 
\pard\intbl\itap1\pardeftab720\sl400\partightenfactor0
\cf2         <mxCell id="sPDVBLaamCeaX5s3TwPM-55" value="UBlock (128, x3)" style="rounded=1;whiteSpace=wrap;html=1;fillColor=#f8cecc;strokeColor=#b85450;fontSize=20;" parent="WIyWlLk6GJQsqaUBKTNV-1" vertex="1">\cell \row

\itap1\trowd \taflags1 \trgaph108\trleft-108 \trcbpat3 \trbrdrl\brdrnil \trbrdrr\brdrnil 
\clvertalt \clshdrawnil \clwWidth37045\clftsWidth3 \clminw1000 \clbrdrt\brdrnil \clbrdrl\brdrnil \clbrdrb\brdrnil \clbrdrr\brdrnil \clpadl200 \clpadr200 \gaph\cellx4320
\clvertalt \clshdrawnil \clwWidth49061\clftsWidth3 \clbrdrt\brdrnil \clbrdrl\brdrnil \clbrdrb\brdrnil \clbrdrr\brdrnil \clpadl200 \clpadr200 \gaph\cellx8640
\pard\intbl\itap1\pardeftab720\sl400\qr\partightenfactor0
\cf2 \cell 
\pard\intbl\itap1\pardeftab720\sl400\partightenfactor0
\cf2           <mxGeometry x="580" y="885" width="150" height="30" as="geometry" />\cell \row

\itap1\trowd \taflags1 \trgaph108\trleft-108 \trcbpat3 \trbrdrl\brdrnil \trbrdrr\brdrnil 
\clvertalt \clshdrawnil \clwWidth37045\clftsWidth3 \clminw1000 \clbrdrt\brdrnil \clbrdrl\brdrnil \clbrdrb\brdrnil \clbrdrr\brdrnil \clpadl200 \clpadr200 \gaph\cellx4320
\clvertalt \clshdrawnil \clwWidth49061\clftsWidth3 \clbrdrt\brdrnil \clbrdrl\brdrnil \clbrdrb\brdrnil \clbrdrr\brdrnil \clpadl200 \clpadr200 \gaph\cellx8640
\pard\intbl\itap1\pardeftab720\sl400\qr\partightenfactor0
\cf2 \cell 
\pard\intbl\itap1\pardeftab720\sl400\partightenfactor0
\cf2         </mxCell>\cell \row

\itap1\trowd \taflags1 \trgaph108\trleft-108 \trcbpat3 \trbrdrl\brdrnil \trbrdrr\brdrnil 
\clvertalt \clshdrawnil \clwWidth37045\clftsWidth3 \clminw1000 \clbrdrt\brdrnil \clbrdrl\brdrnil \clbrdrb\brdrnil \clbrdrr\brdrnil \clpadl200 \clpadr200 \gaph\cellx4320
\clvertalt \clshdrawnil \clwWidth49061\clftsWidth3 \clbrdrt\brdrnil \clbrdrl\brdrnil \clbrdrb\brdrnil \clbrdrr\brdrnil \clpadl200 \clpadr200 \gaph\cellx8640
\pard\intbl\itap1\pardeftab720\sl400\qr\partightenfactor0
\cf2 \cell 
\pard\intbl\itap1\pardeftab720\sl400\partightenfactor0
\cf2         <mxCell id="sPDVBLaamCeaX5s3TwPM-59" style="edgeStyle=orthogonalEdgeStyle;rounded=0;orthogonalLoop=1;jettySize=auto;html=1;entryX=0.5;entryY=1;entryDx=0;entryDy=0;fontSize=20;" parent="WIyWlLk6GJQsqaUBKTNV-1" source="sPDVBLaamCeaX5s3TwPM-56" target="sPDVBLaamCeaX5s3TwPM-55" edge="1">\cell \row

\itap1\trowd \taflags1 \trgaph108\trleft-108 \trcbpat3 \trbrdrl\brdrnil \trbrdrr\brdrnil 
\clvertalt \clshdrawnil \clwWidth37045\clftsWidth3 \clminw1000 \clbrdrt\brdrnil \clbrdrl\brdrnil \clbrdrb\brdrnil \clbrdrr\brdrnil \clpadl200 \clpadr200 \gaph\cellx4320
\clvertalt \clshdrawnil \clwWidth49061\clftsWidth3 \clbrdrt\brdrnil \clbrdrl\brdrnil \clbrdrb\brdrnil \clbrdrr\brdrnil \clpadl200 \clpadr200 \gaph\cellx8640
\pard\intbl\itap1\pardeftab720\sl400\qr\partightenfactor0
\cf2 \cell 
\pard\intbl\itap1\pardeftab720\sl400\partightenfactor0
\cf2           <mxGeometry relative="1" as="geometry" />\cell \row

\itap1\trowd \taflags1 \trgaph108\trleft-108 \trcbpat3 \trbrdrl\brdrnil \trbrdrr\brdrnil 
\clvertalt \clshdrawnil \clwWidth37045\clftsWidth3 \clminw1000 \clbrdrt\brdrnil \clbrdrl\brdrnil \clbrdrb\brdrnil \clbrdrr\brdrnil \clpadl200 \clpadr200 \gaph\cellx4320
\clvertalt \clshdrawnil \clwWidth49061\clftsWidth3 \clbrdrt\brdrnil \clbrdrl\brdrnil \clbrdrb\brdrnil \clbrdrr\brdrnil \clpadl200 \clpadr200 \gaph\cellx8640
\pard\intbl\itap1\pardeftab720\sl400\qr\partightenfactor0
\cf2 \cell 
\pard\intbl\itap1\pardeftab720\sl400\partightenfactor0
\cf2         </mxCell>\cell \row

\itap1\trowd \taflags1 \trgaph108\trleft-108 \trcbpat3 \trbrdrl\brdrnil \trbrdrr\brdrnil 
\clvertalt \clshdrawnil \clwWidth37045\clftsWidth3 \clminw1000 \clbrdrt\brdrnil \clbrdrl\brdrnil \clbrdrb\brdrnil \clbrdrr\brdrnil \clpadl200 \clpadr200 \gaph\cellx4320
\clvertalt \clshdrawnil \clwWidth49061\clftsWidth3 \clbrdrt\brdrnil \clbrdrl\brdrnil \clbrdrb\brdrnil \clbrdrr\brdrnil \clpadl200 \clpadr200 \gaph\cellx8640
\pard\intbl\itap1\pardeftab720\sl400\qr\partightenfactor0
\cf2 \cell 
\pard\intbl\itap1\pardeftab720\sl400\partightenfactor0
\cf2         <mxCell id="sPDVBLaamCeaX5s3TwPM-56" value="UBlock (256, x5)" style="rounded=1;whiteSpace=wrap;html=1;fillColor=#f8cecc;strokeColor=#b85450;fontSize=20;" parent="WIyWlLk6GJQsqaUBKTNV-1" vertex="1">\cell \row

\itap1\trowd \taflags1 \trgaph108\trleft-108 \trcbpat3 \trbrdrl\brdrnil \trbrdrr\brdrnil 
\clvertalt \clshdrawnil \clwWidth37045\clftsWidth3 \clminw1000 \clbrdrt\brdrnil \clbrdrl\brdrnil \clbrdrb\brdrnil \clbrdrr\brdrnil \clpadl200 \clpadr200 \gaph\cellx4320
\clvertalt \clshdrawnil \clwWidth49061\clftsWidth3 \clbrdrt\brdrnil \clbrdrl\brdrnil \clbrdrb\brdrnil \clbrdrr\brdrnil \clpadl200 \clpadr200 \gaph\cellx8640
\pard\intbl\itap1\pardeftab720\sl400\qr\partightenfactor0
\cf2 \cell 
\pard\intbl\itap1\pardeftab720\sl400\partightenfactor0
\cf2           <mxGeometry x="580" y="960" width="150" height="30" as="geometry" />\cell \row

\itap1\trowd \taflags1 \trgaph108\trleft-108 \trcbpat3 \trbrdrl\brdrnil \trbrdrr\brdrnil 
\clvertalt \clshdrawnil \clwWidth37045\clftsWidth3 \clminw1000 \clbrdrt\brdrnil \clbrdrl\brdrnil \clbrdrb\brdrnil \clbrdrr\brdrnil \clpadl200 \clpadr200 \gaph\cellx4320
\clvertalt \clshdrawnil \clwWidth49061\clftsWidth3 \clbrdrt\brdrnil \clbrdrl\brdrnil \clbrdrb\brdrnil \clbrdrr\brdrnil \clpadl200 \clpadr200 \gaph\cellx8640
\pard\intbl\itap1\pardeftab720\sl400\qr\partightenfactor0
\cf2 \cell 
\pard\intbl\itap1\pardeftab720\sl400\partightenfactor0
\cf2         </mxCell>\cell \row

\itap1\trowd \taflags1 \trgaph108\trleft-108 \trcbpat3 \trbrdrl\brdrnil \trbrdrr\brdrnil 
\clvertalt \clshdrawnil \clwWidth37045\clftsWidth3 \clminw1000 \clbrdrt\brdrnil \clbrdrl\brdrnil \clbrdrb\brdrnil \clbrdrr\brdrnil \clpadl200 \clpadr200 \gaph\cellx4320
\clvertalt \clshdrawnil \clwWidth49061\clftsWidth3 \clbrdrt\brdrnil \clbrdrl\brdrnil \clbrdrb\brdrnil \clbrdrr\brdrnil \clpadl200 \clpadr200 \gaph\cellx8640
\pard\intbl\itap1\pardeftab720\sl400\qr\partightenfactor0
\cf2 \cell 
\pard\intbl\itap1\pardeftab720\sl400\partightenfactor0
\cf2         <mxCell id="sPDVBLaamCeaX5s3TwPM-58" style="edgeStyle=orthogonalEdgeStyle;rounded=0;orthogonalLoop=1;jettySize=auto;html=1;entryX=0.5;entryY=1;entryDx=0;entryDy=0;fontSize=20;" parent="WIyWlLk6GJQsqaUBKTNV-1" source="sPDVBLaamCeaX5s3TwPM-57" target="sPDVBLaamCeaX5s3TwPM-56" edge="1">\cell \row

\itap1\trowd \taflags1 \trgaph108\trleft-108 \trcbpat3 \trbrdrl\brdrnil \trbrdrr\brdrnil 
\clvertalt \clshdrawnil \clwWidth37045\clftsWidth3 \clminw1000 \clbrdrt\brdrnil \clbrdrl\brdrnil \clbrdrb\brdrnil \clbrdrr\brdrnil \clpadl200 \clpadr200 \gaph\cellx4320
\clvertalt \clshdrawnil \clwWidth49061\clftsWidth3 \clbrdrt\brdrnil \clbrdrl\brdrnil \clbrdrb\brdrnil \clbrdrr\brdrnil \clpadl200 \clpadr200 \gaph\cellx8640
\pard\intbl\itap1\pardeftab720\sl400\qr\partightenfactor0
\cf2 \cell 
\pard\intbl\itap1\pardeftab720\sl400\partightenfactor0
\cf2           <mxGeometry relative="1" as="geometry" />\cell \row

\itap1\trowd \taflags1 \trgaph108\trleft-108 \trcbpat3 \trbrdrl\brdrnil \trbrdrr\brdrnil 
\clvertalt \clshdrawnil \clwWidth37045\clftsWidth3 \clminw1000 \clbrdrt\brdrnil \clbrdrl\brdrnil \clbrdrb\brdrnil \clbrdrr\brdrnil \clpadl200 \clpadr200 \gaph\cellx4320
\clvertalt \clshdrawnil \clwWidth49061\clftsWidth3 \clbrdrt\brdrnil \clbrdrl\brdrnil \clbrdrb\brdrnil \clbrdrr\brdrnil \clpadl200 \clpadr200 \gaph\cellx8640
\pard\intbl\itap1\pardeftab720\sl400\qr\partightenfactor0
\cf2 \cell 
\pard\intbl\itap1\pardeftab720\sl400\partightenfactor0
\cf2         </mxCell>\cell \row

\itap1\trowd \taflags1 \trgaph108\trleft-108 \trcbpat3 \trbrdrl\brdrnil \trbrdrr\brdrnil 
\clvertalt \clshdrawnil \clwWidth37045\clftsWidth3 \clminw1000 \clbrdrt\brdrnil \clbrdrl\brdrnil \clbrdrb\brdrnil \clbrdrr\brdrnil \clpadl200 \clpadr200 \gaph\cellx4320
\clvertalt \clshdrawnil \clwWidth49061\clftsWidth3 \clbrdrt\brdrnil \clbrdrl\brdrnil \clbrdrb\brdrnil \clbrdrr\brdrnil \clpadl200 \clpadr200 \gaph\cellx8640
\pard\intbl\itap1\pardeftab720\sl400\qr\partightenfactor0
\cf2 \cell 
\pard\intbl\itap1\pardeftab720\sl400\partightenfactor0
\cf2         <mxCell id="sPDVBLaamCeaX5s3TwPM-57" value="UBlock (512, x5)" style="rounded=1;whiteSpace=wrap;html=1;fillColor=#f8cecc;strokeColor=#b85450;fontSize=20;" parent="WIyWlLk6GJQsqaUBKTNV-1" vertex="1">\cell \row

\itap1\trowd \taflags1 \trgaph108\trleft-108 \trcbpat3 \trbrdrl\brdrnil \trbrdrr\brdrnil 
\clvertalt \clshdrawnil \clwWidth37045\clftsWidth3 \clminw1000 \clbrdrt\brdrnil \clbrdrl\brdrnil \clbrdrb\brdrnil \clbrdrr\brdrnil \clpadl200 \clpadr200 \gaph\cellx4320
\clvertalt \clshdrawnil \clwWidth49061\clftsWidth3 \clbrdrt\brdrnil \clbrdrl\brdrnil \clbrdrb\brdrnil \clbrdrr\brdrnil \clpadl200 \clpadr200 \gaph\cellx8640
\pard\intbl\itap1\pardeftab720\sl400\qr\partightenfactor0
\cf2 \cell 
\pard\intbl\itap1\pardeftab720\sl400\partightenfactor0
\cf2           <mxGeometry x="580" y="1040" width="150" height="30" as="geometry" />\cell \row

\itap1\trowd \taflags1 \trgaph108\trleft-108 \trcbpat3 \trbrdrl\brdrnil \trbrdrr\brdrnil 
\clvertalt \clshdrawnil \clwWidth37045\clftsWidth3 \clminw1000 \clbrdrt\brdrnil \clbrdrl\brdrnil \clbrdrb\brdrnil \clbrdrr\brdrnil \clpadl200 \clpadr200 \gaph\cellx4320
\clvertalt \clshdrawnil \clwWidth49061\clftsWidth3 \clbrdrt\brdrnil \clbrdrl\brdrnil \clbrdrb\brdrnil \clbrdrr\brdrnil \clpadl200 \clpadr200 \gaph\cellx8640
\pard\intbl\itap1\pardeftab720\sl400\qr\partightenfactor0
\cf2 \cell 
\pard\intbl\itap1\pardeftab720\sl400\partightenfactor0
\cf2         </mxCell>\cell \row

\itap1\trowd \taflags1 \trgaph108\trleft-108 \trcbpat3 \trbrdrl\brdrnil \trbrdrr\brdrnil 
\clvertalt \clshdrawnil \clwWidth37045\clftsWidth3 \clminw1000 \clbrdrt\brdrnil \clbrdrl\brdrnil \clbrdrb\brdrnil \clbrdrr\brdrnil \clpadl200 \clpadr200 \gaph\cellx4320
\clvertalt \clshdrawnil \clwWidth49061\clftsWidth3 \clbrdrt\brdrnil \clbrdrl\brdrnil \clbrdrb\brdrnil \clbrdrr\brdrnil \clpadl200 \clpadr200 \gaph\cellx8640
\pard\intbl\itap1\pardeftab720\sl400\qr\partightenfactor0
\cf2 \cell 
\pard\intbl\itap1\pardeftab720\sl400\partightenfactor0
\cf2         <mxCell id="sPDVBLaamCeaX5s3TwPM-65" style="edgeStyle=orthogonalEdgeStyle;rounded=0;orthogonalLoop=1;jettySize=auto;html=1;fontSize=20;" parent="WIyWlLk6GJQsqaUBKTNV-1" source="sPDVBLaamCeaX5s3TwPM-63" target="sPDVBLaamCeaX5s3TwPM-57" edge="1">\cell \row

\itap1\trowd \taflags1 \trgaph108\trleft-108 \trcbpat3 \trbrdrl\brdrnil \trbrdrr\brdrnil 
\clvertalt \clshdrawnil \clwWidth37045\clftsWidth3 \clminw1000 \clbrdrt\brdrnil \clbrdrl\brdrnil \clbrdrb\brdrnil \clbrdrr\brdrnil \clpadl200 \clpadr200 \gaph\cellx4320
\clvertalt \clshdrawnil \clwWidth49061\clftsWidth3 \clbrdrt\brdrnil \clbrdrl\brdrnil \clbrdrb\brdrnil \clbrdrr\brdrnil \clpadl200 \clpadr200 \gaph\cellx8640
\pard\intbl\itap1\pardeftab720\sl400\qr\partightenfactor0
\cf2 \cell 
\pard\intbl\itap1\pardeftab720\sl400\partightenfactor0
\cf2           <mxGeometry relative="1" as="geometry" />\cell \row

\itap1\trowd \taflags1 \trgaph108\trleft-108 \trcbpat3 \trbrdrl\brdrnil \trbrdrr\brdrnil 
\clvertalt \clshdrawnil \clwWidth37045\clftsWidth3 \clminw1000 \clbrdrt\brdrnil \clbrdrl\brdrnil \clbrdrb\brdrnil \clbrdrr\brdrnil \clpadl200 \clpadr200 \gaph\cellx4320
\clvertalt \clshdrawnil \clwWidth49061\clftsWidth3 \clbrdrt\brdrnil \clbrdrl\brdrnil \clbrdrb\brdrnil \clbrdrr\brdrnil \clpadl200 \clpadr200 \gaph\cellx8640
\pard\intbl\itap1\pardeftab720\sl400\qr\partightenfactor0
\cf2 \cell 
\pard\intbl\itap1\pardeftab720\sl400\partightenfactor0
\cf2         </mxCell>\cell \row

\itap1\trowd \taflags1 \trgaph108\trleft-108 \trcbpat3 \trbrdrl\brdrnil \trbrdrr\brdrnil 
\clvertalt \clshdrawnil \clwWidth37045\clftsWidth3 \clminw1000 \clbrdrt\brdrnil \clbrdrl\brdrnil \clbrdrb\brdrnil \clbrdrr\brdrnil \clpadl200 \clpadr200 \gaph\cellx4320
\clvertalt \clshdrawnil \clwWidth49061\clftsWidth3 \clbrdrt\brdrnil \clbrdrl\brdrnil \clbrdrb\brdrnil \clbrdrr\brdrnil \clpadl200 \clpadr200 \gaph\cellx8640
\pard\intbl\itap1\pardeftab720\sl400\qr\partightenfactor0
\cf2 \cell 
\pard\intbl\itap1\pardeftab720\sl400\partightenfactor0
\cf2         <mxCell id="sPDVBLaamCeaX5s3TwPM-63" value="Cat" style="rounded=1;whiteSpace=wrap;html=1;fillColor=#d5e8d4;strokeColor=#82b366;fontSize=20;" parent="WIyWlLk6GJQsqaUBKTNV-1" vertex="1">\cell \row

\itap1\trowd \taflags1 \trgaph108\trleft-108 \trcbpat3 \trbrdrl\brdrnil \trbrdrr\brdrnil 
\clvertalt \clshdrawnil \clwWidth37045\clftsWidth3 \clminw1000 \clbrdrt\brdrnil \clbrdrl\brdrnil \clbrdrb\brdrnil \clbrdrr\brdrnil \clpadl200 \clpadr200 \gaph\cellx4320
\clvertalt \clshdrawnil \clwWidth49061\clftsWidth3 \clbrdrt\brdrnil \clbrdrl\brdrnil \clbrdrb\brdrnil \clbrdrr\brdrnil \clpadl200 \clpadr200 \gaph\cellx8640
\pard\intbl\itap1\pardeftab720\sl400\qr\partightenfactor0
\cf2 \cell 
\pard\intbl\itap1\pardeftab720\sl400\partightenfactor0
\cf2           <mxGeometry x="510" y="1045" width="50" height="20" as="geometry" />\cell \row

\itap1\trowd \taflags1 \trgaph108\trleft-108 \trcbpat3 \trbrdrl\brdrnil \trbrdrr\brdrnil 
\clvertalt \clshdrawnil \clwWidth37045\clftsWidth3 \clminw1000 \clbrdrt\brdrnil \clbrdrl\brdrnil \clbrdrb\brdrnil \clbrdrr\brdrnil \clpadl200 \clpadr200 \gaph\cellx4320
\clvertalt \clshdrawnil \clwWidth49061\clftsWidth3 \clbrdrt\brdrnil \clbrdrl\brdrnil \clbrdrb\brdrnil \clbrdrr\brdrnil \clpadl200 \clpadr200 \gaph\cellx8640
\pard\intbl\itap1\pardeftab720\sl400\qr\partightenfactor0
\cf2 \cell 
\pard\intbl\itap1\pardeftab720\sl400\partightenfactor0
\cf2         </mxCell>\cell \row

\itap1\trowd \taflags1 \trgaph108\trleft-108 \trcbpat3 \trbrdrl\brdrnil \trbrdrr\brdrnil 
\clvertalt \clshdrawnil \clwWidth37045\clftsWidth3 \clminw1000 \clbrdrt\brdrnil \clbrdrl\brdrnil \clbrdrb\brdrnil \clbrdrr\brdrnil \clpadl200 \clpadr200 \gaph\cellx4320
\clvertalt \clshdrawnil \clwWidth49061\clftsWidth3 \clbrdrt\brdrnil \clbrdrl\brdrnil \clbrdrb\brdrnil \clbrdrr\brdrnil \clpadl200 \clpadr200 \gaph\cellx8640
\pard\intbl\itap1\pardeftab720\sl400\qr\partightenfactor0
\cf2 \cell 
\pard\intbl\itap1\pardeftab720\sl400\partightenfactor0
\cf2         <mxCell id="sPDVBLaamCeaX5s3TwPM-77" style="edgeStyle=orthogonalEdgeStyle;rounded=0;orthogonalLoop=1;jettySize=auto;html=1;fontSize=20;" parent="WIyWlLk6GJQsqaUBKTNV-1" source="sPDVBLaamCeaX5s3TwPM-72" target="sPDVBLaamCeaX5s3TwPM-56" edge="1">\cell \row

\itap1\trowd \taflags1 \trgaph108\trleft-108 \trcbpat3 \trbrdrl\brdrnil \trbrdrr\brdrnil 
\clvertalt \clshdrawnil \clwWidth37045\clftsWidth3 \clminw1000 \clbrdrt\brdrnil \clbrdrl\brdrnil \clbrdrb\brdrnil \clbrdrr\brdrnil \clpadl200 \clpadr200 \gaph\cellx4320
\clvertalt \clshdrawnil \clwWidth49061\clftsWidth3 \clbrdrt\brdrnil \clbrdrl\brdrnil \clbrdrb\brdrnil \clbrdrr\brdrnil \clpadl200 \clpadr200 \gaph\cellx8640
\pard\intbl\itap1\pardeftab720\sl400\qr\partightenfactor0
\cf2 \cell 
\pard\intbl\itap1\pardeftab720\sl400\partightenfactor0
\cf2           <mxGeometry relative="1" as="geometry" />\cell \row

\itap1\trowd \taflags1 \trgaph108\trleft-108 \trcbpat3 \trbrdrl\brdrnil \trbrdrr\brdrnil 
\clvertalt \clshdrawnil \clwWidth37045\clftsWidth3 \clminw1000 \clbrdrt\brdrnil \clbrdrl\brdrnil \clbrdrb\brdrnil \clbrdrr\brdrnil \clpadl200 \clpadr200 \gaph\cellx4320
\clvertalt \clshdrawnil \clwWidth49061\clftsWidth3 \clbrdrt\brdrnil \clbrdrl\brdrnil \clbrdrb\brdrnil \clbrdrr\brdrnil \clpadl200 \clpadr200 \gaph\cellx8640
\pard\intbl\itap1\pardeftab720\sl400\qr\partightenfactor0
\cf2 \cell 
\pard\intbl\itap1\pardeftab720\sl400\partightenfactor0
\cf2         </mxCell>\cell \row

\itap1\trowd \taflags1 \trgaph108\trleft-108 \trcbpat3 \trbrdrl\brdrnil \trbrdrr\brdrnil 
\clvertalt \clshdrawnil \clwWidth37045\clftsWidth3 \clminw1000 \clbrdrt\brdrnil \clbrdrl\brdrnil \clbrdrb\brdrnil \clbrdrr\brdrnil \clpadl200 \clpadr200 \gaph\cellx4320
\clvertalt \clshdrawnil \clwWidth49061\clftsWidth3 \clbrdrt\brdrnil \clbrdrl\brdrnil \clbrdrb\brdrnil \clbrdrr\brdrnil \clpadl200 \clpadr200 \gaph\cellx8640
\pard\intbl\itap1\pardeftab720\sl400\qr\partightenfactor0
\cf2 \cell 
\pard\intbl\itap1\pardeftab720\sl400\partightenfactor0
\cf2         <mxCell id="sPDVBLaamCeaX5s3TwPM-72" value="Cat" style="rounded=1;whiteSpace=wrap;html=1;fillColor=#d5e8d4;strokeColor=#82b366;fontSize=20;" parent="WIyWlLk6GJQsqaUBKTNV-1" vertex="1">\cell \row

\itap1\trowd \taflags1 \trgaph108\trleft-108 \trcbpat3 \trbrdrl\brdrnil \trbrdrr\brdrnil 
\clvertalt \clshdrawnil \clwWidth37045\clftsWidth3 \clminw1000 \clbrdrt\brdrnil \clbrdrl\brdrnil \clbrdrb\brdrnil \clbrdrr\brdrnil \clpadl200 \clpadr200 \gaph\cellx4320
\clvertalt \clshdrawnil \clwWidth49061\clftsWidth3 \clbrdrt\brdrnil \clbrdrl\brdrnil \clbrdrb\brdrnil \clbrdrr\brdrnil \clpadl200 \clpadr200 \gaph\cellx8640
\pard\intbl\itap1\pardeftab720\sl400\qr\partightenfactor0
\cf2 \cell 
\pard\intbl\itap1\pardeftab720\sl400\partightenfactor0
\cf2           <mxGeometry x="510" y="965" width="50" height="20" as="geometry" />\cell \row

\itap1\trowd \taflags1 \trgaph108\trleft-108 \trcbpat3 \trbrdrl\brdrnil \trbrdrr\brdrnil 
\clvertalt \clshdrawnil \clwWidth37045\clftsWidth3 \clminw1000 \clbrdrt\brdrnil \clbrdrl\brdrnil \clbrdrb\brdrnil \clbrdrr\brdrnil \clpadl200 \clpadr200 \gaph\cellx4320
\clvertalt \clshdrawnil \clwWidth49061\clftsWidth3 \clbrdrt\brdrnil \clbrdrl\brdrnil \clbrdrb\brdrnil \clbrdrr\brdrnil \clpadl200 \clpadr200 \gaph\cellx8640
\pard\intbl\itap1\pardeftab720\sl400\qr\partightenfactor0
\cf2 \cell 
\pard\intbl\itap1\pardeftab720\sl400\partightenfactor0
\cf2         </mxCell>\cell \row

\itap1\trowd \taflags1 \trgaph108\trleft-108 \trcbpat3 \trbrdrl\brdrnil \trbrdrr\brdrnil 
\clvertalt \clshdrawnil \clwWidth37045\clftsWidth3 \clminw1000 \clbrdrt\brdrnil \clbrdrl\brdrnil \clbrdrb\brdrnil \clbrdrr\brdrnil \clpadl200 \clpadr200 \gaph\cellx4320
\clvertalt \clshdrawnil \clwWidth49061\clftsWidth3 \clbrdrt\brdrnil \clbrdrl\brdrnil \clbrdrb\brdrnil \clbrdrr\brdrnil \clpadl200 \clpadr200 \gaph\cellx8640
\pard\intbl\itap1\pardeftab720\sl400\qr\partightenfactor0
\cf2 \cell 
\pard\intbl\itap1\pardeftab720\sl400\partightenfactor0
\cf2         <mxCell id="sPDVBLaamCeaX5s3TwPM-79" style="edgeStyle=orthogonalEdgeStyle;rounded=0;orthogonalLoop=1;jettySize=auto;html=1;fontSize=20;" parent="WIyWlLk6GJQsqaUBKTNV-1" source="sPDVBLaamCeaX5s3TwPM-73" target="sPDVBLaamCeaX5s3TwPM-55" edge="1">\cell \row

\itap1\trowd \taflags1 \trgaph108\trleft-108 \trcbpat3 \trbrdrl\brdrnil \trbrdrr\brdrnil 
\clvertalt \clshdrawnil \clwWidth37045\clftsWidth3 \clminw1000 \clbrdrt\brdrnil \clbrdrl\brdrnil \clbrdrb\brdrnil \clbrdrr\brdrnil \clpadl200 \clpadr200 \gaph\cellx4320
\clvertalt \clshdrawnil \clwWidth49061\clftsWidth3 \clbrdrt\brdrnil \clbrdrl\brdrnil \clbrdrb\brdrnil \clbrdrr\brdrnil \clpadl200 \clpadr200 \gaph\cellx8640
\pard\intbl\itap1\pardeftab720\sl400\qr\partightenfactor0
\cf2 \cell 
\pard\intbl\itap1\pardeftab720\sl400\partightenfactor0
\cf2           <mxGeometry relative="1" as="geometry" />\cell \row

\itap1\trowd \taflags1 \trgaph108\trleft-108 \trcbpat3 \trbrdrl\brdrnil \trbrdrr\brdrnil 
\clvertalt \clshdrawnil \clwWidth37045\clftsWidth3 \clminw1000 \clbrdrt\brdrnil \clbrdrl\brdrnil \clbrdrb\brdrnil \clbrdrr\brdrnil \clpadl200 \clpadr200 \gaph\cellx4320
\clvertalt \clshdrawnil \clwWidth49061\clftsWidth3 \clbrdrt\brdrnil \clbrdrl\brdrnil \clbrdrb\brdrnil \clbrdrr\brdrnil \clpadl200 \clpadr200 \gaph\cellx8640
\pard\intbl\itap1\pardeftab720\sl400\qr\partightenfactor0
\cf2 \cell 
\pard\intbl\itap1\pardeftab720\sl400\partightenfactor0
\cf2         </mxCell>\cell \row

\itap1\trowd \taflags1 \trgaph108\trleft-108 \trcbpat3 \trbrdrl\brdrnil \trbrdrr\brdrnil 
\clvertalt \clshdrawnil \clwWidth37045\clftsWidth3 \clminw1000 \clbrdrt\brdrnil \clbrdrl\brdrnil \clbrdrb\brdrnil \clbrdrr\brdrnil \clpadl200 \clpadr200 \gaph\cellx4320
\clvertalt \clshdrawnil \clwWidth49061\clftsWidth3 \clbrdrt\brdrnil \clbrdrl\brdrnil \clbrdrb\brdrnil \clbrdrr\brdrnil \clpadl200 \clpadr200 \gaph\cellx8640
\pard\intbl\itap1\pardeftab720\sl400\qr\partightenfactor0
\cf2 \cell 
\pard\intbl\itap1\pardeftab720\sl400\partightenfactor0
\cf2         <mxCell id="sPDVBLaamCeaX5s3TwPM-73" value="Cat" style="rounded=1;whiteSpace=wrap;html=1;fillColor=#d5e8d4;strokeColor=#82b366;fontSize=20;" parent="WIyWlLk6GJQsqaUBKTNV-1" vertex="1">\cell \row

\itap1\trowd \taflags1 \trgaph108\trleft-108 \trcbpat3 \trbrdrl\brdrnil \trbrdrr\brdrnil 
\clvertalt \clshdrawnil \clwWidth37045\clftsWidth3 \clminw1000 \clbrdrt\brdrnil \clbrdrl\brdrnil \clbrdrb\brdrnil \clbrdrr\brdrnil \clpadl200 \clpadr200 \gaph\cellx4320
\clvertalt \clshdrawnil \clwWidth49061\clftsWidth3 \clbrdrt\brdrnil \clbrdrl\brdrnil \clbrdrb\brdrnil \clbrdrr\brdrnil \clpadl200 \clpadr200 \gaph\cellx8640
\pard\intbl\itap1\pardeftab720\sl400\qr\partightenfactor0
\cf2 \cell 
\pard\intbl\itap1\pardeftab720\sl400\partightenfactor0
\cf2           <mxGeometry x="510" y="890" width="50" height="20" as="geometry" />\cell \row

\itap1\trowd \taflags1 \trgaph108\trleft-108 \trcbpat3 \trbrdrl\brdrnil \trbrdrr\brdrnil 
\clvertalt \clshdrawnil \clwWidth37045\clftsWidth3 \clminw1000 \clbrdrt\brdrnil \clbrdrl\brdrnil \clbrdrb\brdrnil \clbrdrr\brdrnil \clpadl200 \clpadr200 \gaph\cellx4320
\clvertalt \clshdrawnil \clwWidth49061\clftsWidth3 \clbrdrt\brdrnil \clbrdrl\brdrnil \clbrdrb\brdrnil \clbrdrr\brdrnil \clpadl200 \clpadr200 \gaph\cellx8640
\pard\intbl\itap1\pardeftab720\sl400\qr\partightenfactor0
\cf2 \cell 
\pard\intbl\itap1\pardeftab720\sl400\partightenfactor0
\cf2         </mxCell>\cell \row

\itap1\trowd \taflags1 \trgaph108\trleft-108 \trcbpat3 \trbrdrl\brdrnil \trbrdrr\brdrnil 
\clvertalt \clshdrawnil \clwWidth37045\clftsWidth3 \clminw1000 \clbrdrt\brdrnil \clbrdrl\brdrnil \clbrdrb\brdrnil \clbrdrr\brdrnil \clpadl200 \clpadr200 \gaph\cellx4320
\clvertalt \clshdrawnil \clwWidth49061\clftsWidth3 \clbrdrt\brdrnil \clbrdrl\brdrnil \clbrdrb\brdrnil \clbrdrr\brdrnil \clpadl200 \clpadr200 \gaph\cellx8640
\pard\intbl\itap1\pardeftab720\sl400\qr\partightenfactor0
\cf2 \cell 
\pard\intbl\itap1\pardeftab720\sl400\partightenfactor0
\cf2         <mxCell id="sPDVBLaamCeaX5s3TwPM-81" style="edgeStyle=orthogonalEdgeStyle;rounded=0;orthogonalLoop=1;jettySize=auto;html=1;entryX=0;entryY=0.5;entryDx=0;entryDy=0;fontSize=20;" parent="WIyWlLk6GJQsqaUBKTNV-1" source="sPDVBLaamCeaX5s3TwPM-74" target="sPDVBLaamCeaX5s3TwPM-54" edge="1">\cell \row

\itap1\trowd \taflags1 \trgaph108\trleft-108 \trcbpat3 \trbrdrl\brdrnil \trbrdrr\brdrnil 
\clvertalt \clshdrawnil \clwWidth37045\clftsWidth3 \clminw1000 \clbrdrt\brdrnil \clbrdrl\brdrnil \clbrdrb\brdrnil \clbrdrr\brdrnil \clpadl200 \clpadr200 \gaph\cellx4320
\clvertalt \clshdrawnil \clwWidth49061\clftsWidth3 \clbrdrt\brdrnil \clbrdrl\brdrnil \clbrdrb\brdrnil \clbrdrr\brdrnil \clpadl200 \clpadr200 \gaph\cellx8640
\pard\intbl\itap1\pardeftab720\sl400\qr\partightenfactor0
\cf2 \cell 
\pard\intbl\itap1\pardeftab720\sl400\partightenfactor0
\cf2           <mxGeometry relative="1" as="geometry" />\cell \row

\itap1\trowd \taflags1 \trgaph108\trleft-108 \trcbpat3 \trbrdrl\brdrnil \trbrdrr\brdrnil 
\clvertalt \clshdrawnil \clwWidth37045\clftsWidth3 \clminw1000 \clbrdrt\brdrnil \clbrdrl\brdrnil \clbrdrb\brdrnil \clbrdrr\brdrnil \clpadl200 \clpadr200 \gaph\cellx4320
\clvertalt \clshdrawnil \clwWidth49061\clftsWidth3 \clbrdrt\brdrnil \clbrdrl\brdrnil \clbrdrb\brdrnil \clbrdrr\brdrnil \clpadl200 \clpadr200 \gaph\cellx8640
\pard\intbl\itap1\pardeftab720\sl400\qr\partightenfactor0
\cf2 \cell 
\pard\intbl\itap1\pardeftab720\sl400\partightenfactor0
\cf2         </mxCell>\cell \row

\itap1\trowd \taflags1 \trgaph108\trleft-108 \trcbpat3 \trbrdrl\brdrnil \trbrdrr\brdrnil 
\clvertalt \clshdrawnil \clwWidth37045\clftsWidth3 \clminw1000 \clbrdrt\brdrnil \clbrdrl\brdrnil \clbrdrb\brdrnil \clbrdrr\brdrnil \clpadl200 \clpadr200 \gaph\cellx4320
\clvertalt \clshdrawnil \clwWidth49061\clftsWidth3 \clbrdrt\brdrnil \clbrdrl\brdrnil \clbrdrb\brdrnil \clbrdrr\brdrnil \clpadl200 \clpadr200 \gaph\cellx8640
\pard\intbl\itap1\pardeftab720\sl400\qr\partightenfactor0
\cf2 \cell 
\pard\intbl\itap1\pardeftab720\sl400\partightenfactor0
\cf2         <mxCell id="sPDVBLaamCeaX5s3TwPM-74" value="Cat" style="rounded=1;whiteSpace=wrap;html=1;fillColor=#d5e8d4;strokeColor=#82b366;fontSize=20;" parent="WIyWlLk6GJQsqaUBKTNV-1" vertex="1">\cell \row

\itap1\trowd \taflags1 \trgaph108\trleft-108 \trcbpat3 \trbrdrl\brdrnil \trbrdrr\brdrnil 
\clvertalt \clshdrawnil \clwWidth37045\clftsWidth3 \clminw1000 \clbrdrt\brdrnil \clbrdrl\brdrnil \clbrdrb\brdrnil \clbrdrr\brdrnil \clpadl200 \clpadr200 \gaph\cellx4320
\clvertalt \clshdrawnil \clwWidth49061\clftsWidth3 \clbrdrt\brdrnil \clbrdrl\brdrnil \clbrdrb\brdrnil \clbrdrr\brdrnil \clpadl200 \clpadr200 \gaph\cellx8640
\pard\intbl\itap1\pardeftab720\sl400\qr\partightenfactor0
\cf2 \cell 
\pard\intbl\itap1\pardeftab720\sl400\partightenfactor0
\cf2           <mxGeometry x="510" y="815" width="50" height="20" as="geometry" />\cell \row

\itap1\trowd \taflags1 \trgaph108\trleft-108 \trcbpat3 \trbrdrl\brdrnil \trbrdrr\brdrnil 
\clvertalt \clshdrawnil \clwWidth37045\clftsWidth3 \clminw1000 \clbrdrt\brdrnil \clbrdrl\brdrnil \clbrdrb\brdrnil \clbrdrr\brdrnil \clpadl200 \clpadr200 \gaph\cellx4320
\clvertalt \clshdrawnil \clwWidth49061\clftsWidth3 \clbrdrt\brdrnil \clbrdrl\brdrnil \clbrdrb\brdrnil \clbrdrr\brdrnil \clpadl200 \clpadr200 \gaph\cellx8640
\pard\intbl\itap1\pardeftab720\sl400\qr\partightenfactor0
\cf2 \cell 
\pard\intbl\itap1\pardeftab720\sl400\partightenfactor0
\cf2         </mxCell>\cell \row

\itap1\trowd \taflags1 \trgaph108\trleft-108 \trcbpat3 \trbrdrl\brdrnil \trbrdrr\brdrnil 
\clvertalt \clshdrawnil \clwWidth37045\clftsWidth3 \clminw1000 \clbrdrt\brdrnil \clbrdrl\brdrnil \clbrdrb\brdrnil \clbrdrr\brdrnil \clpadl200 \clpadr200 \gaph\cellx4320
\clvertalt \clshdrawnil \clwWidth49061\clftsWidth3 \clbrdrt\brdrnil \clbrdrl\brdrnil \clbrdrb\brdrnil \clbrdrr\brdrnil \clpadl200 \clpadr200 \gaph\cellx8640
\pard\intbl\itap1\pardeftab720\sl400\qr\partightenfactor0
\cf2 \cell 
\pard\intbl\itap1\pardeftab720\sl400\partightenfactor0
\cf2         <mxCell id="sPDVBLaamCeaX5s3TwPM-83" style="edgeStyle=orthogonalEdgeStyle;rounded=0;orthogonalLoop=1;jettySize=auto;html=1;fontSize=20;" parent="WIyWlLk6GJQsqaUBKTNV-1" source="sPDVBLaamCeaX5s3TwPM-75" target="sPDVBLaamCeaX5s3TwPM-53" edge="1">\cell \row

\itap1\trowd \taflags1 \trgaph108\trleft-108 \trcbpat3 \trbrdrl\brdrnil \trbrdrr\brdrnil 
\clvertalt \clshdrawnil \clwWidth37045\clftsWidth3 \clminw1000 \clbrdrt\brdrnil \clbrdrl\brdrnil \clbrdrb\brdrnil \clbrdrr\brdrnil \clpadl200 \clpadr200 \gaph\cellx4320
\clvertalt \clshdrawnil \clwWidth49061\clftsWidth3 \clbrdrt\brdrnil \clbrdrl\brdrnil \clbrdrb\brdrnil \clbrdrr\brdrnil \clpadl200 \clpadr200 \gaph\cellx8640
\pard\intbl\itap1\pardeftab720\sl400\qr\partightenfactor0
\cf2 \cell 
\pard\intbl\itap1\pardeftab720\sl400\partightenfactor0
\cf2           <mxGeometry relative="1" as="geometry" />\cell \row

\itap1\trowd \taflags1 \trgaph108\trleft-108 \trcbpat3 \trbrdrl\brdrnil \trbrdrr\brdrnil 
\clvertalt \clshdrawnil \clwWidth37045\clftsWidth3 \clminw1000 \clbrdrt\brdrnil \clbrdrl\brdrnil \clbrdrb\brdrnil \clbrdrr\brdrnil \clpadl200 \clpadr200 \gaph\cellx4320
\clvertalt \clshdrawnil \clwWidth49061\clftsWidth3 \clbrdrt\brdrnil \clbrdrl\brdrnil \clbrdrb\brdrnil \clbrdrr\brdrnil \clpadl200 \clpadr200 \gaph\cellx8640
\pard\intbl\itap1\pardeftab720\sl400\qr\partightenfactor0
\cf2 \cell 
\pard\intbl\itap1\pardeftab720\sl400\partightenfactor0
\cf2         </mxCell>\cell \row

\itap1\trowd \taflags1 \trgaph108\trleft-108 \trcbpat3 \trbrdrl\brdrnil \trbrdrr\brdrnil 
\clvertalt \clshdrawnil \clwWidth37045\clftsWidth3 \clminw1000 \clbrdrt\brdrnil \clbrdrl\brdrnil \clbrdrb\brdrnil \clbrdrr\brdrnil \clpadl200 \clpadr200 \gaph\cellx4320
\clvertalt \clshdrawnil \clwWidth49061\clftsWidth3 \clbrdrt\brdrnil \clbrdrl\brdrnil \clbrdrb\brdrnil \clbrdrr\brdrnil \clpadl200 \clpadr200 \gaph\cellx8640
\pard\intbl\itap1\pardeftab720\sl400\qr\partightenfactor0
\cf2 \cell 
\pard\intbl\itap1\pardeftab720\sl400\partightenfactor0
\cf2         <mxCell id="sPDVBLaamCeaX5s3TwPM-75" value="Cat" style="rounded=1;whiteSpace=wrap;html=1;fillColor=#d5e8d4;strokeColor=#82b366;fontSize=20;" parent="WIyWlLk6GJQsqaUBKTNV-1" vertex="1">\cell \row

\itap1\trowd \taflags1 \trgaph108\trleft-108 \trcbpat3 \trbrdrl\brdrnil \trbrdrr\brdrnil 
\clvertalt \clshdrawnil \clwWidth37045\clftsWidth3 \clminw1000 \clbrdrt\brdrnil \clbrdrl\brdrnil \clbrdrb\brdrnil \clbrdrr\brdrnil \clpadl200 \clpadr200 \gaph\cellx4320
\clvertalt \clshdrawnil \clwWidth49061\clftsWidth3 \clbrdrt\brdrnil \clbrdrl\brdrnil \clbrdrb\brdrnil \clbrdrr\brdrnil \clpadl200 \clpadr200 \gaph\cellx8640
\pard\intbl\itap1\pardeftab720\sl400\qr\partightenfactor0
\cf2 \cell 
\pard\intbl\itap1\pardeftab720\sl400\partightenfactor0
\cf2           <mxGeometry x="510" y="740" width="50" height="20" as="geometry" />\cell \row

\itap1\trowd \taflags1 \trgaph108\trleft-108 \trcbpat3 \trbrdrl\brdrnil \trbrdrr\brdrnil 
\clvertalt \clshdrawnil \clwWidth37045\clftsWidth3 \clminw1000 \clbrdrt\brdrnil \clbrdrl\brdrnil \clbrdrb\brdrnil \clbrdrr\brdrnil \clpadl200 \clpadr200 \gaph\cellx4320
\clvertalt \clshdrawnil \clwWidth49061\clftsWidth3 \clbrdrt\brdrnil \clbrdrl\brdrnil \clbrdrb\brdrnil \clbrdrr\brdrnil \clpadl200 \clpadr200 \gaph\cellx8640
\pard\intbl\itap1\pardeftab720\sl400\qr\partightenfactor0
\cf2 \cell 
\pard\intbl\itap1\pardeftab720\sl400\partightenfactor0
\cf2         </mxCell>\cell \row

\itap1\trowd \taflags1 \trgaph108\trleft-108 \trcbpat3 \trbrdrl\brdrnil \trbrdrr\brdrnil 
\clvertalt \clshdrawnil \clwWidth37045\clftsWidth3 \clminw1000 \clbrdrt\brdrnil \clbrdrl\brdrnil \clbrdrb\brdrnil \clbrdrr\brdrnil \clpadl200 \clpadr200 \gaph\cellx4320
\clvertalt \clshdrawnil \clwWidth49061\clftsWidth3 \clbrdrt\brdrnil \clbrdrl\brdrnil \clbrdrb\brdrnil \clbrdrr\brdrnil \clpadl200 \clpadr200 \gaph\cellx8640
\pard\intbl\itap1\pardeftab720\sl400\qr\partightenfactor0
\cf2 \cell 
\pard\intbl\itap1\pardeftab720\sl400\partightenfactor0
\cf2         <mxCell id="07mqXIemjpvf2Ur7vXoQ-9" style="edgeStyle=orthogonalEdgeStyle;rounded=0;orthogonalLoop=1;jettySize=auto;html=1;entryX=0.5;entryY=1.333;entryDx=0;entryDy=0;entryPerimeter=0;fontSize=20;" edge="1" parent="WIyWlLk6GJQsqaUBKTNV-1" source="sPDVBLaamCeaX5s3TwPM-84" target="07mqXIemjpvf2Ur7vXoQ-2">\cell \row

\itap1\trowd \taflags1 \trgaph108\trleft-108 \trcbpat3 \trbrdrl\brdrnil \trbrdrr\brdrnil 
\clvertalt \clshdrawnil \clwWidth37045\clftsWidth3 \clminw1000 \clbrdrt\brdrnil \clbrdrl\brdrnil \clbrdrb\brdrnil \clbrdrr\brdrnil \clpadl200 \clpadr200 \gaph\cellx4320
\clvertalt \clshdrawnil \clwWidth49061\clftsWidth3 \clbrdrt\brdrnil \clbrdrl\brdrnil \clbrdrb\brdrnil \clbrdrr\brdrnil \clpadl200 \clpadr200 \gaph\cellx8640
\pard\intbl\itap1\pardeftab720\sl400\qr\partightenfactor0
\cf2 \cell 
\pard\intbl\itap1\pardeftab720\sl400\partightenfactor0
\cf2           <mxGeometry relative="1" as="geometry" />\cell \row

\itap1\trowd \taflags1 \trgaph108\trleft-108 \trcbpat3 \trbrdrl\brdrnil \trbrdrr\brdrnil 
\clvertalt \clshdrawnil \clwWidth37045\clftsWidth3 \clminw1000 \clbrdrt\brdrnil \clbrdrl\brdrnil \clbrdrb\brdrnil \clbrdrr\brdrnil \clpadl200 \clpadr200 \gaph\cellx4320
\clvertalt \clshdrawnil \clwWidth49061\clftsWidth3 \clbrdrt\brdrnil \clbrdrl\brdrnil \clbrdrb\brdrnil \clbrdrr\brdrnil \clpadl200 \clpadr200 \gaph\cellx8640
\pard\intbl\itap1\pardeftab720\sl400\qr\partightenfactor0
\cf2 \cell 
\pard\intbl\itap1\pardeftab720\sl400\partightenfactor0
\cf2         </mxCell>\cell \row

\itap1\trowd \taflags1 \trgaph108\trleft-108 \trcbpat3 \trbrdrl\brdrnil \trbrdrr\brdrnil 
\clvertalt \clshdrawnil \clwWidth37045\clftsWidth3 \clminw1000 \clbrdrt\brdrnil \clbrdrl\brdrnil \clbrdrb\brdrnil \clbrdrr\brdrnil \clpadl200 \clpadr200 \gaph\cellx4320
\clvertalt \clshdrawnil \clwWidth49061\clftsWidth3 \clbrdrt\brdrnil \clbrdrl\brdrnil \clbrdrb\brdrnil \clbrdrr\brdrnil \clpadl200 \clpadr200 \gaph\cellx8640
\pard\intbl\itap1\pardeftab720\sl400\qr\partightenfactor0
\cf2 \cell 
\pard\intbl\itap1\pardeftab720\sl400\partightenfactor0
\cf2         <mxCell id="sPDVBLaamCeaX5s3TwPM-84" value="3 x 1 Conv (32)" style="whiteSpace=wrap;html=1;fillColor=#fff2cc;strokeColor=#d6b656;fontSize=20;" parent="WIyWlLk6GJQsqaUBKTNV-1" vertex="1">\cell \row

\itap1\trowd \taflags1 \trgaph108\trleft-108 \trcbpat3 \trbrdrl\brdrnil \trbrdrr\brdrnil 
\clvertalt \clshdrawnil \clwWidth37045\clftsWidth3 \clminw1000 \clbrdrt\brdrnil \clbrdrl\brdrnil \clbrdrb\brdrnil \clbrdrr\brdrnil \clpadl200 \clpadr200 \gaph\cellx4320
\clvertalt \clshdrawnil \clwWidth49061\clftsWidth3 \clbrdrt\brdrnil \clbrdrl\brdrnil \clbrdrb\brdrnil \clbrdrr\brdrnil \clpadl200 \clpadr200 \gaph\cellx8640
\pard\intbl\itap1\pardeftab720\sl400\qr\partightenfactor0
\cf2 \cell 
\pard\intbl\itap1\pardeftab720\sl400\partightenfactor0
\cf2           <mxGeometry x="585" y="665" width="140" height="30" as="geometry" />\cell \row

\itap1\trowd \taflags1 \trgaph108\trleft-108 \trcbpat3 \trbrdrl\brdrnil \trbrdrr\brdrnil 
\clvertalt \clshdrawnil \clwWidth37045\clftsWidth3 \clminw1000 \clbrdrt\brdrnil \clbrdrl\brdrnil \clbrdrb\brdrnil \clbrdrr\brdrnil \clpadl200 \clpadr200 \gaph\cellx4320
\clvertalt \clshdrawnil \clwWidth49061\clftsWidth3 \clbrdrt\brdrnil \clbrdrl\brdrnil \clbrdrb\brdrnil \clbrdrr\brdrnil \clpadl200 \clpadr200 \gaph\cellx8640
\pard\intbl\itap1\pardeftab720\sl400\qr\partightenfactor0
\cf2 \cell 
\pard\intbl\itap1\pardeftab720\sl400\partightenfactor0
\cf2         </mxCell>\cell \row

\itap1\trowd \taflags1 \trgaph108\trleft-108 \trcbpat3 \trbrdrl\brdrnil \trbrdrr\brdrnil 
\clvertalt \clshdrawnil \clwWidth37045\clftsWidth3 \clminw1000 \clbrdrt\brdrnil \clbrdrl\brdrnil \clbrdrb\brdrnil \clbrdrr\brdrnil \clpadl200 \clpadr200 \gaph\cellx4320
\clvertalt \clshdrawnil \clwWidth49061\clftsWidth3 \clbrdrt\brdrnil \clbrdrl\brdrnil \clbrdrb\brdrnil \clbrdrr\brdrnil \clpadl200 \clpadr200 \gaph\cellx8640
\pard\intbl\itap1\pardeftab720\sl400\qr\partightenfactor0
\cf2 \cell 
\pard\intbl\itap1\pardeftab720\sl400\partightenfactor0
\cf2         <mxCell id="07mqXIemjpvf2Ur7vXoQ-4" style="edgeStyle=orthogonalEdgeStyle;rounded=0;orthogonalLoop=1;jettySize=auto;html=1;entryX=0.5;entryY=0;entryDx=0;entryDy=0;" edge="1" parent="WIyWlLk6GJQsqaUBKTNV-1" source="07mqXIemjpvf2Ur7vXoQ-0" target="sPDVBLaamCeaX5s3TwPM-18">\cell \row

\itap1\trowd \taflags1 \trgaph108\trleft-108 \trcbpat3 \trbrdrl\brdrnil \trbrdrr\brdrnil 
\clvertalt \clshdrawnil \clwWidth37045\clftsWidth3 \clminw1000 \clbrdrt\brdrnil \clbrdrl\brdrnil \clbrdrb\brdrnil \clbrdrr\brdrnil \clpadl200 \clpadr200 \gaph\cellx4320
\clvertalt \clshdrawnil \clwWidth49061\clftsWidth3 \clbrdrt\brdrnil \clbrdrl\brdrnil \clbrdrb\brdrnil \clbrdrr\brdrnil \clpadl200 \clpadr200 \gaph\cellx8640
\pard\intbl\itap1\pardeftab720\sl400\qr\partightenfactor0
\cf2 \cell 
\pard\intbl\itap1\pardeftab720\sl400\partightenfactor0
\cf2           <mxGeometry relative="1" as="geometry" />\cell \row

\itap1\trowd \taflags1 \trgaph108\trleft-108 \trcbpat3 \trbrdrl\brdrnil \trbrdrr\brdrnil 
\clvertalt \clshdrawnil \clwWidth37045\clftsWidth3 \clminw1000 \clbrdrt\brdrnil \clbrdrl\brdrnil \clbrdrb\brdrnil \clbrdrr\brdrnil \clpadl200 \clpadr200 \gaph\cellx4320
\clvertalt \clshdrawnil \clwWidth49061\clftsWidth3 \clbrdrt\brdrnil \clbrdrl\brdrnil \clbrdrb\brdrnil \clbrdrr\brdrnil \clpadl200 \clpadr200 \gaph\cellx8640
\pard\intbl\itap1\pardeftab720\sl400\qr\partightenfactor0
\cf2 \cell 
\pard\intbl\itap1\pardeftab720\sl400\partightenfactor0
\cf2         </mxCell>\cell \row

\itap1\trowd \taflags1 \trgaph108\trleft-108 \trcbpat3 \trbrdrl\brdrnil \trbrdrr\brdrnil 
\clvertalt \clshdrawnil \clwWidth37045\clftsWidth3 \clminw1000 \clbrdrt\brdrnil \clbrdrl\brdrnil \clbrdrb\brdrnil \clbrdrr\brdrnil \clpadl200 \clpadr200 \gaph\cellx4320
\clvertalt \clshdrawnil \clwWidth49061\clftsWidth3 \clbrdrt\brdrnil \clbrdrl\brdrnil \clbrdrb\brdrnil \clbrdrr\brdrnil \clpadl200 \clpadr200 \gaph\cellx8640
\pard\intbl\itap1\pardeftab720\sl400\qr\partightenfactor0
\cf2 \cell 
\pard\intbl\itap1\pardeftab720\sl400\partightenfactor0
\cf2         <mxCell id="07mqXIemjpvf2Ur7vXoQ-0" value="&lt;font style=&quot;font-size: 30px&quot;&gt;$$\\sigma(t)$$&lt;/font&gt;" style="text;html=1;align=center;verticalAlign=middle;resizable=0;points=[];autosize=1;strokeColor=none;" vertex="1" parent="WIyWlLk6GJQsqaUBKTNV-1">\cell \row

\itap1\trowd \taflags1 \trgaph108\trleft-108 \trcbpat3 \trbrdrl\brdrnil \trbrdrr\brdrnil 
\clvertalt \clshdrawnil \clwWidth37045\clftsWidth3 \clminw1000 \clbrdrt\brdrnil \clbrdrl\brdrnil \clbrdrb\brdrnil \clbrdrr\brdrnil \clpadl200 \clpadr200 \gaph\cellx4320
\clvertalt \clshdrawnil \clwWidth49061\clftsWidth3 \clbrdrt\brdrnil \clbrdrl\brdrnil \clbrdrb\brdrnil \clbrdrr\brdrnil \clpadl200 \clpadr200 \gaph\cellx8640
\pard\intbl\itap1\pardeftab720\sl400\qr\partightenfactor0
\cf2 \cell 
\pard\intbl\itap1\pardeftab720\sl400\partightenfactor0
\cf2           <mxGeometry y="615" width="200" height="30" as="geometry" />\cell \row

\itap1\trowd \taflags1 \trgaph108\trleft-108 \trcbpat3 \trbrdrl\brdrnil \trbrdrr\brdrnil 
\clvertalt \clshdrawnil \clwWidth37045\clftsWidth3 \clminw1000 \clbrdrt\brdrnil \clbrdrl\brdrnil \clbrdrb\brdrnil \clbrdrr\brdrnil \clpadl200 \clpadr200 \gaph\cellx4320
\clvertalt \clshdrawnil \clwWidth49061\clftsWidth3 \clbrdrt\brdrnil \clbrdrl\brdrnil \clbrdrb\brdrnil \clbrdrr\brdrnil \clpadl200 \clpadr200 \gaph\cellx8640
\pard\intbl\itap1\pardeftab720\sl400\qr\partightenfactor0
\cf2 \cell 
\pard\intbl\itap1\pardeftab720\sl400\partightenfactor0
\cf2         </mxCell>\cell \row

\itap1\trowd \taflags1 \trgaph108\trleft-108 \trcbpat3 \trbrdrl\brdrnil \trbrdrr\brdrnil 
\clvertalt \clshdrawnil \clwWidth37045\clftsWidth3 \clminw1000 \clbrdrt\brdrnil \clbrdrl\brdrnil \clbrdrb\brdrnil \clbrdrr\brdrnil \clpadl200 \clpadr200 \gaph\cellx4320
\clvertalt \clshdrawnil \clwWidth49061\clftsWidth3 \clbrdrt\brdrnil \clbrdrl\brdrnil \clbrdrb\brdrnil \clbrdrr\brdrnil \clpadl200 \clpadr200 \gaph\cellx8640
\pard\intbl\itap1\pardeftab720\sl400\qr\partightenfactor0
\cf2 \cell 
\pard\intbl\itap1\pardeftab720\sl400\partightenfactor0
\cf2         <mxCell id="07mqXIemjpvf2Ur7vXoQ-7" style="edgeStyle=orthogonalEdgeStyle;rounded=0;orthogonalLoop=1;jettySize=auto;html=1;fontSize=20;entryX=0.5;entryY=0;entryDx=0;entryDy=0;" edge="1" parent="WIyWlLk6GJQsqaUBKTNV-1" source="07mqXIemjpvf2Ur7vXoQ-1" target="sPDVBLaamCeaX5s3TwPM-2">\cell \row

\itap1\trowd \taflags1 \trgaph108\trleft-108 \trcbpat3 \trbrdrl\brdrnil \trbrdrr\brdrnil 
\clvertalt \clshdrawnil \clwWidth37045\clftsWidth3 \clminw1000 \clbrdrt\brdrnil \clbrdrl\brdrnil \clbrdrb\brdrnil \clbrdrr\brdrnil \clpadl200 \clpadr200 \gaph\cellx4320
\clvertalt \clshdrawnil \clwWidth49061\clftsWidth3 \clbrdrt\brdrnil \clbrdrl\brdrnil \clbrdrb\brdrnil \clbrdrr\brdrnil \clpadl200 \clpadr200 \gaph\cellx8640
\pard\intbl\itap1\pardeftab720\sl400\qr\partightenfactor0
\cf2 \cell 
\pard\intbl\itap1\pardeftab720\sl400\partightenfactor0
\cf2           <mxGeometry relative="1" as="geometry">\cell \row

\itap1\trowd \taflags1 \trgaph108\trleft-108 \trcbpat3 \trbrdrl\brdrnil \trbrdrr\brdrnil 
\clvertalt \clshdrawnil \clwWidth37045\clftsWidth3 \clminw1000 \clbrdrt\brdrnil \clbrdrl\brdrnil \clbrdrb\brdrnil \clbrdrr\brdrnil \clpadl200 \clpadr200 \gaph\cellx4320
\clvertalt \clshdrawnil \clwWidth49061\clftsWidth3 \clbrdrt\brdrnil \clbrdrl\brdrnil \clbrdrb\brdrnil \clbrdrr\brdrnil \clpadl200 \clpadr200 \gaph\cellx8640
\pard\intbl\itap1\pardeftab720\sl400\qr\partightenfactor0
\cf2 \cell 
\pard\intbl\itap1\pardeftab720\sl400\partightenfactor0
\cf2             <mxPoint x="390" y="650" as="targetPoint" />\cell \row

\itap1\trowd \taflags1 \trgaph108\trleft-108 \trcbpat3 \trbrdrl\brdrnil \trbrdrr\brdrnil 
\clvertalt \clshdrawnil \clwWidth37045\clftsWidth3 \clminw1000 \clbrdrt\brdrnil \clbrdrl\brdrnil \clbrdrb\brdrnil \clbrdrr\brdrnil \clpadl200 \clpadr200 \gaph\cellx4320
\clvertalt \clshdrawnil \clwWidth49061\clftsWidth3 \clbrdrt\brdrnil \clbrdrl\brdrnil \clbrdrb\brdrnil \clbrdrr\brdrnil \clpadl200 \clpadr200 \gaph\cellx8640
\pard\intbl\itap1\pardeftab720\sl400\qr\partightenfactor0
\cf2 \cell 
\pard\intbl\itap1\pardeftab720\sl400\partightenfactor0
\cf2           </mxGeometry>\cell \row

\itap1\trowd \taflags1 \trgaph108\trleft-108 \trcbpat3 \trbrdrl\brdrnil \trbrdrr\brdrnil 
\clvertalt \clshdrawnil \clwWidth37045\clftsWidth3 \clminw1000 \clbrdrt\brdrnil \clbrdrl\brdrnil \clbrdrb\brdrnil \clbrdrr\brdrnil \clpadl200 \clpadr200 \gaph\cellx4320
\clvertalt \clshdrawnil \clwWidth49061\clftsWidth3 \clbrdrt\brdrnil \clbrdrl\brdrnil \clbrdrb\brdrnil \clbrdrr\brdrnil \clpadl200 \clpadr200 \gaph\cellx8640
\pard\intbl\itap1\pardeftab720\sl400\qr\partightenfactor0
\cf2 \cell 
\pard\intbl\itap1\pardeftab720\sl400\partightenfactor0
\cf2         </mxCell>\cell \row

\itap1\trowd \taflags1 \trgaph108\trleft-108 \trcbpat3 \trbrdrl\brdrnil \trbrdrr\brdrnil 
\clvertalt \clshdrawnil \clwWidth37045\clftsWidth3 \clminw1000 \clbrdrt\brdrnil \clbrdrl\brdrnil \clbrdrb\brdrnil \clbrdrr\brdrnil \clpadl200 \clpadr200 \gaph\cellx4320
\clvertalt \clshdrawnil \clwWidth49061\clftsWidth3 \clbrdrt\brdrnil \clbrdrl\brdrnil \clbrdrb\brdrnil \clbrdrr\brdrnil \clpadl200 \clpadr200 \gaph\cellx8640
\pard\intbl\itap1\pardeftab720\sl400\qr\partightenfactor0
\cf2 \cell 
\pard\intbl\itap1\pardeftab720\sl400\partightenfactor0
\cf2         <mxCell id="07mqXIemjpvf2Ur7vXoQ-1" value="&lt;font style=&quot;font-size: 25px&quot;&gt;$$\\mathbf\{x\}(t) = m(t)\\mathbf\{x\}&lt;br&gt;(0) + \\sigma(t) \\epsilon$$&lt;/font&gt;" style="text;html=1;align=center;verticalAlign=middle;resizable=0;points=[];autosize=1;strokeColor=none;" vertex="1" parent="WIyWlLk6GJQsqaUBKTNV-1">\cell \row

\itap1\trowd \taflags1 \trgaph108\trleft-108 \trcbpat3 \trbrdrl\brdrnil \trbrdrr\brdrnil 
\clvertalt \clshdrawnil \clwWidth37045\clftsWidth3 \clminw1000 \clbrdrt\brdrnil \clbrdrl\brdrnil \clbrdrb\brdrnil \clbrdrr\brdrnil \clpadl200 \clpadr200 \gaph\cellx4320
\clvertalt \clshdrawnil \clwWidth49061\clftsWidth3 \clbrdrt\brdrnil \clbrdrl\brdrnil \clbrdrb\brdrnil \clbrdrr\brdrnil \clpadl200 \clpadr200 \gaph\cellx8640
\pard\intbl\itap1\pardeftab720\sl400\qr\partightenfactor0
\cf2 \cell 
\pard\intbl\itap1\pardeftab720\sl400\partightenfactor0
\cf2           <mxGeometry x="235" y="560" width="360" height="40" as="geometry" />\cell \row

\itap1\trowd \taflags1 \trgaph108\trleft-108 \trcbpat3 \trbrdrl\brdrnil \trbrdrr\brdrnil 
\clvertalt \clshdrawnil \clwWidth37045\clftsWidth3 \clminw1000 \clbrdrt\brdrnil \clbrdrl\brdrnil \clbrdrb\brdrnil \clbrdrr\brdrnil \clpadl200 \clpadr200 \gaph\cellx4320
\clvertalt \clshdrawnil \clwWidth49061\clftsWidth3 \clbrdrt\brdrnil \clbrdrl\brdrnil \clbrdrb\brdrnil \clbrdrr\brdrnil \clpadl200 \clpadr200 \gaph\cellx8640
\pard\intbl\itap1\pardeftab720\sl400\qr\partightenfactor0
\cf2 \cell 
\pard\intbl\itap1\pardeftab720\sl400\partightenfactor0
\cf2         </mxCell>\cell \row

\itap1\trowd \taflags1 \trgaph108\trleft-108 \trcbpat3 \trbrdrl\brdrnil \trbrdrr\brdrnil 
\clvertalt \clshdrawnil \clwWidth37045\clftsWidth3 \clminw1000 \clbrdrt\brdrnil \clbrdrl\brdrnil \clbrdrb\brdrnil \clbrdrr\brdrnil \clpadl200 \clpadr200 \gaph\cellx4320
\clvertalt \clshdrawnil \clwWidth49061\clftsWidth3 \clbrdrt\brdrnil \clbrdrl\brdrnil \clbrdrb\brdrnil \clbrdrr\brdrnil \clpadl200 \clpadr200 \gaph\cellx8640
\pard\intbl\itap1\pardeftab720\sl400\qr\partightenfactor0
\cf2 \cell 
\pard\intbl\itap1\pardeftab720\sl400\partightenfactor0
\cf2         <mxCell id="07mqXIemjpvf2Ur7vXoQ-2" value="&lt;font style=&quot;font-size: 30px&quot;&gt;$$\\epsilon_\\text\{estimated\}$$&lt;/font&gt;" style="text;html=1;align=center;verticalAlign=middle;resizable=0;points=[];autosize=1;strokeColor=none;" vertex="1" parent="WIyWlLk6GJQsqaUBKTNV-1">\cell \row

\itap1\trowd \taflags1 \trgaph108\trleft-108 \trcbpat3 \trbrdrl\brdrnil \trbrdrr\brdrnil 
\clvertalt \clshdrawnil \clwWidth37045\clftsWidth3 \clminw1000 \clbrdrt\brdrnil \clbrdrl\brdrnil \clbrdrb\brdrnil \clbrdrr\brdrnil \clpadl200 \clpadr200 \gaph\cellx4320
\clvertalt \clshdrawnil \clwWidth49061\clftsWidth3 \clbrdrt\brdrnil \clbrdrl\brdrnil \clbrdrb\brdrnil \clbrdrr\brdrnil \clpadl200 \clpadr200 \gaph\cellx8640
\pard\intbl\itap1\pardeftab720\sl400\qr\partightenfactor0
\cf2 \cell 
\pard\intbl\itap1\pardeftab720\sl400\partightenfactor0
\cf2           <mxGeometry x="450" y="510" width="410" height="30" as="geometry" />\cell \row

\itap1\trowd \taflags1 \trgaph108\trleft-108 \trcbpat3 \trbrdrl\brdrnil \trbrdrr\brdrnil 
\clvertalt \clshdrawnil \clwWidth37045\clftsWidth3 \clminw1000 \clbrdrt\brdrnil \clbrdrl\brdrnil \clbrdrb\brdrnil \clbrdrr\brdrnil \clpadl200 \clpadr200 \gaph\cellx4320
\clvertalt \clshdrawnil \clwWidth49061\clftsWidth3 \clbrdrt\brdrnil \clbrdrl\brdrnil \clbrdrb\brdrnil \clbrdrr\brdrnil \clpadl200 \clpadr200 \gaph\cellx8640
\pard\intbl\itap1\pardeftab720\sl400\qr\partightenfactor0
\cf2 \cell 
\pard\intbl\itap1\pardeftab720\sl400\partightenfactor0
\cf2         </mxCell>\cell \row

\itap1\trowd \taflags1 \trgaph108\trleft-108 \trcbpat3 \trbrdrl\brdrnil \trbrdrr\brdrnil 
\clvertalt \clshdrawnil \clwWidth37045\clftsWidth3 \clminw1000 \clbrdrt\brdrnil \clbrdrl\brdrnil \clbrdrb\brdrnil \clbrdrr\brdrnil \clpadl200 \clpadr200 \gaph\cellx4320
\clvertalt \clshdrawnil \clwWidth49061\clftsWidth3 \clbrdrt\brdrnil \clbrdrl\brdrnil \clbrdrb\brdrnil \clbrdrr\brdrnil \clpadl200 \clpadr200 \gaph\cellx8640
\pard\intbl\itap1\pardeftab720\sl400\qr\partightenfactor0
\cf2 \cell 
\pard\intbl\itap1\pardeftab720\sl400\partightenfactor0
\cf2         <mxCell id="07mqXIemjpvf2Ur7vXoQ-6" style="edgeStyle=orthogonalEdgeStyle;rounded=0;orthogonalLoop=1;jettySize=auto;html=1;exitX=0.5;exitY=1;exitDx=0;exitDy=0;fontSize=20;" edge="1" parent="WIyWlLk6GJQsqaUBKTNV-1" source="sPDVBLaamCeaX5s3TwPM-73" target="sPDVBLaamCeaX5s3TwPM-73">\cell \row

\itap1\trowd \taflags1 \trgaph108\trleft-108 \trcbpat3 \trbrdrl\brdrnil \trbrdrr\brdrnil 
\clvertalt \clshdrawnil \clwWidth37045\clftsWidth3 \clminw1000 \clbrdrt\brdrnil \clbrdrl\brdrnil \clbrdrb\brdrnil \clbrdrr\brdrnil \clpadl200 \clpadr200 \gaph\cellx4320
\clvertalt \clshdrawnil \clwWidth49061\clftsWidth3 \clbrdrt\brdrnil \clbrdrl\brdrnil \clbrdrb\brdrnil \clbrdrr\brdrnil \clpadl200 \clpadr200 \gaph\cellx8640
\pard\intbl\itap1\pardeftab720\sl400\qr\partightenfactor0
\cf2 \cell 
\pard\intbl\itap1\pardeftab720\sl400\partightenfactor0
\cf2           <mxGeometry relative="1" as="geometry" />\cell \row

\itap1\trowd \taflags1 \trgaph108\trleft-108 \trcbpat3 \trbrdrl\brdrnil \trbrdrr\brdrnil 
\clvertalt \clshdrawnil \clwWidth37045\clftsWidth3 \clminw1000 \clbrdrt\brdrnil \clbrdrl\brdrnil \clbrdrb\brdrnil \clbrdrr\brdrnil \clpadl200 \clpadr200 \gaph\cellx4320
\clvertalt \clshdrawnil \clwWidth49061\clftsWidth3 \clbrdrt\brdrnil \clbrdrl\brdrnil \clbrdrb\brdrnil \clbrdrr\brdrnil \clpadl200 \clpadr200 \gaph\cellx8640
\pard\intbl\itap1\pardeftab720\sl400\qr\partightenfactor0
\cf2 \cell 
\pard\intbl\itap1\pardeftab720\sl400\partightenfactor0
\cf2         </mxCell>\cell \row

\itap1\trowd \taflags1 \trgaph108\trleft-108 \trcbpat3 \trbrdrl\brdrnil \trbrdrr\brdrnil 
\clvertalt \clshdrawnil \clwWidth37045\clftsWidth3 \clminw1000 \clbrdrt\brdrnil \clbrdrl\brdrnil \clbrdrb\brdrnil \clbrdrr\brdrnil \clpadl200 \clpadr200 \gaph\cellx4320
\clvertalt \clshdrawnil \clwWidth49061\clftsWidth3 \clbrdrt\brdrnil \clbrdrl\brdrnil \clbrdrb\brdrnil \clbrdrr\brdrnil \clpadl200 \clpadr200 \gaph\cellx8640
\pard\intbl\itap1\pardeftab720\sl400\qr\partightenfactor0
\cf2 \cell 
\pard\intbl\itap1\pardeftab720\sl400\partightenfactor0
\cf2       </root>\cell \row

\itap1\trowd \taflags1 \trgaph108\trleft-108 \trcbpat3 \trbrdrl\brdrnil \trbrdrr\brdrnil 
\clvertalt \clshdrawnil \clwWidth37045\clftsWidth3 \clminw1000 \clbrdrt\brdrnil \clbrdrl\brdrnil \clbrdrb\brdrnil \clbrdrr\brdrnil \clpadl200 \clpadr200 \gaph\cellx4320
\clvertalt \clshdrawnil \clwWidth49061\clftsWidth3 \clbrdrt\brdrnil \clbrdrl\brdrnil \clbrdrb\brdrnil \clbrdrr\brdrnil \clpadl200 \clpadr200 \gaph\cellx8640
\pard\intbl\itap1\pardeftab720\sl400\qr\partightenfactor0
\cf2 \cell 
\pard\intbl\itap1\pardeftab720\sl400\partightenfactor0
\cf2     </mxGraphModel>\cell \row

\itap1\trowd \taflags1 \trgaph108\trleft-108 \trcbpat3 \trbrdrl\brdrnil \trbrdrr\brdrnil 
\clvertalt \clshdrawnil \clwWidth37045\clftsWidth3 \clminw1000 \clbrdrt\brdrnil \clbrdrl\brdrnil \clbrdrb\brdrnil \clbrdrr\brdrnil \clpadl200 \clpadr200 \gaph\cellx4320
\clvertalt \clshdrawnil \clwWidth49061\clftsWidth3 \clbrdrt\brdrnil \clbrdrl\brdrnil \clbrdrb\brdrnil \clbrdrr\brdrnil \clpadl200 \clpadr200 \gaph\cellx8640
\pard\intbl\itap1\pardeftab720\sl400\qr\partightenfactor0
\cf2 \cell 
\pard\intbl\itap1\pardeftab720\sl400\partightenfactor0
\cf2   </diagram>\cell \row

\itap1\trowd \taflags1 \trgaph108\trleft-108 \trcbpat3 \trbrdrl\brdrnil \trbrdrt\brdrnil \trbrdrr\brdrnil 
\clvertalt \clshdrawnil \clwWidth37045\clftsWidth3 \clminw1000 \clbrdrt\brdrnil \clbrdrl\brdrnil \clbrdrb\brdrnil \clbrdrr\brdrnil \clpadl200 \clpadr200 \gaph\cellx4320
\clvertalt \clshdrawnil \clwWidth49061\clftsWidth3 \clbrdrt\brdrnil \clbrdrl\brdrnil \clbrdrb\brdrnil \clbrdrr\brdrnil \clpadl200 \clpadr200 \gaph\cellx8640
\pard\intbl\itap1\pardeftab720\sl400\qr\partightenfactor0
\cf2 \cell 
\pard\intbl\itap1\pardeftab720\sl400\partightenfactor0
\cf2 </mxfile>\cell \lastrow\row
}